<svg id="Layer_1" data-name="Layer 1" xmlns="http://www.w3.org/2000/svg" viewBox="0 0 265.33 303.17"><defs><style>.cls-1{fill:#fff;}</style></defs><title>simple-present-box-vector-icon</title><rect class="cls-1" x="15.56" y="162.71" width="109.28" height="140.46"/><rect class="cls-1" x="140.46" y="162.71" width="109.29" height="140.46"/><rect class="cls-1" y="68.97" width="124.91" height="78.07"/><rect class="cls-1" x="140.46" y="68.97" width="124.87" height="78.07"/><path class="cls-1" d="M509.5,142c-8.74-8.76-22.58-10.6-32.65-10.6-18.07,0-45.52,6.43-63.43,24.57a51,51,0,0,0-14.13,25.73,51,51,0,0,0-14.13-25.73c-17.9-18.14-45.36-24.57-63.43-24.57-10.07,0-23.9,1.84-32.65,10.6A23.76,23.76,0,0,0,282,159.15c0,19.17,19.17,32.1,56.86,38.45a348.42,348.42,0,0,0,51.22,4.27h0l9.18,0,9.18,0h0a348.42,348.42,0,0,0,51.22-4.27c37.7-6.35,56.83-19.28,56.87-38.45A23.81,23.81,0,0,0,509.5,142ZM302.29,159.11a3.56,3.56,0,0,1,1.16-2.81c2.24-2.24,8.22-4.64,18.28-4.64,18.07,0,38.22,7.62,49,18.53a32.64,32.64,0,0,1,7.42,11.13C340.18,179.77,302.32,171.09,302.29,159.11Zm118.16,22.21a32.79,32.79,0,0,1,7.42-11.13c10.77-10.91,30.91-18.53,49-18.53,10.07,0,16,2.4,18.29,4.64a3.58,3.58,0,0,1,1.15,2.81C496.27,171.09,458.4,179.77,420.45,181.32Z" transform="translate(-266.64 -131.36)"/></svg>