<svg xmlns="http://www.w3.org/2000/svg" viewBox="0 0 790.69 790.69"><defs><style>.cls-1{fill:#fff;}.cls-2{fill:#1a1a1a;}</style></defs><title>Asset 6</title><g id="Layer_2" data-name="Layer 2"><g id="Layer_1-2" data-name="Layer 1"><circle cx="395.35" cy="395.35" r="395.35"/><path class="cls-1" d="M752,376.15a160,160,0,0,0-16.17-52.91c-11.52-23.05-27.31-42.85-46.13-60.29C658,233.57,621.1,212.58,581.11,196.78a434.78,434.78,0,0,0-86.7-24.44c-16.09-2.75-32.31-4.9-48.54-6.72-10.78-1.22-21.68-1.37-32.53-2-.92-.06-1.84-.22-2.75-.33H380.1c-4.84.28-9.7.47-14.53.86-11.61.92-23.23,1.78-34.81,3a452,452,0,0,0-55.65,9.49C226,188,179.62,206,137.52,234.16c-22.06,14.75-42,31.9-58.82,52.53-18.59,22.82-32,48.2-38,77.22-1.39,6.83-1.92,13.84-2.85,20.76-.11.77-.27,1.54-.4,2.3v16.75c.41,3.61.8,7.22,1.23,10.82a160.15,160.15,0,0,0,16.17,52.92c11.52,23,27.31,42.84,46.13,60.28,31.72,29.38,68.57,50.37,108.56,66.17a435.64,435.64,0,0,0,86.7,24.44c16.09,2.75,32.31,4.9,48.54,6.72,10.79,1.22,21.68,1.37,32.53,2,.92.06,1.84.22,2.75.33h30.49c4.84-.28,9.7-.47,14.54-.86,11.6-.92,23.22-1.77,34.8-3a452.49,452.49,0,0,0,55.66-9.49c48-11.13,93.47-28.65,134.9-55.79,21.16-13.86,40.48-29.88,57.08-49,20.77-24,35.89-50.93,42.32-82.27,1.41-6.9,2-14,2.92-21,.1-.77.26-1.53.39-2.29V387C752.8,383.37,752.4,379.76,752,376.15Zm-84.14-105c4.1.19,6.78,2.25,9.55,4.86,19.31,18.17,35.31,38.72,46,63.15.42,1,.8,1.95,1.21,2.95L606.86,337.8a239.55,239.55,0,0,0-32.42-75c5.62.39,10.74.72,15.85,1.12q9.29.74,18.56,1.57c7.31.65,14.63,1.34,21.94,2,6.46.61,12.93,1.21,19.38,1.85C656.06,269.92,661.93,270.82,667.83,271.1ZM639.44,247c-2-.15-4-.27-6-.45-10.58-1-21.16-2-31.75-2.9-8.53-.7-17.08-1.2-25.62-1.81-5.7-.4-11.41-.74-17.08-1.35-1.05-.11-2.14-1.22-2.93-2.12A222.47,222.47,0,0,0,514.55,201c-4.51-3.12-9.18-6-13.77-9C550.21,202.14,596.94,219.13,639.44,247ZM360.56,184.4a3.79,3.79,0,0,1-.28.88c-10,14.12-16.35,30-21.76,46.28-1.54,4.64-1.5,4.6-6.29,4.73-15.15.42-30.29.83-45.43,1.36-8.79.3-17.56.82-26.33,1.23-.41,0-.81,0-1.85,0C287.57,210.53,321.08,192.14,360.56,184.4ZM290,192c-.5.33-1,.67-1.49,1a216.54,216.54,0,0,0-53.78,45.5c-2.12,2.48-4.62,2.22-7.08,2.42-9.11.73-18.24,1.17-27.35,1.87-9.46.72-18.9,1.64-28.35,2.46L151.3,247C193.77,219.12,240.5,202.13,290,192ZM68.61,336.21c10.43-22.66,25.46-41.93,43.44-59a15,15,0,0,0,1.88-1.76c2.54-3.48,6.25-4,10.18-4.4,9.36-.89,18.71-2,28.07-2.9,6.82-.67,13.64-1.21,20.46-1.81,7.61-.67,15.21-1.39,22.82-2,6.75-.55,13.51-1,20.78-1.52a239.67,239.67,0,0,0-32.41,75L66.06,342.06C66.92,340.09,67.72,338.13,68.61,336.21ZM58.59,425a140.19,140.19,0,0,1,0-59.31,2.54,2.54,0,0,1,2.85-2.35c7.86-.25,15.72-.58,23.57-.9,12.71-.53,25.42-1.09,38.13-1.6q13.06-.53,26.14-.94,13.83-.45,27.65-.86c.85,0,1.69,0,2.79,0a247.69,247.69,0,0,0,0,72.54c-.9,0-1.6,0-2.3,0l-57.21-2.05c-9.29-.33-18.58-.59-27.86-.95-10.36-.41-20.71-.92-31.06-1.31A2.44,2.44,0,0,1,58.59,425Zm64.2,94.55c-4.23-.23-6.89-2.44-9.68-5.07C93.92,496.45,78,476,67.38,451.7c-.42-1-.82-1.95-1.3-3.07l117.75,4.26a239.49,239.49,0,0,0,32.39,75c-3.52-.21-6.62-.35-9.7-.59-6.84-.52-13.67-1-20.49-1.64-7.25-.64-14.49-1.35-21.73-2-6.54-.61-13.07-1.18-19.6-1.83C137.39,521.06,130.11,520,122.79,519.59Zm28.47,24.1c2,.15,4,.27,6.06.45,11.58,1,23.16,2.05,34.74,3,13.17,1,26.34,2,39.5,3a4.51,4.51,0,0,1,2.42,1.39c7.94,7.91,15.6,16.13,23.82,23.75,9.39,8.71,19.95,16,31,22.53a4.15,4.15,0,0,1,1.14,1C240.49,588.56,193.76,571.55,151.26,543.69ZM414.86,596a57.22,57.22,0,0,1-7.53,8.18c-7.92,7.07-16.07,7.13-23.92,0a67.35,67.35,0,0,1-9.06-10.24,107.7,107.7,0,0,1-8.22-14H346.34a151.41,151.41,0,0,0,9.15,18.17c1.61,2.68,3.36,5.27,5.27,8.26a193.36,193.36,0,0,1-66.91-26.43h-2.18l.28-1.25a209.72,209.72,0,0,1-32.78-26.31c5.14,0,10.19-.14,15.23,0,7.74.26,15.47.76,23.21,1.06l4.69-20.87c-4.46-.16-8.93-.29-13.39-.48-10.35-.45-20.7-1-31.05-1.59-5.71-.3-11.42-.6-17.12-1a3.46,3.46,0,0,1-2.28-1.14A217.26,217.26,0,0,1,203.2,456H187.56l3.77-17.53,4.79-22.25c-.53-8.74-1.11-17.5-.93-26.23.2-10,1.57-19.92,2.53-29.87a2.17,2.17,0,0,1,1.55-1.4c3.1-.11,6.2-.17,9.3-.27L211.24,346l1.9-8.83-10.73.19c1-3.5,1.94-7,3.05-10.52A220.57,220.57,0,0,1,237.91,263a4.09,4.09,0,0,1,3.49-1.87c11.92-.58,23.83-1.34,35.75-2q10.28-.56,20.57-.9c10.43-.36,20.87-.63,31.31-.93.63,0,1.27,0,2.24,0a537.53,537.53,0,0,0-12.08,77.24h18c2.36-26.2,6.2-52,12.7-77.77h14.35L369,235.62h-13c1.77-4.69,3.42-9.37,5.29-14,4.18-10.27,9-20.27,16.1-28.86a51.22,51.22,0,0,1,9.2-8.57c5.66-4.14,11.7-4,17.59-.15a43.06,43.06,0,0,1,11.3,11.3,108.37,108.37,0,0,1,9.07,15.41h19.86a150.47,150.47,0,0,0-9.14-18.16c-1.61-2.68-3.37-5.28-5.28-8.26a193.47,193.47,0,0,1,66.92,26.42H499L498.7,212a210.26,210.26,0,0,1,32.82,26.33c-5.21,0-10.33.14-15.44,0-7.69-.25-15.37-.72-23.05-1l-4.69,20.86c8.3.3,16.59.58,24.88.93,10.71.46,21.41,1.11,32.12,1.68a33.36,33.36,0,0,1,5.11.47,4.43,4.43,0,0,1,2.22,1.68,216.58,216.58,0,0,1,31.77,61.58c1.1,3.32,2.06,6.69,3,10.05h15.65l-3.78,17.54-4.81,22.31c.54,9,1.12,18,1,27-.19,9.76-1.58,19.49-2.53,29.23a2.16,2.16,0,0,1-1.58,1.37c-3.1.11-6.2.17-9.31.27l-2.63,12.23-2,9,11.23-.2c-3.17,9-6,18-9.44,26.75a211.22,211.22,0,0,1-26.22,47.25,4.83,4.83,0,0,1-4.17,2.26c-11.85.55-23.68,1.33-35.53,2q-10.28.54-20.57.89c-10.29.35-20.59.62-30.88.92-.77,0-1.54,0-2.52,0,6.14-25.66,9.81-51.45,12.14-77.44h-18c-2.39,26.3-6.22,52.16-12.73,77.95H426.43l-4.76,21.18h13c-1,2.77-1.94,5.56-3,8.32C427.33,574.91,422.34,586.11,414.86,596Zm15.26,10.3a3.31,3.31,0,0,1,.27-.82c10.33-14.63,16.86-31,22.21-47.94.77-2.43,1.85-3.1,4.29-3.16q23.25-.5,46.51-1.32c9-.3,18-.83,27-1.25.34,0,.68,0,1.69,0C503.11,580.18,469.57,598.58,430.12,606.29Zm70.57-7.65c.54-.35,1.08-.71,1.63-1a216.45,216.45,0,0,0,53.61-45.37c2.11-2.48,4.59-2.27,7.07-2.46,11-.86,21.94-1.44,32.9-2.3,10.8-.85,21.59-1.92,32.39-2.88,3.69-.33,7.38-.62,11.07-.92C596.94,571.56,550.21,588.55,500.69,598.64Zm223-147.79c-9.28,21.73-23,40.41-39.43,57.17-2.41,2.45-5.16,4.59-7.36,7.21-2.8,3.34-6.39,4.09-10.4,4.45-7.88.71-15.74,1.66-23.61,2.44-6.67.66-13.35,1.23-20,1.83-7.46.68-14.92,1.39-22.38,2-6.19.52-12.39.94-18.58,1.41l-7.43.53a240.05,240.05,0,0,0,32.4-75l117.67-4.26C724.25,449.36,724,450.12,723.67,450.85Zm8.46-25.91a2.54,2.54,0,0,1-2.84,2.37c-7.86.25-15.71.58-23.56.9-12.71.53-25.42,1.09-38.13,1.6q-13.08.53-26.15.94-13.82.45-27.65.86c-.84,0-1.69,0-2.83,0a247.62,247.62,0,0,0,0-72.53c.94,0,1.71,0,2.48,0,17.65.57,35.29,1.11,52.94,1.74,14.28.51,28.56,1.11,42.84,1.69,6.64.27,13.28.63,19.92.86,1.76.06,2.61.64,3,2.46A140.88,140.88,0,0,1,732.13,424.94Z"/><path class="cls-1" d="M499,210.79h-2.13c.62.39,1.23.82,1.85,1.22Z"/><polygon class="cls-1" points="453.1 349.03 480.88 225.27 386.14 225.27 358.35 349.03 225.4 349.03 205.49 441.47 337.6 441.47 309.76 565.42 404.5 565.42 432.34 441.47 565.29 441.47 585.2 349.03 453.1 349.03"/><path class="cls-2" d="M439.47,395.34c-5.42,2-10.39,3.87-15.37,5.71-5.28,2-10.54,3.93-15.85,5.81a3.17,3.17,0,0,0-2.1,2.11q-5.44,14.83-11,29.63c-.15.42-.31.83-.57,1.52-.59-1.55-1.11-2.86-1.59-4.17q-5-13.6-10.06-27.21a2.73,2.73,0,0,0-1.81-1.81Q366.31,401.5,351.49,396c-.45-.17-.89-.36-1.7-.69l4.83-1.8c8.84-3.26,17.68-6.54,26.54-9.77a2.74,2.74,0,0,0,1.81-1.8c3.62-9.89,7.3-19.76,11-29.63.19-.51.4-1,.71-1.75,2.87,7.72,5.63,15.16,8.39,22.6,1.07,2.9,2.19,5.78,3.18,8.7a2.83,2.83,0,0,0,1.93,1.9q14.57,5.33,29.1,10.72C437.85,394.69,438.44,394.94,439.47,395.34Z"/></g></g></svg>