<svg id="Layer_1" data-name="Layer 1" xmlns="http://www.w3.org/2000/svg" viewBox="0 0 627.23 328.37"><title>atasangin-black</title><polygon points="166.05 3.05 121.64 3.05 74.59 145.63 114.11 145.63 143.85 45.22 173.79 145.63 213.1 145.63 166.05 3.05"/><polygon points="392.98 3.05 348.57 3.05 301.53 145.63 341.04 145.63 370.78 45.22 400.72 145.63 440.03 145.63 392.98 3.05"/><polygon points="311.07 3.05 311.07 38.29 275.83 38.29 275.83 145.63 239.37 145.63 239.37 38.29 204.14 38.29 204.14 3.05 311.07 3.05"/><path d="M521.1,88.29c-19.35-5.71-24.44-9.17-24.44-15.48,0-5.51,4.48-9.37,13.23-9.37,10.39,0,17.73,5.29,22.21,15.89L562.65,61.4c-9.78-21.18-29.13-32.59-53-32.59q-21.07,0-35.44,12.22c-9.37,8.15-14.05,18.74-14.05,32,0,14,5.39,24.18,14.91,31.7" transform="translate(-13.89 -28.81)"/><path d="M491.3,113.77a117.63,117.63,0,0,0,11.26,3.85c9.17,2.65,15.28,4.48,17.93,5.5,6.31,2.64,9.57,5.9,9.57,10.18,0,6.32-5.5,9.57-16.7,9.57q-20.17,0-28.11-18.94l-31.16,18.13c7.94,21.79,28.11,35.44,58.25,35.44,16.29,0,29.33-3.87,39.31-11.81s14.87-18.75,14.87-32.8-4.89-24.64-14.87-31.16a88.08,88.08,0,0,0-10.35-6.12" transform="translate(-13.89 -28.81)"/><polygon points="92.81 180.59 47.75 180.59 0 325.27 40.1 325.27 70.28 223.37 100.66 325.27 140.56 325.27 92.81 180.59"/><polygon points="230.37 180.59 267.16 180.59 267.16 325.27 238.64 325.27 187.59 252.52 187.59 325.27 150.59 325.27 150.59 180.59 179.32 180.59 230.37 253.34 230.37 180.59"/><path d="M447.65,271.2v14.67c0,21.3-6.62,38.45-20,51.68-13.23,13-30.39,19.64-51.68,19.64q-33.8,0-55.81-21.71c-14.47-14.47-21.7-32.24-21.7-53.53s7.23-39.07,21.7-53.74,32.46-21.91,53.75-21.91a77.23,77.23,0,0,1,37,9.09,68,68,0,0,1,26.46,24.19l-31.42,18c-5.78-9.1-17.57-15.09-31.62-15.09-11.37,0-20.88,3.72-28.11,11.16s-11,16.95-11,28.53c0,11.16,3.52,20.66,10.75,28.31s17.57,11.58,30.59,11.58c16.74,0,27.91-6.41,33.28-19H374.68V271.2Z" transform="translate(-13.89 -28.81)"/><rect x="450.92" y="180.59" width="37" height="144.69"/><polygon points="590.43 180.59 627.23 180.59 627.23 325.27 598.7 325.27 547.65 252.52 547.65 325.27 510.65 325.27 510.65 180.59 539.38 180.59 590.43 253.34 590.43 180.59"/></svg>