<svg id="Layer_1" data-name="Layer 1" xmlns="http://www.w3.org/2000/svg" viewBox="0 0 494.66 258.97"><defs><style>.cls-1{fill:#fff;}</style></defs><title>Logo Atas Angin V7</title><polygon class="cls-1" points="130.95 2.41 95.93 2.41 58.83 114.85 89.99 114.85 113.44 35.66 137.06 114.85 168.06 114.85 130.95 2.41"/><polygon class="cls-1" points="309.92 2.41 274.9 2.41 237.79 114.85 268.96 114.85 292.41 35.66 316.02 114.85 347.02 114.85 309.92 2.41"/><polygon class="cls-1" points="245.32 2.41 245.32 30.2 217.53 30.2 217.53 114.85 188.78 114.85 188.78 30.2 160.99 30.2 160.99 2.41 245.32 2.41"/><path class="cls-1" d="M400,46.9c-15.26-4.49-19.28-7.23-19.28-12.2,0-4.34,3.53-7.39,10.44-7.39,8.19,0,14,4.17,17.51,12.52l24.1-14.13C425.07,9,409.8,0,391,0q-16.62,0-27.95,9.64C355.67,16.06,352,24.42,352,34.86c0,11.07,4.25,19.06,11.75,25"/><path class="cls-1" d="M376.51,67a91.3,91.3,0,0,0,8.88,3c7.23,2.09,12.05,3.54,14.13,4.34,5,2.09,7.55,4.66,7.55,8,0,5-4.33,7.55-13.17,7.55Q378,90,371.74,75l-24.58,14.3c6.26,17.19,22.17,28,45.94,28,12.85,0,23.13-3.05,31-9.32s11.73-14.78,11.73-25.86S432,62.65,424.1,57.5a69.46,69.46,0,0,0-8.16-4.82"/><polygon class="cls-1" points="73.19 142.41 37.66 142.41 0 256.52 31.62 256.52 55.42 176.16 79.39 256.52 110.85 256.52 73.19 142.41"/><polygon class="cls-1" points="181.68 142.41 210.69 142.41 210.69 256.52 188.2 256.52 147.94 199.14 147.94 256.52 118.76 256.52 118.76 142.41 141.42 142.41 181.68 199.79 181.68 142.41"/><path class="cls-1" d="M342.08,191.16v11.57c0,16.79-5.22,30.32-15.81,40.75-10.43,10.27-24,15.49-40.75,15.49q-26.65,0-44-17.12c-11.41-11.41-17.11-25.43-17.11-42.22s5.7-30.81,17.11-42.38S267.1,140,283.88,140a61,61,0,0,1,29.18,7.17,53.7,53.7,0,0,1,20.87,19.08L309.15,180.4c-4.56-7.18-13.85-11.9-24.94-11.9-9,0-16.46,2.93-22.17,8.8s-8.64,13.37-8.64,22.5c0,8.8,2.77,16.29,8.48,22.33s13.85,9.13,24.12,9.13c13.21,0,22-5.06,26.25-15H284.54v-25.1Z"/><rect class="cls-1" x="355.61" y="142.42" width="29.18" height="114.11"/><polygon class="cls-1" points="465.64 142.41 494.65 142.41 494.65 256.52 472.16 256.52 431.89 199.14 431.89 256.52 402.72 256.52 402.72 142.41 425.38 142.41 465.64 199.79 465.64 142.41"/></svg>