<svg xmlns="http://www.w3.org/2000/svg" xmlns:xlink="http://www.w3.org/1999/xlink" viewBox="0 0 372.14 530.32"><defs><style>.cls-1,.cls-16,.cls-19,.cls-20,.cls-26,.cls-30,.cls-33,.cls-8{fill:none;}.cls-2{fill:#202022;}.cls-3{fill:#d32637;}.cls-4{fill:#f99d1c;}.cls-5{clip-path:url(#clip-path);}.cls-27,.cls-28,.cls-29,.cls-34,.cls-37,.cls-6{fill:#f4cf71;}.cls-13,.cls-16,.cls-18,.cls-19,.cls-20,.cls-21,.cls-22,.cls-26,.cls-27,.cls-28,.cls-29,.cls-30,.cls-33,.cls-34,.cls-35,.cls-36,.cls-37,.cls-6,.cls-8{stroke:#202022;}.cls-13,.cls-16,.cls-18,.cls-19,.cls-21,.cls-22,.cls-27,.cls-28,.cls-29,.cls-30,.cls-34,.cls-37,.cls-6,.cls-8{stroke-linecap:round;stroke-linejoin:round;}.cls-6,.cls-8{stroke-width:4.07px;}.cls-7{fill:#d8ad55;}.cls-9{fill:#656b6f;}.cls-10{fill:#45464b;}.cls-11,.cls-35{fill:#d42027;}.cls-12{fill:#7b1226;}.cls-13,.cls-18{fill:#fed279;}.cls-13,.cls-16,.cls-26,.cls-27{stroke-width:3.06px;}.cls-14{fill:#f5f4b7;}.cls-15{fill:#f1bb59;}.cls-17,.cls-21,.cls-22{fill:#fff;}.cls-18,.cls-19,.cls-21,.cls-34{stroke-width:2.93px;}.cls-20,.cls-26,.cls-33,.cls-35,.cls-36{stroke-miterlimit:10;}.cls-20{stroke-width:1.02px;}.cls-22{stroke-width:2.04px;}.cls-23{fill:#ffe7b3;}.cls-24{fill:#f7da9f;}.cls-25{fill:#346b74;opacity:0.1;}.cls-28{stroke-width:4.91px;}.cls-29,.cls-30{stroke-width:3.45px;}.cls-31,.cls-36{fill:#fffbf0;}.cls-32{fill:#efdcb4;}.cls-33{stroke-width:3.63px;}.cls-35,.cls-36{stroke-width:3.74px;}.cls-37{stroke-width:2.67px;}.cls-38{fill:url(#linear-gradient);}.cls-39{fill:url(#linear-gradient-2);}.cls-40{fill:url(#linear-gradient-3);}.cls-41{fill:url(#linear-gradient-4);}.cls-42{fill:url(#linear-gradient-5);}.cls-43{fill:url(#linear-gradient-6);}.cls-44{fill:url(#linear-gradient-7);}.cls-45{fill:url(#linear-gradient-8);}.cls-46{fill:url(#linear-gradient-9);}.cls-47{fill:url(#linear-gradient-10);}.cls-48{clip-path:url(#clip-path-2);}.cls-49{fill:#ba2028;}.cls-50{fill:#df2e49;}.cls-51{fill:url(#linear-gradient-11);}.cls-52{fill:url(#linear-gradient-12);}</style><clipPath id="clip-path" transform="translate(0 -19.1)"><path class="cls-1" d="M247.51,143.45c.19-2.23.36-1.35.65-3q3.19-18.35,6.4-36.69c1.6-9.2,3.21-18.65,1.38-27.8-1.41-7.1-4.81-13.62-8.23-20-4.94-9.21-10.09-18.47-17.39-25.95-8.14-8.36-18.6-14.12-29.35-18.66C170.42-1.58,134.21-5.18,104.55,9.68,90.28,16.82,78.32,27.76,66.73,38.73c-4,3.81-8.1,7.73-10.81,12.58C52.21,58,51.39,65.83,50.65,73.44c-1.72,17.61-3.31,36.14,3.85,52.31,3,6.82,7.47,12.89,11.45,19.18a135.19,135.19,0,0,1,11.88,23.26C36,199.74,6.9,249.87,6.9,306.33c0,95.47,79.37,172.86,174.83,172.86A172.86,172.86,0,0,0,354.59,306.33C354.59,227.57,326.35,175.92,247.51,143.45Z"/></clipPath><linearGradient id="linear-gradient" x1="40.1" y1="370.33" x2="37.81" y2="311.27" gradientUnits="userSpaceOnUse"><stop offset="0.01" stop-color="#ed1a3b"/><stop offset="1" stop-color="#ee2524"/></linearGradient><linearGradient id="linear-gradient-2" x1="141.08" y1="366.42" x2="138.8" y2="307.36" xlink:href="#linear-gradient"/><linearGradient id="linear-gradient-3" x1="89.82" y1="368.41" x2="87.54" y2="309.34" xlink:href="#linear-gradient"/><linearGradient id="linear-gradient-4" x1="186.39" y1="345.58" x2="184.1" y2="286.51" xlink:href="#linear-gradient"/><linearGradient id="linear-gradient-5" x1="218.34" y1="344.34" x2="216.05" y2="285.27" xlink:href="#linear-gradient"/><linearGradient id="linear-gradient-6" x1="248.81" y1="343.16" x2="246.52" y2="284.09" xlink:href="#linear-gradient"/><linearGradient id="linear-gradient-7" x1="285.18" y1="341.75" x2="282.89" y2="282.68" xlink:href="#linear-gradient"/><linearGradient id="linear-gradient-8" x1="323" y1="340.29" x2="320.71" y2="281.22" xlink:href="#linear-gradient"/><linearGradient id="linear-gradient-9" x1="355.46" y1="339.03" x2="353.18" y2="279.96" xlink:href="#linear-gradient"/><linearGradient id="linear-gradient-10" x1="354.7" y1="339.06" x2="352.41" y2="279.99" xlink:href="#linear-gradient"/><clipPath id="clip-path-2" transform="translate(0 -19.1)"><path class="cls-1" d="M43.58,338.14l-8.48,1.29-3.2.49-5,.76-5.71.87-2.57.39L21.24,346,22,395.52l-2.51,4.87L22,400l5.71-.87,2.7-.41,5.52-.84,18.39-2.79L61.5,386l-.24-17-5.74-5.48,5.57-5.82-.2-13.92-7.4-7.17Zm.16,11.31,3.3,2.12.08,5.51-3.22,3.26-8.47,1.29-.16-10.9Zm-8,37.13-.2-13.65,8.47-1.29,3.17,1.59.12,8.14-3.09,3.92ZM154,321.33l-18.39,2.8-3.2.49-5,.76-5.72.87-2.57.39,2.64,4.09.71,49.49L120,385.1l2.57-.4,5.71-.86,2.7-.41,5.52-.85,18.39-2.79h0l7.17-9.11-.61-42.18-7.4-7.17Zm-17.71,49.95-.52-35.84,8.47-1.29,3.3,2.12.31,29.8L144.8,370Zm-35.59-37.35,1-4.64-2.14.32-3.39.52-3.67.56-5.51.84-3.67.56L80,332.6l-2.14.33L79,337.24,68.27,387.3h0l-3.14,6.14,1.89-.28,2.13-.33,8.79-1.34,1.65-.25,3.24-.49-2-5.36h0l2.4-11.21,6.68,2.37,7.53-5,2.83,10.9-1.83,5.94,3.25-.49,1.65-.25,8.78-1.34,2.14-.32,1.88-.29-3.3-5.16Zm-11,30.21s-2.48-.88-4.06-1.36l4.28-20L94.7,361C93.6,361.58,89.74,364.14,89.74,364.14Zm110.4-3.67,7-4.24-4.35,16.27-33.27,5.06-4.13-11.8,24.18-38.5-13.89,2.11-7,4.24L173,318.45l27.87-4.24L205,324.9l-23.67,38.42ZM224,316.35l.69,47.15,2.46,5.29-2.38.36L211,371.25l-2.39.36,2.31-6-.68-47.15-2.47-5.29,2.38-.36h0L224,310.7h0l2.39-.37Zm34.54,35.23,7.43-5.92-4.8,17.95L238.79,367h0l-5.21.79-2.38.36,2.3-6L232.82,315l-2.47-5.29,2.39-.36h0l13.81-2.1h0l2.38-.37-2.3,6,.58,40.39Zm36.21-5.51,7.43-5.92-4.8,18L275,361.51h0l-5.21.79-2.39.36,2.3-6L269,309.5l-2.46-5.29,2.38-.36h0l13.81-2.1h0l2.38-.37-2.3,6,.58,40.39Zm39-5.94,7.43-5.91-4.8,17.95L311.34,356h0l-5.21.79-2.38.37,2.3-6L305.37,304l-2.47-5.29,2.39-.36h0l5.21-.79,8.6-1.31,15.37-2.34,4.47,13.83-6.75-1.91-12.93,2,.15,10.38L327.2,317l4.23-3.13.1,7.17,0,2.35.1,7.16-4.3-1.83-7.79,1.19.18,12.4ZM360.27,290l.59,41.28-13.8,2.1-.6-41.28ZM347.13,338.1l13.8-2.1.18,12.41-13.8,2.1Z"/></clipPath><linearGradient id="linear-gradient-11" x1="193.39" y1="483.02" x2="183.09" y2="397.86" gradientUnits="userSpaceOnUse"><stop offset="0" stop-color="#f05323"/><stop offset="1" stop-color="#f99d1c"/></linearGradient><linearGradient id="linear-gradient-12" x1="207.26" y1="481.34" x2="196.96" y2="396.18" xlink:href="#linear-gradient-11"/></defs><title>Asset 1</title><g id="Layer_2" data-name="Layer 2"><g id="Layer_1-2" data-name="Layer 1"><circle class="cls-2" cx="181.75" cy="307.16" r="181.75" transform="translate(-163.96 199.38) rotate(-45)"/><path class="cls-3" d="M181.75,135.48A171.68,171.68,0,1,0,353.42,307.16,171.68,171.68,0,0,0,181.75,135.48Zm0,333.59a161.91,161.91,0,1,1,161.9-161.91A161.91,161.91,0,0,1,181.75,469.07Z" transform="translate(0 -19.1)"/><path class="cls-4" d="M181.75,148.66a158.5,158.5,0,1,0,158.49,158.5A158.5,158.5,0,0,0,181.75,148.66Zm0,308A149.48,149.48,0,1,1,331.22,307.16,149.47,149.47,0,0,1,181.75,456.64Z" transform="translate(0 -19.1)"/><g class="cls-5"><path class="cls-6" d="M90.18,251.6S61.68,259,37.24,271.76c0,0,14.61,37,44,63l27-47.89Z" transform="translate(0 -19.1)"/><path class="cls-6" d="M123.67,140s0-9.69,4.92-27.9c0,0,23.06-.64,34.62,6.87C163.21,118.92,140.17,122.6,123.67,140Z" transform="translate(0 -19.1)"/><path class="cls-6" d="M93.85,184.27a210.23,210.23,0,0,0-37,32.5s8.72,25.94,37,36.3C93.85,253.07,77.2,220.93,93.85,184.27Z" transform="translate(0 -19.1)"/><path class="cls-6" d="M134,138.34a210.25,210.25,0,0,0-50.17,13.1S89.48,173.38,94,185.6C94,185.6,110.16,154.32,134,138.34Z" transform="translate(0 -19.1)"/><path class="cls-7" d="M136.74,129.39c-3.4-5.23-5.86-12.06-7.42-17.35h-.73c-5,18.21-4.92,27.9-4.92,27.9A66.65,66.65,0,0,1,136.74,129.39Z" transform="translate(0 -19.1)"/><path class="cls-7" d="M84.66,151.1l-.85.34s5.32,20.6,9.79,33l.25-.17-.17.39c.12.32.23.63.35.94a159.28,159.28,0,0,1,10.58-17C93.67,163.74,87.79,156.73,84.66,151.1Z" transform="translate(0 -19.1)"/><path class="cls-7" d="M56.81,216.77s8.72,25.94,37,36.3a75.4,75.4,0,0,1-6.19-20.35A95.83,95.83,0,0,1,57,216.52Z" transform="translate(0 -19.1)"/><path class="cls-7" d="M81.21,334.75l22.86-40.59c-30.94-4.81-53.49-14.7-66.62-21.89C39.29,276.72,53.83,310.49,81.21,334.75Z" transform="translate(0 -19.1)"/><path class="cls-8" d="M90.18,251.6S61.68,259,37.24,271.76c0,0,14.61,37,44,63l27-47.89Z" transform="translate(0 -19.1)"/><path class="cls-8" d="M123.67,140s0-9.69,4.92-27.9c0,0,23.06-.64,34.62,6.87C163.21,118.92,140.17,122.6,123.67,140Z" transform="translate(0 -19.1)"/><path class="cls-8" d="M93.85,184.27a210.23,210.23,0,0,0-37,32.5s8.72,25.94,37,36.3C93.85,253.07,77.2,220.93,93.85,184.27Z" transform="translate(0 -19.1)"/><path class="cls-8" d="M134,138.34a210.25,210.25,0,0,0-50.17,13.1S89.48,173.38,94,185.6C94,185.6,110.16,154.32,134,138.34Z" transform="translate(0 -19.1)"/><path class="cls-9" d="M362,312.19c-12.77,14.19-35.44,32.17-72.1,39.68l-1.13-27.18L287.53,330q0-4.74-.15-9.51s59.63-25.53,50.85-92.14c0,0-29.77-62.36-99.43-80.66,0,0,5.21,37,31.39,81.58,0,0-20.77,15.21-41,10.25L93.85,253.07S29.44,290.45,19.2,303.51,5.61,352.65,55.75,371.84c0,0,12.86,68.58,36.64,115.2-8.53,7.07-19.4,18.55-17.14,29.78,0,0,5.66,25.79,41.06,13.59l25.74-12.91v-8.57l-2.63-11.81.53-.45-.78-18.77s38.58,11.39,61.49,0l2.79,17.32-3.06,13.71v8.57l25.74,12.91c35.4,12.2,41.07-13.59,41.07-13.59,2.43-12.14-10.47-24.57-19.17-31.4,1.88-3.76,4.14-8.46,6.61-14l-2.52,10.86a222.15,222.15,0,0,0,19.17-53.68s63.42-7.93,97.75-112.36A4.16,4.16,0,0,0,362,312.19Z" transform="translate(0 -19.1)"/><path class="cls-10" d="M238.36,478.75l-8.07,0c18.92,11.74,26.28,42.43,26.28,42.43l-15.72,11.17c-7.63-18.6-27.41-21.67-27.41-21.67,2.43-2.45,3.73-15.24,3.73-15.24V469.48c37-19.34,53.9-49.39,53.9-49.39l11.49-46.77c-39.61,81.95-94.85,91.93-113.17,92.89-18.32-1-73.55-10.94-113.16-92.89l11.49,46.77s16.87,30.05,53.9,49.39V495.4s1.3,12.79,3.73,15.24c0,0-19.78,3.07-27.41,21.67L82.22,521.14s7.35-30.69,26.28-42.43l-8.07,0s-22.43-25.39-25.18-34l-.13.23A322.23,322.23,0,0,0,92.39,487c-8.53,7.07-19.4,18.55-17.14,29.78,0,0,5.66,25.79,41.06,13.59l25.74-12.91v-8.57l-2.63-11.81.53-.45-.78-18.77s38.58,11.39,61.49,0l2.79,17.32-3.06,13.71v8.57l25.74,12.91c35.4,12.2,41.07-13.59,41.07-13.59,2.43-12.14-10.47-24.57-19.17-31.4a394.59,394.59,0,0,0,16.68-38.59l-1.17-2.09C260.79,453.36,238.36,478.75,238.36,478.75Z" transform="translate(0 -19.1)"/><path class="cls-10" d="M86.66,281c6.94,2.12,12.59,7,18.62,11.09,14.37,9.62,31.72,14.43,49,14.64s34.49-4.07,50.15-11.39a64.91,64.91,0,0,0,15.26-9.38c12.42-10.75,17.65-27.55,27.92-40.37a91.7,91.7,0,0,1,8.2-8.76c-7.52,2.9-17.13,5-26.6,2.69L93.85,253.07s-24,11.68-45,29.95C60.41,277,73,276.8,86.66,281Z" transform="translate(0 -19.1)"/><path class="cls-10" d="M335.38,223.07c-1.64-2.82-4-6.62-7.08-11.06l-7.42-9.84h0s-36.58-11-58.76-43.75V156a145.48,145.48,0,0,0-23.32-8.3s5.21,37,31.39,81.58C270.19,229.25,303.32,239.51,335.38,223.07Z" transform="translate(0 -19.1)"/><path class="cls-10" d="M369,316.26a4,4,0,0,0-.52-3.64c-4.78,11.37-32.78,72-86.68,73.74l-10.14,42.2C277.19,427.66,336.32,415.78,369,316.26Z" transform="translate(0 -19.1)"/><path class="cls-9" d="M250.32,212.33a161.23,161.23,0,0,0-13.2-12.72c-13.77-57.86-54.05-76.6-68-81.45a14.68,14.68,0,0,0-9.66,0c-13.95,4.85-54.23,23.59-68,81.45a160.18,160.18,0,0,0-13.19,12.72,16,16,0,0,0,2.17,23.48,107,107,0,0,0,12.94,8.37s8.86,32.91,43.05,48.59a67.06,67.06,0,0,0,55.75,0c34.19-15.68,43.05-48.59,43.05-48.59a107.8,107.8,0,0,0,12.94-8.37A16,16,0,0,0,250.32,212.33Z" transform="translate(0 -19.1)"/><path class="cls-10" d="M248.15,235.81a16,16,0,0,0,2.17-23.48,161.23,161.23,0,0,0-13.2-12.72c-.31-1.34-.66-2.64-1-3.93l-.42.33,2.72,13.75s10.64,2.34,9.92,10.18-11,10.52-11,10.52l-3.17,15.15.45.32c.37-1.12.55-1.75.55-1.75A107.8,107.8,0,0,0,248.15,235.81Z" transform="translate(0 -19.1)"/><path class="cls-10" d="M166.24,294.25c-2.37-.05-5.1-1.3-5.37-3.65a11.82,11.82,0,0,0-.13-2.39c-.32-1-1.36-1.61-2.23-2.23-5.64-4-6.91-11.77-6.63-18.65s1.58-14-.74-20.5a9.55,9.55,0,0,0-2.43-4c-1.72-1.56-4.15-2.06-6-3.41-4-2.83-4.54-8.8-2.59-13.27s5.76-7.8,9.47-11c-2.75-2-3.23-6.13-1.7-9.15s4.59-5,7.78-6.09c-7.78-2.82-12.19-12.61-9.14-20.31A140.84,140.84,0,0,1,122.8,164.1c-2.57-2.09-5.13-4.35-6.62-7.31a10,10,0,0,1-.82-7.13c-9.84,12-18.75,28.23-23.92,50a160.18,160.18,0,0,0-13.19,12.72,16,16,0,0,0,2.17,23.48,107,107,0,0,0,12.94,8.37s8.86,32.91,43.05,48.59a67,67,0,0,0,35.43,5.63,20.59,20.59,0,0,0,1.48-4.25C171,293.63,168.61,294.3,166.24,294.25Z" transform="translate(0 -19.1)"/><path class="cls-10" d="M119.23,145.22a13.71,13.71,0,0,1,6.29-1.17,25.37,25.37,0,0,1,20,10.92c-1.69-2.49,2.23-11,3.38-13.32,2.25-4.52,7.1-7.27,9.3-11.29,1.62-3,1.13-7.45-.56-11.55A101.23,101.23,0,0,0,119.23,145.22Z" transform="translate(0 -19.1)"/><path class="cls-2" d="M100.43,219.14s60,55.82,126.15,3.47c0,0-3.59,51.88-44.21,63-10.18,2.79-20.74,3.83-30.91,1C133.45,281.68,100.43,266.19,100.43,219.14Z" transform="translate(0 -19.1)"/><path class="cls-11" d="M151.46,286.63c10.17,2.8,20.73,1.76,30.91-1,16.07-4.4,26.34-15.18,32.89-26.6-8.55-5.19-24.41-11.8-51-13.14-30.29-1.52-46,7.14-53.12,13C122.4,276,140,283.48,151.46,286.63Z" transform="translate(0 -19.1)"/><path class="cls-10" d="M101.71,171.58c-3.32,8.44-4.83,18.16-1.26,26.5a13.35,13.35,0,0,1,1.48,4.45c.08,1.57-.8,3.34-2.35,3.61,18.62-4.69,38-5,57.24-5.25a16.75,16.75,0,0,1,5.29.48c1.8.55,3.41,1.7,5.28,1.92,2.09.26,4.11-.68,6.12-1.31a35.07,35.07,0,0,1,7.27-1.29c12.22-1.15,24.53-.08,36.76,1,5.5.48,11.75,2.84,16.82,5.05a19.71,19.71,0,0,1-3.22-9.18c-.06-2.42.58-4.8.88-7.21A26.51,26.51,0,0,0,230,176.26a4.3,4.3,0,0,0-1.16-1.73,4.53,4.53,0,0,0-2.83-.7,49.46,49.46,0,0,0-30.59,10.11c-3.87,3-7.33,6.54-11.62,8.87a8.11,8.11,0,0,1-4.37,1.25,3.59,3.59,0,0,1-3.36-2.64,9,9,0,0,1-12.25.65,16.52,16.52,0,0,0-2-1.82,10.5,10.5,0,0,0-2.9-1.06c-7-2-12.37-7.43-17.93-12.12a108.53,108.53,0,0,0-22.56-14.67c-4.3-2.09-6.86-3.76-10.77-.22C104.83,164.68,103.06,168.16,101.71,171.58Z" transform="translate(0 -19.1)"/><path class="cls-12" d="M164.28,245.87c-30.29-1.52-46,7.14-53.12,13a59.28,59.28,0,0,0,5.58,7.2,43.25,43.25,0,0,1,45.72,1.37c18.83-10.66,37.54-6.9,49-2.51,1.38-1.93,2.64-3.9,3.79-5.89C206.71,253.82,190.85,247.21,164.28,245.87Z" transform="translate(0 -19.1)"/><path class="cls-2" d="M88.09,213A106.65,106.65,0,0,1,90.43,197a142.59,142.59,0,0,1,4.42-15.7,122.93,122.93,0,0,1,14.72-29.36,97.2,97.2,0,0,1,23.07-24,90.59,90.59,0,0,1,14.44-8.59c1.26-.62,2.55-1.18,3.84-1.72.62-.28,1.36-.55,2.07-.82s1.45-.5,2.18-.7a33.36,33.36,0,0,1,9-1.29,34,34,0,0,1,9,1.18,36.62,36.62,0,0,1,4.32,1.47c1.34.57,2.58,1.13,3.85,1.74a100.83,100.83,0,0,1,14.43,8.51,97.53,97.53,0,0,1,23.47,23.57,101.69,101.69,0,0,1,8.39,14.3A110.64,110.64,0,0,1,233.66,181a127.69,127.69,0,0,1,3.65,15.92A133.33,133.33,0,0,1,238.8,213c-.59-2.64-1-5.29-1.71-7.89s-1.28-5.21-2-7.79a142.5,142.5,0,0,0-5.2-15.07,110.25,110.25,0,0,0-6.92-14.2,108.18,108.18,0,0,0-8.76-13,101.36,101.36,0,0,0-22.76-21A99.23,99.23,0,0,0,178,126.49c-1.16-.53-2.37-1.08-3.51-1.55a29.38,29.38,0,0,0-3.32-1.11,26.82,26.82,0,0,0-6.91-.86,25.77,25.77,0,0,0-6.88.94c-.56.15-1.11.34-1.67.52s-1.06.39-1.68.66c-1.19.49-2.36,1-3.53,1.54a87.67,87.67,0,0,0-13.39,7.62,95.78,95.78,0,0,0-12,9.79,111.74,111.74,0,0,0-10.42,11.61,127.76,127.76,0,0,0-8.82,13,139.92,139.92,0,0,0-7.32,14.07c-2.24,4.82-4.18,9.79-6,14.83-.89,2.52-1.7,5.08-2.45,7.65S88.69,210.4,88.09,213Z" transform="translate(0 -19.1)"/><path class="cls-2" d="M91.44,199.61S68.88,209.06,72,224.17c2.08,9.94,11.75,18.57,21.82,21.44,0,0-2-5.27-2-7.78,0,0-14.55-5.32-16.17-15.77,0,0-1.08-10.28,13.3-14Z" transform="translate(0 -19.1)"/><path class="cls-2" d="M235.69,196s23.49,13.05,20.33,28.16c-2.07,9.94-11.74,18.57-21.81,21.44,0,0,2-5.27,2-7.78,0,0,14.55-5.32,16.17-15.77,0,0,.13-10.28-14.25-14Z" transform="translate(0 -19.1)"/><path class="cls-2" d="M88.09,228.84a114,114,0,0,0,11.06,25.22,91.3,91.3,0,0,0,16.76,21.05c.79.78,1.66,1.47,2.51,2.19s1.68,1.44,2.59,2.08,1.74,1.36,2.66,2l2.75,1.84c.92.61,1.9,1.12,2.84,1.68l1.43.83,1.47.74c1,.49,2,1,3,1.46l3,1.28A72.48,72.48,0,0,0,150.78,293c1.09.21,2.15.5,3.24.65l3.28.48c.55.07,1.1.17,1.64.23l1.62.12,3.24.27c.25,0,.61.06.61,0l.77,0c.52,0,1.07-.08,1.6-.12,1.08-.1,2.17-.22,3.26-.37,2.18-.29,4.36-.71,6.52-1.18a88,88,0,0,0,12.71-3.8,75.73,75.73,0,0,0,22.64-13.53,73.17,73.17,0,0,0,16.42-21,107,107,0,0,0,9.27-25.87A85.28,85.28,0,0,1,232,256.38a70.55,70.55,0,0,1-15.68,24,75.55,75.55,0,0,1-24.13,16,89.53,89.53,0,0,1-13.82,4.49c-2.37.54-4.75,1-7.16,1.35-1.21.17-2.42.32-3.65.44-.62.06-1.23.12-1.86.15l-1,.06a8.42,8.42,0,0,1-1.13,0l-3.69-.32-1.85-.16c-.61-.07-1.2-.17-1.8-.26l-3.6-.55c-1.2-.18-2.38-.49-3.57-.75a76.41,76.41,0,0,1-13.89-4.52,72.63,72.63,0,0,1-23.73-16.64,76.78,76.78,0,0,1-9-11.28,90.45,90.45,0,0,1-6.87-12.49,101.62,101.62,0,0,1-4.84-13.29A77.28,77.28,0,0,1,88.09,228.84Z" transform="translate(0 -19.1)"/><path class="cls-2" d="M178.78,184.27a17.69,17.69,0,0,1,2.81-5.79,28.41,28.41,0,0,1,9.53-8.45,22.17,22.17,0,0,1,6-2.29c-1.51,1.58-3.09,2.89-4.62,4.26s-3.05,2.69-4.59,4l-4.51,4.06Z" transform="translate(0 -19.1)"/><path class="cls-9" d="M171.71,188.23a61,61,0,0,0,7.91-16,4.21,4.21,0,0,0-5,1.63s8.26-13.3,11.14-20.85a18.11,18.11,0,0,0-9.47,0s10.07-7.31,13.78-18c0,0-10.42-1.07-16.53,0,0,0,17.61-12.58,19.4-21.56,0,0-8.79-1-12.66,4.69a37,37,0,0,0-10.4-14.4,37,37,0,0,0-10.4,14.4c-3.87-5.74-12.66-4.69-12.66-4.69,1.8,9,19.41,21.56,19.41,21.56-6.11-1.07-16.53,0-16.53,0,3.71,10.66,13.77,18,13.77,18a18.06,18.06,0,0,0-9.46,0c2.88,7.55,11.13,20.85,11.13,20.85a4.2,4.2,0,0,0-5-1.63,61,61,0,0,0,7.91,16" transform="translate(0 -19.1)"/><path class="cls-10" d="M192.91,113.47s-8.79-1-12.66,4.69a36.9,36.9,0,0,0-10.4-14.39,36.9,36.9,0,0,0-10.4,14.39c-3.87-5.74-12.66-4.69-12.66-4.69,1.8,9,19.41,21.56,19.41,21.56-6.11-1.07-16.53,0-16.53,0,3.71,10.66,13.77,18,13.77,18a18.06,18.06,0,0,0-9.46,0c2.88,7.55,11.13,20.85,11.13,20.85a4.2,4.2,0,0,0-5-1.63,60.91,60.91,0,0,0,6,13c.23-.67-.26-1.4-.56-2.06-.92-2.07.14-4.5,1.62-6.21s3.38-3.05,4.61-5a2.79,2.79,0,0,0,.55-1.61,3.49,3.49,0,0,0-1.17-2,27.34,27.34,0,0,1-5.79-9.72c-.18-.54-.31-1.22.11-1.6a1.69,1.69,0,0,1,.95-.29,8.32,8.32,0,0,0,2.25-.6,3,3,0,0,0,1.29-4.47,26.56,26.56,0,0,1-4-8.77,2.43,2.43,0,0,1,.19-2.19,2.53,2.53,0,0,1,1.09-.63l.68-.27a3.83,3.83,0,0,0,2.26-4.39c-.93-4-.11-8.44,1.22-12.46a.66.66,0,0,1,1.2-.14,21,21,0,0,1,2.15,4.34.43.43,0,0,0,.46.32c4-.53,6.81-3.28,10.09-5.77-.95.72-1.73,3.16-2.48,4.2a26.57,26.57,0,0,1-3.18,3.69c-.64.61-2.13,1.46-2.39,2.47C182.51,127.94,191.65,119.81,192.91,113.47Z" transform="translate(0 -19.1)"/><path class="cls-2" d="M171.71,188.23a59.66,59.66,0,0,0,4.29-7.84,61,61,0,0,0,3.14-8.32l.3.61a4.6,4.6,0,0,0-1.25-.19,3.81,3.81,0,0,0-1.23.17,3.34,3.34,0,0,0-1.83,1.52.63.63,0,0,1-1.08-.64v0c2-3.39,3.89-6.84,5.7-10.32.9-1.74,1.78-3.5,2.61-5.26s1.64-3.55,2.3-5.34l.72,1.48a15.64,15.64,0,0,0-2.16-.39,16.89,16.89,0,0,0-2.24-.11,15.57,15.57,0,0,0-4.37.66,1.29,1.29,0,0,1-1.17-2.24l.05,0a43.18,43.18,0,0,0,4.1-3.72,45.44,45.44,0,0,0,3.65-4.19,36.08,36.08,0,0,0,3.05-4.58,30.51,30.51,0,0,0,2.23-5l1.34,2.11c-2.68-.22-5.43-.35-8.13-.36a46.71,46.71,0,0,0-7.93.51,1.76,1.76,0,0,1-1.35-3.15l0,0c1.91-1.41,3.81-2.95,5.64-4.51s3.6-3.21,5.29-4.91a46.45,46.45,0,0,0,4.64-5.34,16,16,0,0,0,2.94-5.75l1.69,2.32a18.08,18.08,0,0,0-3.11,0,15.49,15.49,0,0,0-3.06.6,10.81,10.81,0,0,0-2.65,1.27,8.25,8.25,0,0,0-2,2l0,0a2,2,0,0,1-3.52-.51,26.79,26.79,0,0,0-1.77-3.69,37.32,37.32,0,0,0-2.31-3.56,38.52,38.52,0,0,0-2.71-3.27c-1-1.06-2-2-3-3h2.67a40.69,40.69,0,0,0-3.05,3,38.52,38.52,0,0,0-2.71,3.27,37.32,37.32,0,0,0-2.31,3.56,26.45,26.45,0,0,0-1.78,3.7,2,2,0,0,1-2.6,1.19,2.06,2.06,0,0,1-.92-.69l0,0a8.25,8.25,0,0,0-2-2,11.19,11.19,0,0,0-2.65-1.27,16.74,16.74,0,0,0-3.06-.6,17.08,17.08,0,0,0-3.11,0l1.69-2.34a16.13,16.13,0,0,0,2.95,5.76,47.31,47.31,0,0,0,4.64,5.34c1.69,1.7,3.45,3.34,5.29,4.9s3.73,3.11,5.64,4.52h0a1.77,1.77,0,0,1-1.36,3.16,46.73,46.73,0,0,0-7.93-.5c-2.7,0-5.45.13-8.13.35l1.35-2.11a30,30,0,0,0,2.23,5,35.49,35.49,0,0,0,3.05,4.59,48.23,48.23,0,0,0,3.65,4.19,44.57,44.57,0,0,0,4.1,3.72l0,0a1.29,1.29,0,0,1-1.17,2.26,16.73,16.73,0,0,0-6.6-.55,15.37,15.37,0,0,0-2.16.39l.72-1.49c.66,1.79,1.46,3.57,2.3,5.33s1.71,3.52,2.61,5.26c1.81,3.49,3.72,6.93,5.7,10.33v0a.63.63,0,0,1-.23.86.63.63,0,0,1-.85-.21,3.33,3.33,0,0,0-1.83-1.52,3.63,3.63,0,0,0-1.23-.18,4.6,4.6,0,0,0-1.25.2l.29-.62c.43,1.42.88,2.83,1.42,4.21s1.12,2.76,1.73,4.11a59.66,59.66,0,0,0,4.29,7.84,58.05,58.05,0,0,1-4.79-7.59,57.24,57.24,0,0,1-3.59-8.27.48.48,0,0,1,.28-.61h0a5.44,5.44,0,0,1,1.56-.33,4.85,4.85,0,0,1,1.6.16,3.76,3.76,0,0,1,1.47.73,5.16,5.16,0,0,1,1.1,1.19l-1.06.67q-3.22-5-6.22-10.11c-1-1.72-2-3.44-2.88-5.21s-1.8-3.56-2.56-5.45a1.11,1.11,0,0,1,.62-1.45l.09,0h0a16.2,16.2,0,0,1,2.53-.55,19.64,19.64,0,0,1,2.54-.22,18.45,18.45,0,0,1,5.1.61l-1.13,2.29a45.88,45.88,0,0,1-8.51-8.19,38.61,38.61,0,0,1-3.41-4.87,33.88,33.88,0,0,1-2.6-5.43,1.55,1.55,0,0,1,.88-2,1.86,1.86,0,0,1,.39-.1h.07c1.42-.15,2.8-.27,4.2-.37s2.8-.17,4.21-.2a48.26,48.26,0,0,1,8.6.42l-1.34,3.18c-2.06-1.48-4-3-5.93-4.6s-3.79-3.27-5.59-5a51.67,51.67,0,0,1-5.09-5.71,18.83,18.83,0,0,1-3.69-7.28,1.92,1.92,0,0,1,1.46-2.29l.23,0a20.82,20.82,0,0,1,3.95,0,19.36,19.36,0,0,1,3.86.75,14.81,14.81,0,0,1,3.71,1.76,12.16,12.16,0,0,1,3,3l-3.55.48a29.7,29.7,0,0,1,2.07-4.39,39.37,39.37,0,0,1,2.55-4,41.47,41.47,0,0,1,3-3.64,45.38,45.38,0,0,1,3.36-3.29h0a2,2,0,0,1,2.67,0c1.16,1,2.31,2.13,3.36,3.29a43.35,43.35,0,0,1,3,3.64,41.2,41.2,0,0,1,2.55,4,29.68,29.68,0,0,1,2.06,4.39L178.6,117a12.16,12.16,0,0,1,3-3,15.1,15.1,0,0,1,3.7-1.76,20.19,20.19,0,0,1,3.87-.75,21.57,21.57,0,0,1,3.94,0,1.93,1.93,0,0,1,1.73,2.1l0,.22h0a18.83,18.83,0,0,1-3.69,7.28,50.57,50.57,0,0,1-5.09,5.7q-2.7,2.64-5.59,5c-1.93,1.6-3.86,3.13-5.93,4.61l-1.33-3.17a47.25,47.25,0,0,1,8.59-.43c2.83.08,5.6.28,8.41.58h.06a1.55,1.55,0,0,1,1.38,1.7,1.31,1.31,0,0,1-.1.4,34.29,34.29,0,0,1-2.6,5.43,39.6,39.6,0,0,1-3.4,4.87,49.93,49.93,0,0,1-4,4.35,46.81,46.81,0,0,1-4.53,3.84l-1.12-2.28a17.72,17.72,0,0,1,5.1-.61,21.4,21.4,0,0,1,2.53.21,17.92,17.92,0,0,1,2.54.56h0a1.11,1.11,0,0,1,.73,1.38l0,.1c-.76,1.88-1.65,3.67-2.56,5.44s-1.89,3.5-2.88,5.21c-2,3.43-4.07,6.79-6.21,10.12l-1.07-.66a5.27,5.27,0,0,1,1.11-1.2,4.06,4.06,0,0,1,1.47-.73,4.85,4.85,0,0,1,1.6-.16,5.38,5.38,0,0,1,1.55.33h0a.49.49,0,0,1,.29.61,58.36,58.36,0,0,1-3.59,8.27A60.24,60.24,0,0,1,171.71,188.23Z" transform="translate(0 -19.1)"/><path class="cls-13" d="M158.55,201.41s-17.51-3.13-46.62,1.19c0,0-9.35-2.15-9-14.37s12.94-25.88,12.94-25.88,32.71,15.45,36.3,29.83C152.18,192.18,154.14,199.9,158.55,201.41Z" transform="translate(0 -19.1)"/><path class="cls-14" d="M121.39,201a170.78,170.78,0,0,1,20.13-1.48,23.56,23.56,0,0,0,5.27-15.27c0-11.39-7.18-20.63-16-20.63s-16.05,9.24-16.05,20.63C114.69,191.18,117.34,197.27,121.39,201Z" transform="translate(0 -19.1)"/><path class="cls-15" d="M152.18,192.18c-3.59-14.38-36.3-29.83-36.3-29.83a67.87,67.87,0,0,0-6.06,8s23.13,7.07,28.53,16.14c3.43,5.77,5.12,11.77,6.16,13.9a99.84,99.84,0,0,1,14,1.07C154.14,199.9,152.18,192.18,152.18,192.18Z" transform="translate(0 -19.1)"/><path class="cls-16" d="M158.55,201.41s-17.51-3.13-46.62,1.19c0,0-9.35-2.15-9-14.37s12.94-25.88,12.94-25.88,32.71,15.45,36.3,29.83C152.18,192.18,154.14,199.9,158.55,201.41Z" transform="translate(0 -19.1)"/><path class="cls-2" d="M165.11,204.52c-19.65-7.31-64.68,2.22-64.68,2.22s14-8.68,40.25-8.47c0,0,13.42-.76,21.27,3.49Z" transform="translate(0 -19.1)"/><ellipse class="cls-2" cx="130.74" cy="165.18" rx="12.66" ry="16.27"/><path class="cls-17" d="M133.64,179.52c-1.06,3.72-4,6.15-6.52,5.42s-3.75-4.32-2.69-8,4-6.14,6.52-5.42S134.7,175.8,133.64,179.52Z" transform="translate(0 -19.1)"/><path class="cls-17" d="M115.16,176.19c1.63.94,2.44,2.61,1.79,3.73s-2.5,1.26-4.13.32-2.44-2.62-1.8-3.74S113.52,175.24,115.16,176.19Z" transform="translate(0 -19.1)"/><path class="cls-18" d="M176.24,201.41s16.15-3.13,43,1.19c0,0,8.28-2.15,8.29-14.37,0-7.79-3.82-10-3.82-10s-11-7.35-40,17.8A21.67,21.67,0,0,1,176.24,201.41Z" transform="translate(0 -19.1)"/><path class="cls-14" d="M213.53,189.28a17.2,17.2,0,0,0-3.31-10.36c-5.26,1.85-12.2,5.56-21.08,12.58a16.54,16.54,0,0,0,3.71,8.82c4.51,0,9.87.27,16,.9A16.65,16.65,0,0,0,213.53,189.28Z" transform="translate(0 -19.1)"/><path class="cls-15" d="M223.71,179s-11-7.35-40,17.8a21.67,21.67,0,0,1-7.45,5.4,74.68,74.68,0,0,1,9.43-.94l-.18-.86a54.5,54.5,0,0,0,13.73-6.58c6.12-4.22,16.36-11.75,28.28-5.75C227.21,181,223.71,179,223.71,179Z" transform="translate(0 -19.1)"/><path class="cls-19" d="M176.24,201.41s16.15-3.13,43,1.19c0,0,8.28-2.15,8.29-14.37,0-7.79-3.82-10-3.82-10s-11-7.35-40,17.8A21.67,21.67,0,0,1,176.24,201.41Z" transform="translate(0 -19.1)"/><ellipse class="cls-2" cx="201.26" cy="170.18" rx="9.75" ry="12.07"/><path class="cls-17" d="M199,185.75c.81,2.76,3.06,4.56,5,4s2.89-3.2,2.07-6-3.06-4.55-5-4S198.22,183,199,185.75Z" transform="translate(0 -19.1)"/><path class="cls-2" d="M169.68,204.52c19.65-7.31,64.68,2.22,64.68,2.22s-14-8.68-40.25-8.47c0,0-13.42-.76-21.27,3.49Z" transform="translate(0 -19.1)"/><path class="cls-20" d="M100.43,219.14s60,55.82,126.15,3.47c0,0-3.59,51.88-44.21,63-10.18,2.79-20.74,3.83-30.91,1C133.45,281.68,100.43,266.19,100.43,219.14Z" transform="translate(0 -19.1)"/><path class="cls-21" d="M133,239.77a21.06,21.06,0,0,0,6.55,19.41,3.06,3.06,0,0,0,5.15-2.07,42.21,42.21,0,0,1,2.65-13S137.46,242.72,133,239.77Z" transform="translate(0 -19.1)"/><path class="cls-21" d="M150.83,244.77s-1.35,7.2,3.55,12.23a2.28,2.28,0,0,0,3.92-1.42c.22-3.11.84-7.22,2.55-9.63Z" transform="translate(0 -19.1)"/><path class="cls-21" d="M128.78,238.05a48,48,0,0,0-2.36,9.27,1.75,1.75,0,0,1-3.18.78,15.77,15.77,0,0,1-2.16-13.78Z" transform="translate(0 -19.1)"/><path class="cls-22" d="M116.87,232s-1.54,2.05-1.86,7.2a1.29,1.29,0,0,1-2.32.67,14.1,14.1,0,0,1-2.54-11.49Z" transform="translate(0 -19.1)"/><path class="cls-22" d="M106.33,225.45a8.19,8.19,0,0,0-1.89,4,1,1,0,0,1-1.92.28,16.31,16.31,0,0,1-1.64-8.53Z" transform="translate(0 -19.1)"/><path class="cls-21" d="M192.5,241.37a21.05,21.05,0,0,1-7.7,19,3.06,3.06,0,0,1-5-2.37,41.63,41.63,0,0,0-1.87-13.16S187.82,244.05,192.5,241.37Z" transform="translate(0 -19.1)"/><path class="cls-21" d="M174.35,245.3s.92,7.26-4.27,12a2.29,2.29,0,0,1-3.83-1.65c0-3.11-.4-7.25-2-9.77Z" transform="translate(0 -19.1)"/><path class="cls-21" d="M196.76,239.91a48,48,0,0,1,1.81,9.39,1.74,1.74,0,0,0,3.12,1,15.74,15.74,0,0,0,3-13.62Z" transform="translate(0 -19.1)"/><path class="cls-22" d="M209,234.54s1.41,2.13,1.42,7.29a1.29,1.29,0,0,0,2.28.81A14.15,14.15,0,0,0,216,231.32Z" transform="translate(0 -19.1)"/><path class="cls-22" d="M219.93,228.68a8.16,8.16,0,0,1,1.64,4.14,1,1,0,0,0,1.9.39,16.21,16.21,0,0,0,2.15-8.42Z" transform="translate(0 -19.1)"/><path class="cls-2" d="M230.53,219.14l-3.16,3.17a19.66,19.66,0,0,1-1.68,1.49L224,225.23c-1.16,1-2.3,1.94-3.5,2.85l-3.66,2.62L215,232c-.63.41-1.28.79-1.92,1.18l-3.87,2.36c-1.31.75-2.67,1.41-4,2.1l-2,1c-.68.35-1.39.61-2.08.92A83.72,83.72,0,0,1,165.6,247a89,89,0,0,1-18.12-2.11,101.23,101.23,0,0,1-17.28-5.66,105.67,105.67,0,0,1-15.91-8.61c-2.53-1.63-5-3.4-7.33-5.26a74.84,74.84,0,0,1-6.77-6l0,0-4.1-3.52,4.52,3,0,0a115.63,115.63,0,0,0,14.83,9.71,122.08,122.08,0,0,0,16,7.48,98.46,98.46,0,0,0,34.18,6.87,90.17,90.17,0,0,0,34.22-6.2c.68-.27,1.38-.48,2.05-.79l2-.89c1.33-.62,2.7-1.16,4-1.8l3.93-2c.65-.34,1.32-.67,2-1l1.91-1.13,3.83-2.25c1.25-.78,2.45-1.64,3.7-2.45l1.86-1.23a20.72,20.72,0,0,0,1.83-1.28Z" transform="translate(0 -19.1)"/><path class="cls-21" d="M163.5,275.8c-3.06,4.08-4.46,11.34-4.46,11.34a23.78,23.78,0,0,0,4.46.61,23.84,23.84,0,0,0,4.47-.61S166.57,279.88,163.5,275.8Z" transform="translate(0 -19.1)"/><path class="cls-21" d="M154,286.57s-2.85-7-2.51-12.82a.73.73,0,0,0-1.28-.54c-1.49,1.77-4.81,5.07-5.37,10.77A55.59,55.59,0,0,0,154,286.57Z" transform="translate(0 -19.1)"/><path class="cls-21" d="M138,281s-1.47-7.25.31-13.42a1.61,1.61,0,0,0-2.27-1.85c-3.18,1.59-7.69,4.28-10.7,8C125.32,273.67,131.76,279.3,138,281Z" transform="translate(0 -19.1)"/><path class="cls-21" d="M120.91,270.31s1.2-8.88,2.76-11.28c0,0-6.19,0-9.68,3.79A30.76,30.76,0,0,0,120.91,270.31Z" transform="translate(0 -19.1)"/><path class="cls-22" d="M110.53,257.89s1.35-7,2.81-9.64c0,0-4.79.06-6.75,2.25C106.59,250.5,109.86,256.84,110.53,257.89Z" transform="translate(0 -19.1)"/><path class="cls-22" d="M103.81,243.11a10.77,10.77,0,0,1,2.52-5.89,6,6,0,0,0-3.4-1.34A67.39,67.39,0,0,0,103.81,243.11Z" transform="translate(0 -19.1)"/><path class="cls-21" d="M173.33,286.86s2.86-7,2.51-12.82a.74.74,0,0,1,1.29-.54c1.48,1.76,4.8,5.07,5.36,10.77A55.59,55.59,0,0,1,173.33,286.86Z" transform="translate(0 -19.1)"/><path class="cls-21" d="M188.6,282.4s1.46-7.25-.31-13.42a1.6,1.6,0,0,1,2.27-1.85c3.18,1.58,7.69,4.28,10.7,8C201.26,275.11,194.82,280.73,188.6,282.4Z" transform="translate(0 -19.1)"/><path class="cls-21" d="M205.63,270.47s-2-8.74-3.75-11c0,0,6.16-.52,10,2.91A30.77,30.77,0,0,1,205.63,270.47Z" transform="translate(0 -19.1)"/><path class="cls-22" d="M215.5,257.89s-1.35-7-2.81-9.64c0,0,4.79.06,6.76,2.25C219.45,250.5,216.18,256.84,215.5,257.89Z" transform="translate(0 -19.1)"/><path class="cls-22" d="M221.65,243.8a9.56,9.56,0,0,0-2-6.58,8.56,8.56,0,0,1,3.89-1.31S222.07,242.48,221.65,243.8Z" transform="translate(0 -19.1)"/><path class="cls-2" d="M226.58,222.61a91.3,91.3,0,0,1-5,25.2A71.82,71.82,0,0,1,209,270.5a51.92,51.92,0,0,1-21.24,15.33,70.47,70.47,0,0,1-12.7,3.45,62.31,62.31,0,0,1-13.17,1,49.21,49.21,0,0,1-6.63-.71,56.27,56.27,0,0,1-6.45-1.6,81.13,81.13,0,0,1-12.18-4.81,72.45,72.45,0,0,1-11.2-6.84,60.72,60.72,0,0,1-9.67-8.88,59.71,59.71,0,0,1-7.51-10.72,62.76,62.76,0,0,1-5-12A70.92,70.92,0,0,1,100.76,232a88.88,88.88,0,0,1-.33-12.84,109.56,109.56,0,0,0,1.44,12.68A74,74,0,0,0,105.18,244a61.06,61.06,0,0,0,13,21.24,66.92,66.92,0,0,0,20.19,14.39A83.55,83.55,0,0,0,150,284.14a51.93,51.93,0,0,0,6,1.44,46,46,0,0,0,6.1.62,58.77,58.77,0,0,0,12.33-.84c2.05-.35,4.08-.79,6.11-1.3,1-.24,2-.54,3-.86s2-.56,2.93-1a50.38,50.38,0,0,0,20.22-13.82,74.17,74.17,0,0,0,13.11-21.31A105.18,105.18,0,0,0,226.58,222.61Z" transform="translate(0 -19.1)"/><path class="cls-2" d="M145.28,215.79a14.1,14.1,0,0,1,1.95-1.69,2.76,2.76,0,0,1,3.88.77,20.72,20.72,0,0,0,4.56,5.06,44.1,44.1,0,0,1-9.43-.89A2,2,0,0,1,145.28,215.79Z" transform="translate(0 -19.1)"/><path class="cls-2" d="M185,215.79a14.2,14.2,0,0,0-2-1.69,2.76,2.76,0,0,0-3.88.77,20.72,20.72,0,0,1-4.56,5.06A44.1,44.1,0,0,0,184,219,2,2,0,0,0,185,215.79Z" transform="translate(0 -19.1)"/><path class="cls-9" d="M150.66,172.22c.09-1.78-9.08-21.91-9.08-21.91l-4.39,3.9L133.61,146a21.54,21.54,0,0,0-21.08,1.73c-10.66,7.19,5.15,17,7.55,17.61s17.46,9.9,17.46,9.9l.22-.32c3.94,2.78,7.55,5.81,9,8.39l4.67-7.3A10,10,0,0,1,150.66,172.22Z" transform="translate(0 -19.1)"/><path class="cls-10" d="M159.65,178.92s5.36,12.75-3.89,4.39-7.28-12.5-32.09-25.62c-15.57-8.23,7.64-17,16.28-8.88,0,0-20.14-12.31-31.06,4.94,0,0,1.65,7.39,11.19,11.59s25.4,12,30.58,23.94,4.33,10.82,8.53,10.33S167.41,191.51,159.65,178.92Z" transform="translate(0 -19.1)"/><path class="cls-2" d="M151.46,162.71S137.09,141.5,122,146.18s-9.34,12.57-5.39,14.37,25,12.76,32.53,22.47,4.49,15.75,9.88,13,2.16-13.89-2.51-21.44c0,0,15.09,18,5.32,26.24-8.9,7.52-11.07-10.79-15-15.1s-15.09-14.38-24.08-17.61-23-10.78-12.22-20.49S141.51,138.9,151.46,162.71Z" transform="translate(0 -19.1)"/><path class="cls-9" d="M226.58,167.74c-2-7.07-9.46-7.67-9.46-7.67l-14,10.43-1.17,1.72h-6.08l-10.36,11.09,3.59,8.23s13.66-11.06,23.49-13.38l-.29-.48a39.69,39.69,0,0,1,7.23-.24C228.26,177.92,228.62,174.81,226.58,167.74Z" transform="translate(0 -19.1)"/><path class="cls-2" d="M162.14,245.87c.36,2,.57,4.08.73,6.13s.24,4.11.27,6.17,0,4.12-.19,6.18a52.57,52.57,0,0,1-.81,6.12c.09-2.06.19-4.1.22-6.15s0-4.09,0-6.14l-.09-6.15Z" transform="translate(0 -19.1)"/><path class="cls-17" d="M214,186.19c1.21-.32,2.37.1,2.59.93s-.59,1.76-1.8,2.08-2.38-.09-2.6-.93S212.77,186.51,214,186.19Z" transform="translate(0 -19.1)"/><path class="cls-10" d="M182.73,190.55c5-4.54,9.79-9.33,15.33-13.16s12-6.72,18.73-6.86c1.48,0,3.09,0,4.27-.85,2.24-1.67,1.36-5.15.27-7.71a11.16,11.16,0,0,1,5.55,13,3.62,3.62,0,0,1-3.46,2.86c-3.28.51-6.64-.56-9.93-.09s-6.22,2.44-9,4.35L190,192.16c-2.27,1.58-4.65,3.2-7.38,3.61-1.1.16-6-.14-5.66-2.14C177.09,193.07,181.69,191.49,182.73,190.55Z" transform="translate(0 -19.1)"/><path class="cls-2" d="M207.17,162.35s10.43-7.55,18.69,0c0,0,7.55,12.58,0,18,0,0-11.14-1.8-14.73,0S192.44,191.94,187.77,196s-12.22,3-12.94-6.35c0,0,5,7.91,10.06,3.24s20.85-14.27,20.85-14.27a16.39,16.39,0,0,1,14-3c8.5,1.94,5-8.27,3.24-11.14S216.52,159.47,207.17,162.35Z" transform="translate(0 -19.1)"/><path class="cls-10" d="M272.11,270.47s13.16,25.71,14.45,47.86c0,0,45.06-12.84,54.6-78.48,0,0-11.69,38.09-34.53,44.58C293.07,288.28,287.92,276.16,272.11,270.47Z" transform="translate(0 -19.1)"/><path class="cls-2" d="M250.73,485.07c2.05-4.59,4-9.21,5.79-13.88.94-2.33,1.75-4.7,2.62-7s1.66-4.72,2.41-7.1q2.35-7.12,4.31-14.36c1.33-4.8,2.56-9.67,3.55-14.48l.25-1.25,1.39-.25c1.09-.2,2.38-.51,3.57-.85s2.41-.73,3.61-1.15c2.39-.85,4.76-1.76,7.07-2.83a96.77,96.77,0,0,0,13.36-7.41,129.19,129.19,0,0,0,23.26-19.85,174.36,174.36,0,0,0,18.74-24.33l4-6.59,3.77-6.73,3.56-6.85c1.13-2.32,2.21-4.66,3.32-7,2.11-4.71,4.18-9.44,6-14.27l1.41-3.61c.46-1.21.87-2.43,1.32-3.65l1.31-3.65.65-1.82.17-.46c0-.13.13-.36.13-.38a1.56,1.56,0,0,0,.07-.32,1.16,1.16,0,0,0-.44-1,1.45,1.45,0,0,0-1.21-.33,1.17,1.17,0,0,0-.54.28l-.15.15-.35.36-.68.74c-.92,1-1.85,1.92-2.8,2.87a113.6,113.6,0,0,1-12.11,10.45c-17,12.85-37.29,20.92-58,24.43l-1.26.22v-1.21l-.09-13.61,0-13.62,1.14,13.57L291,351.83l-1.27-1a154.09,154.09,0,0,0,14.91-4.34,140.32,140.32,0,0,0,14.34-5.78A131.43,131.43,0,0,0,345,324.52a128.61,128.61,0,0,0,11.31-10.32c.89-.91,1.76-1.84,2.62-2.79l.63-.71.32-.36c.16-.17.35-.37.54-.54a6.78,6.78,0,0,1,2.85-1.59,7.1,7.1,0,0,1,6.17,1.3,7.21,7.21,0,0,1,2,2.55,6.83,6.83,0,0,1,.62,3.29,7.43,7.43,0,0,1-.28,1.6c-.08.29-.12.37-.17.55l-.16.47-.63,1.87-1.25,3.75c-.43,1.25-.82,2.51-1.29,3.74l-1.41,3.7c-1.82,5-3.91,9.8-6,14.64-1.12,2.4-2.21,4.8-3.36,7.19l-3.6,7.07L350,366.84l-4.19,6.77a165.89,165.89,0,0,1-19.69,25,136.78,136.78,0,0,1-11.75,10.82,114.84,114.84,0,0,1-13,9.3A101.41,101.41,0,0,1,287.09,426a77.43,77.43,0,0,1-7.57,2.71c-1.29.39-2.59.73-3.91,1a39.24,39.24,0,0,1-4.09.75l1.64-1.49c-1.26,5-2.72,9.77-4.29,14.57s-3.33,9.53-5.19,14.21-3.86,9.32-6,13.87S253.15,480.67,250.73,485.07Z" transform="translate(0 -19.1)"/><path class="cls-23" d="M106.59,460.43s-19.73-40-5-101.1c0,0,13.8-48.33,59.65-48.54s58.89,27.17,77.25,71.54c0,0,14.2,44-2.9,70.86C235.54,453.19,191.51,513.55,106.59,460.43Z" transform="translate(0 -19.1)"/><path class="cls-24" d="M118.09,467.08s73.44,7.4,111.13-7C229.22,460.07,187.31,500,118.09,467.08Z" transform="translate(0 -19.1)"/><path class="cls-24" d="M160.66,349.83c21.18,0,40.61-3,57.81-9a75,75,0,0,0-12.54-15.2c-29.63,8.45-61.62,6.24-85.44,2.2a77,77,0,0,0-12.31,16.42,286.91,286.91,0,0,0,29.51,4.43Q149.48,349.84,160.66,349.83Z" transform="translate(0 -19.1)"/><path class="cls-24" d="M155.26,383.34c23.91,0,51.8-2.87,78.39-12.41-2.56-6-5.08-11.54-7.67-16.72-44.53,15.53-94.6,11.09-124.63,6-1.48,6.26-2.6,12.29-3.41,18.08a353.38,353.38,0,0,0,35.66,4.34C140.29,383,147.57,383.34,155.26,383.34Z" transform="translate(0 -19.1)"/><path class="cls-24" d="M242.72,402A139.8,139.8,0,0,0,239,384c-53.21,15.77-112,12.51-142.51,9.15a177.6,177.6,0,0,0-.16,18.51,468.73,468.73,0,0,0,50.33,2.75C175.7,414.44,209.9,411.59,242.72,402Z" transform="translate(0 -19.1)"/><path class="cls-24" d="M241.74,438.43a79.69,79.69,0,0,0,2.23-19.6c-54.45,15.7-114.68,13.26-146,10.37a144.17,144.17,0,0,0,4.11,18.85c11.55,1,25.95,1.75,42.09,1.75C173.29,449.8,208,447.2,241.74,438.43Z" transform="translate(0 -19.1)"/><path class="cls-25" d="M235.54,453.19c4.52-7.09,6.85-15.38,7.84-23.74-32.17,35.88-80.46,60.14-144.54,4.88,3.1,16.68,7.75,26.1,7.75,26.1C191.51,513.55,235.54,453.19,235.54,453.19Z" transform="translate(0 -19.1)"/><path class="cls-26" d="M106.59,460.43s-19.73-40-5-101.1c0,0,13.8-48.33,59.65-48.54s58.89,27.17,77.25,71.54c0,0,14.2,44-2.9,70.86C235.54,453.19,191.51,513.55,106.59,460.43Z" transform="translate(0 -19.1)"/><polygon class="cls-10" points="320.88 183.07 320.88 183.07 320.88 183.07 320.88 183.07"/><path class="cls-2" d="M287.38,320.47A132.63,132.63,0,0,0,308.72,304a97.26,97.26,0,0,0,16.63-20.77,86.63,86.63,0,0,0,9.94-24.36,88.62,88.62,0,0,0,2.09-12.93c.16-2.17.26-4.35.25-6.51,0-1.08-.05-2.16-.11-3.22s-.16-2.19-.29-3.06l.28.92a163.72,163.72,0,0,0-43.14-54q-6.74-5.51-14-10.33c-4.83-3.21-9.84-6.15-15-8.87a166.85,166.85,0,0,0-15.71-7.44c-2.68-1.12-5.39-2.13-8.11-3.08-1.36-.47-2.73-.93-4.1-1.35s-2.78-.82-4-1.13l4.76-4.58,1.21,5.38,1.56,5.4c1.14,3.6,2.28,7.21,3.61,10.78,2.59,7.17,5.47,14.27,8.52,21.31s6.18,14.07,9.43,21,6.61,13.92,10.05,20.76l1.28,2.54-2.42,1.2a114.62,114.62,0,0,1-20,7.5c-3.41.95-6.85,1.79-10.34,2.45l-.66.12-.32.06-.17,0-.08,0-.3,0a2.13,2.13,0,0,1-1.88-3.42,2.06,2.06,0,0,1,.6-.52l.16-.09h0l0,0,.57-.26c.77-.35,1.52-.72,2.27-1.11a44.62,44.62,0,0,0,4.31-2.58,30.71,30.71,0,0,0,3.83-3.13,16.68,16.68,0,0,0,2.88-3.82,9.89,9.89,0,0,0,1.07-4.45,11.23,11.23,0,0,0-.4-2.35c-.11-.4-.2-.81-.32-1.2l-.44-1.18a27.6,27.6,0,0,0-5.5-8.52,39.9,39.9,0,0,0-8-6.65,37.83,37.83,0,0,1,8.66,6,27.48,27.48,0,0,1,6.48,8.48l.58,1.24c.17.43.3.86.45,1.3a13.11,13.11,0,0,1,.68,2.76,12.11,12.11,0,0,1-.91,5.71,19.53,19.53,0,0,1-3.1,4.73,33.25,33.25,0,0,1-4,3.75,45.59,45.59,0,0,1-4.48,3.08c-.77.47-1.56.92-2.36,1.35l-.6.32,0,0s0,0,0,0l.12-.07a1.66,1.66,0,0,0,.48-.42,1.71,1.71,0,0,0-1.51-2.74l-.13,0,.08,0,.15,0,.31-.08.63-.16c3.32-.86,6.63-1.8,9.89-2.9a109.79,109.79,0,0,0,18.76-8.09l-1.14,3.74c-3.78-6.81-7.37-13.66-10.9-20.57s-7-13.88-10.17-21-6.33-14.22-9.15-21.53a137.9,137.9,0,0,1-7-22.74l-1.19-6,5.94,1.43c1.65.4,3.07.8,4.56,1.25s2.93.91,4.37,1.4c2.89,1,5.75,2,8.56,3.18a173.42,173.42,0,0,1,46.67,28,164.77,164.77,0,0,1,13.34,12.41,175.12,175.12,0,0,1,11.85,13.82,164.09,164.09,0,0,1,18.69,31.11l.23.51.05.42c.15,1.37.19,2.48.23,3.7s0,2.37,0,3.55c-.07,2.36-.26,4.7-.52,7a86.41,86.41,0,0,1-2.77,13.72,90.73,90.73,0,0,1-11.74,25.13,97.35,97.35,0,0,1-18.51,20.32l-2.66,2.16-2.74,2c-1.81,1.4-3.75,2.6-5.63,3.87s-3.89,2.35-5.83,3.52S289.38,319.42,287.38,320.47Z" transform="translate(0 -19.1)"/><path class="cls-27" d="M238.8,144s-16-4.31-22.73-10.54c0,0,11.34,17.05,20.75,20.27Z" transform="translate(0 -19.1)"/><path class="cls-27" d="M254.46,148.81s-20-6.71-23.92-12.46c0,0,4.19,18.45,21.92,22.64Z" transform="translate(0 -19.1)"/><path class="cls-27" d="M254.46,148.81s-2.05,3.51-16.86,7.47c0,0,14.86,9.38,28.28,0C265.88,156.28,263.58,152.31,254.46,148.81Z" transform="translate(0 -19.1)"/><path class="cls-27" d="M239.66,162.35s-10.68-5.74-14-7.72c0,0,7.76,14.17,17.78,17.59Z" transform="translate(0 -19.1)"/><path class="cls-2" d="M293.07,288.28c-.39,2.52-.79,5-1.11,7.53s-.63,5-.86,7.53-.44,5-.58,7.53-.24,5-.26,7.5L288.18,317c7.74-3.8,15.23-8.52,21.19-14.65,3-3.06,5.84-6.44,8.58-9.82s5.29-7,7.66-10.61a108.61,108.61,0,0,0,6.55-11.29,84.88,84.88,0,0,0,5.07-12,60.71,60.71,0,0,0,3.17-25.88c2.26,8.63,1.7,17.94-.57,26.65a83.53,83.53,0,0,1-4.55,12.73A112.2,112.2,0,0,1,328.89,284a122.57,122.57,0,0,1-16.73,21.15,53,53,0,0,1-5.13,4.54c-1.82,1.39-3.68,2.7-5.61,3.89a77.6,77.6,0,0,1-12.08,6.17l-2.21.91.13-2.32c.16-2.61.44-5.13.8-7.67s.72-5.05,1.23-7.56,1-5,1.66-7.46S292.29,290.7,293.07,288.28Z" transform="translate(0 -19.1)"/><path class="cls-2" d="M256.32,438c1.38-2.75,2.81-5.46,4.26-8.13.36-.67.74-1.33,1.07-2l1-2.06,2-4.08c.64-1.37,1.36-2.7,1.94-4.1l1.79-4.15,1.82-4.13,1.6-4.21a185.33,185.33,0,0,0,9.64-34.37,190,190,0,0,0,2.81-35.52,283.53,283.53,0,0,0-2.92-35.93l.06.22L280,294l-1.45-5.46c-.48-1.82-1-3.65-1.49-5.46s-1-3.63-1.59-5.45c1,1.61,1.91,3.29,2.81,5s1.7,3.4,2.52,5.11,1.58,3.46,2.35,5.19,1.53,3.47,2.25,5.25l.06.22a170.07,170.07,0,0,1,6.33,36.53,146.22,146.22,0,0,1-2.47,37.27,137.63,137.63,0,0,1-12.16,35.26c-.7,1.39-1.37,2.79-2.1,4.15l-2.36,4-2.38,4a22.28,22.28,0,0,1-1.27,1.94l-1.33,1.9L265,427.22l-1.34,1.88c-.46.62-1,1.2-1.45,1.8Q259.33,434.49,256.32,438Z" transform="translate(0 -19.1)"/><path class="cls-2" d="M87.29,445.21a112.48,112.48,0,0,0,18.36,13.39,139.51,139.51,0,0,0,20.15,9.85,115.19,115.19,0,0,0,21.26,6.13c3.54.64,7.37,1.12,11.07,1.58s7.45.81,11.16,1a102.81,102.81,0,0,0,21.94-.61,69.1,69.1,0,0,0,10.53-2.47A78.12,78.12,0,0,0,211.9,470c3.33-1.61,6.59-3.44,9.85-5.36l4.84-2.92.6-.36.27-.17.28-.2,1.17-.81,2.36-1.62c6.24-4.38,12.48-8.75,18.41-13.62a96.55,96.55,0,0,1-7.74,8.57c-2.69,2.75-5.53,5.34-8.36,7.95-1.45,1.3-2.79,2.57-4.4,3.84s-3,2.42-4.6,3.58a108.18,108.18,0,0,1-9.71,6.6,68.13,68.13,0,0,1-22.33,8.66,94.68,94.68,0,0,1-23.77,1.19c-3.92-.25-7.81-.66-11.66-1.18-1.93-.28-3.85-.56-5.76-.89s-3.87-.63-5.82-1.07a100.51,100.51,0,0,1-22.31-7.85,109,109,0,0,1-19.86-12.42A79.51,79.51,0,0,1,87.29,445.21Z" transform="translate(0 -19.1)"/><path class="cls-2" d="M11.59,333.11a47,47,0,0,0,8.55,14.81,99,99,0,0,0,12,12.22,163.93,163.93,0,0,0,13.5,10.57C50.32,374,55.16,377.12,60,380l.77.45.25.93c1.15,4.43,2.2,8.83,3.29,13.22l3.32,13.12c2.26,8.73,4.72,17.38,7.47,25.93s5.63,17,9,25.32c.79,2.1,1.72,4.13,2.57,6.19L88,468.2l1.4,3c1.79,4.1,3.78,8.08,5.73,12.09l1.22,2.5-1.87,2-2.92,3.1-.1.11-.21.19c-.16.14-.47.43-.71.67l-.78.79c-.51.54-1,1.1-1.52,1.68-1,1.15-1.92,2.36-2.8,3.61a48.68,48.68,0,0,0-4.54,7.93A47,47,0,0,0,78,514.51a49.47,49.47,0,0,0-1.22,9l-1.54-3.31c.55.42,1.32,1,2,1.44s1.46.94,2.21,1.4c1.5.9,3,1.74,4.6,2.51a50.84,50.84,0,0,0,9.71,3.62,35,35,0,0,0,10,1.09,27,27,0,0,0,9.45-2.17l-.86.54c1-.77,1.81-1.37,2.72-2s1.8-1.23,2.71-1.82c1.83-1.19,3.69-2.3,5.59-3.36A86.6,86.6,0,0,1,135.21,516l3.13-1.05,1.59-.47.79-.23.4-.11s-.07,0-.11,0a.87.87,0,0,0-.5.86.66.66,0,0,0,.05.25l-.24-.72-.5-1.48-3.94-11.9-.08-.22,0-.13a27.35,27.35,0,0,1-.48-6.29c.06-2,.27-3.95.49-5.82s.46-3.69.61-5.42a21.46,21.46,0,0,0,0-4.83l-.79-5.11,4.68,1.91c.27.11.74.28,1.13.41s.85.27,1.28.39c.87.25,1.75.48,2.65.69,1.78.44,3.61.78,5.44,1.09A112.2,112.2,0,0,0,161.93,479c3.77.18,7.52.22,11.38.12s7.56-.11,11.35-.43A105,105,0,0,0,207,474.46a62.13,62.13,0,0,0,10.48-4.4,39,39,0,0,0,9.15-6.82,37.51,37.51,0,0,1-8.62,7.7,59.59,59.59,0,0,1-10.36,5.32,100.26,100.26,0,0,1-22.55,5.82c-3.84.55-7.75,1-11.62,1.14s-7.73.44-11.64.43A116.17,116.17,0,0,1,150,483c-2-.23-3.92-.5-5.89-.88-1-.17-2-.4-3-.65-.49-.12-1-.25-1.48-.4s-1-.28-1.6-.51l3.89-3.19a26,26,0,0,1,.32,6.26c-.09,2-.28,3.84-.43,5.66-.3,3.62-.47,7.12.26,10.06L142,499l4.33,11.76.53,1.47.27.76a6,6,0,0,1,.34,1.79,6.16,6.16,0,0,1-3.66,5.83,6.66,6.66,0,0,1-.85.31l-.35.11-.71.22-1.4.44-2.79,1A78.13,78.13,0,0,0,127,527.92c-1.73,1-3.43,2.07-5.08,3.2-.83.56-1.65,1.13-2.45,1.72s-1.63,1.21-2.29,1.76l-.37.31-.49.22a33.41,33.41,0,0,1-12.23,3,42.5,42.5,0,0,1-12.26-1.23,58.28,58.28,0,0,1-11.29-4.11q-2.68-1.29-5.25-2.81c-.85-.52-1.7-1-2.53-1.59s-1.62-1.08-2.56-1.8l-1.61-1.23.07-2.07a52.84,52.84,0,0,1,1.39-10.62,55.08,55.08,0,0,1,3.52-10.09,57.76,57.76,0,0,1,5.35-9.2c1-1.44,2.13-2.84,3.3-4.19.59-.67,1.19-1.33,1.82-2,.32-.33.64-.65,1-1s.64-.61,1.11-1l-.32.3,2.94-3.08-.66,4.48c-2-4.14-4-8.26-5.79-12.5l-1.36-3.16L79.66,468c-.82-2.14-1.73-4.25-2.49-6.41-3.24-8.57-6-17.29-8.56-26.07S64,417.89,62.06,409s-3.5-17.86-5.28-26.66l1,1.38a165.62,165.62,0,0,1-14.25-10.2A163.18,163.18,0,0,1,30.42,362,100.46,100.46,0,0,1,19,348.75,45.94,45.94,0,0,1,11.59,333.11Z" transform="translate(0 -19.1)"/><path class="cls-2" d="M72.71,516.82a33.5,33.5,0,0,1,.59-8,47.38,47.38,0,0,1,2.14-7.73,43.42,43.42,0,0,1,8.33-14,29.55,29.55,0,0,1,14.3-9.13,23.42,23.42,0,0,1,8.52-.51l2.06.37c.68.16,1.34.39,2,.6l1,.34.93.43c.61.32,1.22.61,1.8.95a55.94,55.94,0,0,0-7.54,1.31,32.9,32.9,0,0,0-6.49,2.52,39.33,39.33,0,0,0-10.48,8.57A97.49,97.49,0,0,0,81.14,504C78.37,508.07,75.72,512.37,72.71,516.82Z" transform="translate(0 -19.1)"/><path class="cls-28" d="M75.33,511.28S62,515.76,62.23,532.19c0,0,15.32-4.45,22.28-12.53C84.51,519.66,82.79,511.28,75.33,511.28Z" transform="translate(0 -19.1)"/><path class="cls-28" d="M84.51,519.66S72,529.13,75.88,541.94c0,0,18.38-5,21.16-17.27C97,524.67,92,516.32,84.51,519.66Z" transform="translate(0 -19.1)"/><path class="cls-28" d="M97,524.67S89.52,535,94.54,547c0,0,14.76-7.19,17.82-16.54C112.36,530.41,109.58,519.38,97,524.67Z" transform="translate(0 -19.1)"/><path class="cls-2" d="M285.61,365.58c-1.62,10.29-3,20.61-4.88,30.88s-3.89,20.5-6.24,30.69-5.24,20.28-8.5,30.28a241.91,241.91,0,0,1-11.77,29.4l-.65-4.44,2.95,3.07-.32-.3.59.53.52.48c.33.32.66.65,1,1,.64.64,1.23,1.31,1.83,2q1.75,2,3.31,4.18a53,53,0,0,1,5.34,9.2l.57,1.21.49,1.24c.32.84.67,1.65,1,2.5a53.22,53.22,0,0,1,1.48,5.15,54.83,54.83,0,0,1,1.43,10.61l.12,2-1.67,1.27c-.94.72-1.7,1.23-2.55,1.8s-1.68,1.08-2.54,1.59q-2.55,1.53-5.24,2.82a58.59,58.59,0,0,1-11.31,4.07A41.72,41.72,0,0,1,238.25,538a34.16,34.16,0,0,1-12.17-3l-.46-.21-.37-.3c-.66-.55-1.5-1.2-2.28-1.78s-1.62-1.18-2.44-1.74c-1.65-1.15-3.35-2.22-5.08-3.24a83.88,83.88,0,0,0-10.72-5.38l-2.78-1-1.41-.46-.71-.24-.36-.11a7.31,7.31,0,0,1-.78-.29,5.7,5.7,0,0,1-3.35-5.41,6,6,0,0,1,.32-1.64l.28-.75.55-1.46c1.46-3.92,3-7.82,4.47-11.71l-.08.28c.82-3.07.69-6.65.45-10.29-.12-1.84-.29-3.71-.34-5.64a25.81,25.81,0,0,1,.43-6l2.42,2a35.76,35.76,0,0,1-4.48,1.12c-1.47.29-2.94.51-4.41.71a84.54,84.54,0,0,1-8.83.63c-2.94.09-5.87,0-8.79-.11-1.46-.08-2.92-.2-4.38-.3l-4.35-.46L173,481c1.45-.07,2.9-.12,4.35-.22,2.9-.21,5.79-.4,8.65-.8s5.71-.84,8.5-1.43c1.4-.31,2.79-.64,4.15-1a32.21,32.21,0,0,0,3.89-1.32l2.83-1.21-.41,3.2a21.82,21.82,0,0,0,.08,5.09c.18,1.77.45,3.59.7,5.45s.48,3.76.57,5.74a26.14,26.14,0,0,1-.38,6.12v.06l-.07.23q-1.86,6-3.8,11.94l-.48,1.49-.23.73a.36.36,0,0,0,0-.11.4.4,0,0,0-.19-.42s0,0,0,0l.39.11.8.22,1.58.44,3.13,1a81.48,81.48,0,0,1,11.9,5.33c1.9,1,3.77,2.14,5.6,3.32.91.58,1.82,1.18,2.72,1.8s1.76,1.23,2.72,2l-.83-.51a26.52,26.52,0,0,0,9.52,2.1,35.77,35.77,0,0,0,10-1.15,49.91,49.91,0,0,0,9.69-3.66c1.57-.76,3.11-1.6,4.61-2.5.75-.46,1.49-.92,2.21-1.4s1.48-1,2-1.44l-1.55,3.32a48.64,48.64,0,0,0-1.24-9,45.07,45.07,0,0,0-1.23-4.37c-.24-.72-.54-1.42-.81-2.13l-.41-1.06-.48-1a48.4,48.4,0,0,0-4.53-7.94c-.87-1.25-1.81-2.46-2.78-3.62-.5-.57-1-1.15-1.51-1.68-.26-.28-.52-.53-.77-.79l-.38-.37-.33-.31-.28-.26,0,0-2.9-3.12-1.88-2,1.23-2.41a263.47,263.47,0,0,0,12.2-28.18c3.62-9.64,6.86-19.46,9.77-29.39s5.68-19.93,8.36-30l3.92-15.11C282.8,375.62,284.1,370.57,285.61,365.58Z" transform="translate(0 -19.1)"/><path class="cls-2" d="M269.64,516.78c-3-4.45-5.66-8.75-8.43-12.87a98.33,98.33,0,0,0-8.68-11.46,39.49,39.49,0,0,0-10.48-8.57,33.14,33.14,0,0,0-6.49-2.52,55.94,55.94,0,0,0-7.54-1.31c.58-.34,1.18-.63,1.79-.95l.94-.43,1-.34c.65-.21,1.31-.44,2-.6l2.06-.37a23.48,23.48,0,0,1,8.53.51,29.6,29.6,0,0,1,14.3,9.13,43.6,43.6,0,0,1,8.33,14,46.37,46.37,0,0,1,2.13,7.73A33.51,33.51,0,0,1,269.64,516.78Z" transform="translate(0 -19.1)"/><path class="cls-28" d="M267,511.24s13.37,4.48,13.09,20.91c0,0-15.31-4.45-22.27-12.53C257.84,519.62,259.56,511.24,267,511.24Z" transform="translate(0 -19.1)"/><path class="cls-28" d="M257.84,519.62s12.53,9.47,8.63,22.28c0,0-18.38-5-21.17-17.27C245.3,524.63,250.32,516.28,257.84,519.62Z" transform="translate(0 -19.1)"/><path class="cls-28" d="M245.3,524.63s7.52,10.31,2.51,22.28c0,0-14.76-7.19-17.82-16.54C230,530.37,232.77,519.34,245.3,524.63Z" transform="translate(0 -19.1)"/><path class="cls-29" d="M295,353.92l6-26.09a1.76,1.76,0,0,1,3-.83l17.88,18.29S313.68,357.75,295,353.92Z" transform="translate(0 -19.1)"/><path class="cls-29" d="M326.47,341.08l-.58-22.68a1.49,1.49,0,0,1,2.26-1.31l18.53,11.26S342.61,340.29,326.47,341.08Z" transform="translate(0 -19.1)"/><path class="cls-29" d="M351.05,325.15l-4.33-15.22a1,1,0,0,1,1.3-1.28L362.5,313S361.83,321.81,351.05,325.15Z" transform="translate(0 -19.1)"/><path class="cls-7" d="M346.72,309.93l4.33,15.22a19,19,0,0,0,5.6-2.76,136.5,136.5,0,0,1-9.48-13.62A1,1,0,0,0,346.72,309.93Z" transform="translate(0 -19.1)"/><path class="cls-7" d="M325.89,318.4l.58,22.68a26.74,26.74,0,0,0,9.68-2.2,146.41,146.41,0,0,1-9.12-22A1.48,1.48,0,0,0,325.89,318.4Z" transform="translate(0 -19.1)"/><path class="cls-7" d="M301,327.83l-6,26.09a30,30,0,0,0,14.85-.41c-3.58-8.74-6.09-19.65-7.52-27A1.71,1.71,0,0,0,301,327.83Z" transform="translate(0 -19.1)"/><path class="cls-30" d="M295,353.92l6-26.09a1.76,1.76,0,0,1,3-.83l17.88,18.29S313.68,357.75,295,353.92Z" transform="translate(0 -19.1)"/><path class="cls-30" d="M326.47,341.08l-.58-22.68a1.49,1.49,0,0,1,2.26-1.31l18.53,11.26S342.61,340.29,326.47,341.08Z" transform="translate(0 -19.1)"/><path class="cls-30" d="M351.05,325.15l-4.33-15.22a1,1,0,0,1,1.3-1.28L362.5,313S361.83,321.81,351.05,325.15Z" transform="translate(0 -19.1)"/><path class="cls-2" d="M78.7,310.79c.47.4.92.83,1.38,1.26s.83.94,1.23,1.43a15.48,15.48,0,0,1,1.9,3.32,10.71,10.71,0,0,1,.81,3.87,9.49,9.49,0,0,1-.21,2,6.42,6.42,0,0,1-.82,2l-1.5-1.27c.61-.6,1.26-1.23,1.87-1.87s1.23-1.28,1.81-2a26.27,26.27,0,0,0,3.21-4.33,13.25,13.25,0,0,1-2,5.19,23,23,0,0,1-1.62,2.29,24.55,24.55,0,0,1-1.87,2.11,1,1,0,0,1-1.55-1.19l0-.09a5.3,5.3,0,0,0,.48-1.37,8.34,8.34,0,0,0,.21-1.59,11.56,11.56,0,0,0-.46-3.32,21.57,21.57,0,0,0-1.21-3.3c-.28-.52-.53-1.08-.81-1.62S79,311.35,78.7,310.79Z" transform="translate(0 -19.1)"/><path class="cls-31" d="M104.64,134.13s-6.4-13.58-17.42-20.76S69.54,99,73.39,86.47s8.71-19.73,23.82-18.7c0,0-5.63-13.84,10.76-31.77s43.82-15.38,49.2-4.36c0,0,17.93-21,44.07-8.69,0,0,19.21,8.69,20.49,27.14,0,0,6.92,6.66,10,7.43s16.39,10.5,9,30.23c0,0,18,13.32,2.23,27.16s-19.31,8.46-25.24,21C217.68,135.92,157.94,111.58,104.64,134.13Z" transform="translate(0 -19.1)"/><path class="cls-32" d="M224,63.79a31,31,0,0,1,10.48,29,2.29,2.29,0,0,1,1.8-1.24l9.37,7.77a18.28,18.28,0,0,0-8-12.17,27.82,27.82,0,0,0,1.42-15.31A21,21,0,0,0,230.91,59c-3.85-2.72-8.91-4.15-11.32-8.21,1,1.62-1.86,5.22-1.11,7.33C219.34,60.5,222.1,62.23,224,63.79Z" transform="translate(0 -19.1)"/><path class="cls-32" d="M157.63,38.75s19.61-16.84,39.48-4.84,19,25.75,19,25.75,9.69-17.43-9.52-30.06S171.08,20.92,156,36.11Z" transform="translate(0 -19.1)"/><path class="cls-32" d="M145.56,35.94c-5.18-2-11-1.61-16.36-.18-13.62,3.63-25.15,16.83-29.8,30.14-1-4.46-1.42-9.17-.13-13.55s4.29-8.18,7.22-11.78c2.49-3.06,5-6.15,8.28-8.4,5.51-3.8,12.43-4.78,19.07-5.65,3.89-.51,7.86-1,11.71-.27s7.63,3,9.18,6.61a16.11,16.11,0,0,1,1,5.65c.14,2.9.65,6.93-.51,9.61C153.31,43.7,150.18,37.71,145.56,35.94Z" transform="translate(0 -19.1)"/><path class="cls-32" d="M219.8,118.46a21.2,21.2,0,0,1-9.39.54c-3.08-.67-6-2.67-7.13-5.63-2.18-5.9,3.4-11.57,5.27-17.57a107.68,107.68,0,0,1-22.26,15c-3.21,1.62-7.22,3-10.21,1-2.62-1.73-3.2-5.28-3.35-8.41a77,77,0,0,1,.8-15.39,69,69,0,0,1-14.68,19.46c-3.47,3.22-8.17,6.25-12.66,4.73-5.38-1.81-6.73-8.66-7.2-14.32-1,6.58-2.19,13.55-6.57,18.56-3.59,4.1-8.82,6.3-13.87,8.37a10.69,10.69,0,0,1-3.16.91c-4.3.3-7-4.36-9.28-8-5-7.88-12.73-13.7-17.64-21.62-2.38-3.84-4.07-8.44-3-12.83.93-3.91,4-6.82,7.53-8.46,3.14-1.45,8.7-.74,5.49-5.19a12.4,12.4,0,0,0-1.69-1.86C82,66.9,77.19,74,73.39,86.47s2.81,19.73,13.83,26.9,17.42,20.76,17.42,20.76c53.3-22.55,113,1.79,113,1.79,5-10.61,8.29-8.41,18.73-15.83q4.86-7.41,9.41-15A66.76,66.76,0,0,1,219.8,118.46Z" transform="translate(0 -19.1)"/><path class="cls-2" d="M240.69,87.75a36.84,36.84,0,0,0,1.5-5,.29.29,0,0,1,0-.09h0c3.6-16.34-7.69-24.47-10.48-25.17-3.08-.77-10-7.43-10-7.43a27,27,0,0,0-.91-5.32.36.36,0,0,1,0-.1h0C216.66,29.94,201.24,23,201.24,23a38.24,38.24,0,0,0-16.38-3.85c-17,0-27.69,12.54-27.69,12.54a9.66,9.66,0,0,0-.56-1h0c-3.05-4.76-10.41-7.7-19-7.7A40.38,40.38,0,0,0,108,36C91.58,53.93,97.21,67.77,97.21,67.77c-.95-.07-1.87-.1-2.74-.1-13,0-17.48,7-21.08,18.8C69.54,99,76.2,106.2,87.22,113.37s17.42,20.76,17.42,20.76c16.88-7.14,34.39-9.58,50.45-9.58a184,184,0,0,1,62.59,11.37c5.93-12.55,9.43-7.17,25.24-21S240.69,87.75,240.69,87.75Zm-.4,24.16a64.31,64.31,0,0,1-14,9.65c-4.45,2.34-7.4,4.1-10.47,9.38a189.86,189.86,0,0,0-60.68-10.38c-17.62,0-34,2.86-48.62,8.52-2.76-4.77-8.61-13.55-17.07-19.05-11.88-7.74-15-13.39-12.2-22.39,3.51-11.45,7.27-15.46,15.49-15.93a21.43,21.43,0,0,1,14.09,7.76,33.63,33.63,0,0,1-5.17-9.69l-.69-3.5c-.29-.79-4.08-12.19,10-27.59a36.25,36.25,0,0,1,26.67-11.75,27.63,27.63,0,0,1,10.06,1.78,14.17,14.17,0,0,1,6.51,5.87l.17.34a10.13,10.13,0,0,1,.92,3s1.66,9.65-1.41,15.41a21.82,21.82,0,0,0,4.57-17l1.79-2.08c.1-.12,9.71-11.15,24.66-11.15a34.55,34.55,0,0,1,14.68,3.47l0,0h0c.16.08,14.89,7,17.75,20.74.61,3.59.51,9.5-4.22,15.92a16,16,0,0,0,7.48-8.75c2.76,2.51,7.1,6.11,10.12,6.89,1,.36,4.44,2.77,6.5,7.16a19.4,19.4,0,0,1,1.51,11c-.14.91-1.69,10.35-8.19,17a17.22,17.22,0,0,0,7.7-5.65l.08,0c.07.06,6.86,5.22,7.1,11.48C245.53,105.64,243.81,108.82,240.29,111.91Z" transform="translate(0 -19.1)"/><path class="cls-2" d="M99.58,119.25s6.89,10.67,14.69,7.14,4.72-15.58,1.39-21c0,0,8.46,16.4,16.91,14.86S138,91.85,138,91.85s4.87,21.27,14.86,22.29,20-16.4,21.52-35.1c0,0,1,32.8,10.51,35.1s26.9-22,26.9-22-12.13,24.25-2.3,29.21,28.46-7.4,28.46-7.4l-19.5,17-35.35-5.81-36.9-.77-34.59,11.53h-3.81Z" transform="translate(0 -19.1)"/><path class="cls-11" d="M110.92,148s47.57-24.55,103.94.56L217.68,131s-52.48-32.33-110.9,3Z" transform="translate(0 -19.1)"/><path class="cls-12" d="M161.14,137.22c-7-.49-17-2.38-16.41-9.12.68-8.11,12-10.11,17-10.6a109.66,109.66,0,0,0-52.44,15l-2.44,1.75L110.92,148S131.28,137.46,161.14,137.22Z" transform="translate(0 -19.1)"/><path class="cls-33" d="M110.92,148s47.57-24.55,103.94.56L218.4,131s-53.2-32.33-111.62,3Z" transform="translate(0 -19.1)"/><path class="cls-1" d="M168,137.34c-2.33-.1-4.6-.14-6.83-.12A63.22,63.22,0,0,0,168,137.34Z" transform="translate(0 -19.1)"/><polygon class="cls-12" points="167.97 118.25 167.97 118.25 167.97 118.25 167.97 118.25"/><path class="cls-34" d="M105.16,355.59s10.87,6.78,19.49,4.67c0,0-4.3,7.82-6.53,7.45C118.12,367.71,108.93,362.18,105.16,355.59Z" transform="translate(0 -19.1)"/><path class="cls-35" d="M96.66,409.48l60-80.41-8.25-6.13L86.44,400.86S86.72,410,96.66,409.48Z" transform="translate(0 -19.1)"/><rect class="cls-35" x="152.05" y="318.85" width="5.83" height="7.9" transform="translate(218.6 -48.66) rotate(35.88)"/><path class="cls-36" d="M171.86,328.42l-27.07-19.58a6.31,6.31,0,0,1-1.58-8.58l22.65-34.58a6.32,6.32,0,0,1,9-1.65L205,285.85a6.33,6.33,0,0,1,1.24,9.06l-25.75,32.33A6.32,6.32,0,0,1,171.86,328.42Z" transform="translate(0 -19.1)"/><path class="cls-32" d="M146.66,306.44l26.92,19.27a3.53,3.53,0,0,0,4.85-.71l6.39-8-26.28-34.55L145.79,301.6A3.53,3.53,0,0,0,146.66,306.44Z" transform="translate(0 -19.1)"/><polygon class="cls-32" points="160.27 260.7 186.41 296.35 189.54 292.25 164.33 254.43 160.27 260.7"/><path class="cls-31" d="M177.25,273.82a2.75,2.75,0,0,0-1.13-1.82,2.78,2.78,0,0,0-2.09-.5,2.82,2.82,0,0,0-1.83,1.12l-22.1,30.57a2.76,2.76,0,0,0-.5,2.09,2.83,2.83,0,0,0,2.76,2.36,3.42,3.42,0,0,0,.45,0,2.79,2.79,0,0,0,1.83-1.13l22.11-30.56A2.78,2.78,0,0,0,177.25,273.82Z" transform="translate(0 -19.1)"/><path class="cls-31" d="M188.05,281.64a2.82,2.82,0,0,0-3.22-2.33,2.75,2.75,0,0,0-1.82,1.13L160.9,311a2.8,2.8,0,0,0,.63,3.92h0a2.77,2.77,0,0,0,1.64.53,2.8,2.8,0,0,0,2.27-1.16l22.11-30.56A2.79,2.79,0,0,0,188.05,281.64Z" transform="translate(0 -19.1)"/><path class="cls-31" d="M198.85,289.45a2.8,2.8,0,0,0-5-1.2L171.7,318.81a2.8,2.8,0,0,0,2.27,4.45l.45,0a2.79,2.79,0,0,0,1.83-1.13l22.1-30.56A2.79,2.79,0,0,0,198.85,289.45Z" transform="translate(0 -19.1)"/><path class="cls-2" d="M151.27,306.35a1.89,1.89,0,0,1-.42-2.62L173,273.17a1.87,1.87,0,0,1,3,2.19l-22.1,30.57A1.89,1.89,0,0,1,151.27,306.35Z" transform="translate(0 -19.1)"/><path class="cls-2" d="M162.07,314.16a1.87,1.87,0,0,1-.41-2.61L183.76,281a1.87,1.87,0,1,1,3,2.19l-22.1,30.56A1.88,1.88,0,0,1,162.07,314.16Z" transform="translate(0 -19.1)"/><path class="cls-2" d="M172.88,322a1.86,1.86,0,0,1-.42-2.61l22.1-30.56a1.87,1.87,0,0,1,3,2.19l-22.11,30.56A1.86,1.86,0,0,1,172.88,322Z" transform="translate(0 -19.1)"/><path class="cls-9" d="M85.12,327c9.27,2.91,13.55,19,20,28.64s21.14,20.23,21.14,20.23,2.78,22.24-22,30.21l-1.76-.08C13.41,366.11-7.39,313.69,16.3,300.1s22.25-12.35,22.25-12.35" transform="translate(0 -19.1)"/><path class="cls-10" d="M49.5,287.81h0c-13.68,3.92-26,8.17-33.2,12.29-23.17,13.29-3.77,63.72,80.5,103.2l7.13-.32S-17.58,332.92,49.5,287.81Z" transform="translate(0 -19.1)"/><path class="cls-2" d="M75.13,320.47c3.06.95,5.6,3.06,8,5.18a81.4,81.4,0,0,1,6.59,6.93c4.13,4.86,7.92,10,11.61,15.17,1.85,2.57,3.65,5.23,5.49,7.74a56.58,56.58,0,0,0,6.24,6.83,133,133,0,0,0,14.55,11.75l.76.55.12.94a23.8,23.8,0,0,1,.16,2.83c0,.92,0,1.82-.11,2.73a31.74,31.74,0,0,1-.92,5.37,29.93,29.93,0,0,1-4.61,10,29.11,29.11,0,0,1-3.63,4.21c-.64.66-1.37,1.23-2.07,1.84s-1.45,1.14-2.23,1.62a41.16,41.16,0,0,1-9.77,4.78l-.46.15h-.59l-1.75,0-.53,0-.59-.25c-18.57-7.91-36.56-17.53-52.92-29.79a145.29,145.29,0,0,1-22.67-20.81,98,98,0,0,1-9.36-12.51,66.29,66.29,0,0,1-6.88-14.4,38.63,38.63,0,0,1-1.89-16.53,29.32,29.32,0,0,1,.89-4.3,25.65,25.65,0,0,1,1.65-4.17,24.14,24.14,0,0,1,2.45-3.83,23.76,23.76,0,0,1,3.17-3.25,25.65,25.65,0,0,1,3.67-2.54l3.21-1.86c2.14-1.23,4.25-2.55,6.38-3.81,4.26-2.59,8.52-5.17,12.75-7.81,16.91-10.59,33.77-21.39,50.58-32.21L95,249.22,96.22,252c1,2.33,2.35,4.79,3.68,7.11s2.8,4.64,4.34,6.87a92.56,92.56,0,0,0,10.26,12.6,66.6,66.6,0,0,0,12.67,10.2,49.4,49.4,0,0,0,15.2,6.16,46.4,46.4,0,0,1-16-4.66,63.67,63.67,0,0,1-14-9.44,89.66,89.66,0,0,1-11.59-12.34q-2.6-3.34-4.93-6.89c-1.56-2.39-3-4.75-4.39-7.39l3.85,1C79,266.94,62.6,278.4,45.81,289.41c-4.2,2.75-8.41,5.49-12.68,8.17-2.16,1.31-4.28,2.65-6.47,3.94l-3.27,1.93a18.62,18.62,0,0,0-2.49,1.74,15.79,15.79,0,0,0-5.31,10.48,30.93,30.93,0,0,0,1.66,13.05c2.86,8.75,8.26,16.91,14.51,24.22a129.48,129.48,0,0,0,10.12,10.45c3.59,3.3,7.33,6.45,11.18,9.49a219.19,219.19,0,0,0,24.47,16.5c8.54,5,17.31,9.6,26.3,13.79l-1.12-.26,1.75.1-1,.15a35.66,35.66,0,0,0,8.51-3.8c.67-.38,1.27-.86,1.9-1.29s1.22-.92,1.78-1.45a23.36,23.36,0,0,0,3.13-3.31,24.6,24.6,0,0,0,4.23-8.12,27.16,27.16,0,0,0,1-4.55c.11-.78.17-1.55.21-2.33s0-1.6,0-2.22l.88,1.48c-2.6-2-5-4-7.44-6.19s-4.71-4.39-6.92-6.74a60.23,60.23,0,0,1-6.15-7.58c-1.79-2.7-3.4-5.38-5.11-8.06-3.4-5.34-6.88-10.62-10.7-15.65a82.71,82.71,0,0,0-6.08-7.25,37.69,37.69,0,0,0-3.47-3.21A14.81,14.81,0,0,0,75.13,320.47Z" transform="translate(0 -19.1)"/><path class="cls-27" d="M126.57,375.29s11.72,7.88,22.17,11.11c0,0-8.27,2.83-24.79,1.72C124,388.12,127,384.77,126.57,375.29Z" transform="translate(0 -19.1)"/><path class="cls-27" d="M124.45,389.15a142.78,142.78,0,0,0,17.19,6.42s-9.21,6.11-25.73,5C115.91,400.57,119.94,397.16,124.45,389.15Z" transform="translate(0 -19.1)"/><path class="cls-37" d="M114.62,400.88a123.61,123.61,0,0,0,15,5.6s-13.4,6.69-26.83,1C102.8,407.47,110.69,407.87,114.62,400.88Z" transform="translate(0 -19.1)"/><path class="cls-2" d="M101.93,409l.53,0,1.75,0h.59l.46-.15a41.16,41.16,0,0,0,9.77-4.78c.78-.48,1.49-1.08,2.23-1.62s1.43-1.18,2.07-1.84a29.11,29.11,0,0,0,3.63-4.21,29.93,29.93,0,0,0,4.61-10,31.74,31.74,0,0,0,.92-5.37c.08-.91.11-1.81.11-2.73a23.8,23.8,0,0,0-.16-2.83l-.12-.94-.76-.55q-1.57-1.11-3.15-2.28a40.75,40.75,0,0,1-.34,7.92c0,.31-.07.62-.11.93a27.16,27.16,0,0,1-1,4.55,24.6,24.6,0,0,1-4.23,8.12,22.25,22.25,0,0,1-2.4,2.64,25.65,25.65,0,0,1-7.36,5,38.07,38.07,0,0,1-5,2l-.57,0-7.22,3.51q2.6,1.16,5.2,2.27Z" transform="translate(0 -19.1)"/></g><path class="cls-2" d="M369,355.08l-.25-17.18h0l-.83-57-28.07,4.27h0l-42.65,6.49h0L261,297.19h0l-94.11,14.32-2.54,8.95-7.65-7.4L68.11,326.54,71,337.43l-2.25,10.5-.11-7.48L56.14,328.36l-50.6,7.69,8,12.32.65,45.32L5.55,410.38l53-8.06h0l9.25-1.4c-16.24,10.44-29.75,23.64-31.57,36.22-1.44,10,2.71,18.23,11.1,22.14s18.9,2.62,23.67-2.74L73,454.74c-2.53,8.49-3.9,18.56-.3,26.76h0a21.4,21.4,0,0,0,5,7.08l-.11.23c2.68,2.33,6.71,4.28,12.64,4.15a20.22,20.22,0,0,0,2.61-.42,22.26,22.26,0,0,0,14.64-12.34,202.62,202.62,0,0,1,9.83-18.64c0,5.8,1.39,11.58,5.23,16.07.35.4.71.78,1.09,1.14-5.4,2.88-12.76,9.22-8.21,21.18l.18.47a8.47,8.47,0,0,0,4.53,5,8.71,8.71,0,0,0,6.93.1c62.8-26.21,139.14-37.05,156.14-38.52a11.51,11.51,0,0,0,6.78-3l5.92-5.5a8.38,8.38,0,0,0-.19-12.54c5.19-3.27,8.76-9.4,10.28-12a106.91,106.91,0,0,0,6.06-12.4l1.64-4.13-6.76-8.72c6.39-13.64,16-31.18,22.26-36.82l5-4.49a3.1,3.1,0,0,0-.63-5.05l-2.79-1.48,11.86-1.8ZM80.13,437.6a91.42,91.42,0,0,0-6,13.58L72.24,448c-.4-1.19-2.5-9.26,9.08-21.38a99.7,99.7,0,0,1,7.81-7.36Zm214.06-53.09a17,17,0,0,0-7.53.72,24.62,24.62,0,0,0-4.86,2.16c1.14-1.49,2.16-2.78,3-3.82l7.17-8.74-10.73-3.58c-11.65-3.87-17.23,1.58-34.66,26.61l-5.27-3.37a20.21,20.21,0,0,0-5.1-2.39l2.74-2.55c1-.9,8.08-7.7,11.14-16.38l17.3-2.63h0L303.61,365h0l5.91-.9C306,367.88,300.81,374.16,294.19,384.51Z" transform="translate(0 -19.1)"/><path class="cls-38" d="M43.58,338.14l-8.48,1.29-3.2.49-5,.76-5.71.87-2.57.39L21.24,346,22,395.52l-2.51,4.87L22,400l5.71-.87,2.7-.41,5.52-.84,18.39-2.79L61.5,386l-.24-17-5.74-5.48,5.57-5.82-.2-13.92-7.4-7.17Zm.16,11.31,3.3,2.12.08,5.51-3.22,3.26-8.47,1.29-.16-10.9Zm-8,37.13-.2-13.65,8.47-1.29,3.17,1.59.12,8.14-3.09,3.92Z" transform="translate(0 -19.1)"/><path class="cls-39" d="M154,321.33l-18.39,2.8-3.2.49-5,.76-5.72.87-2.57.39,2.64,4.09.71,49.49L120,385.1l2.57-.4,5.71-.86,2.7-.41,5.52-.85,18.39-2.79h0l7.17-9.11-.61-42.18-7.4-7.17Zm-17.71,49.95-.52-35.84,8.47-1.29,3.3,2.12.31,29.8L144.8,370Z" transform="translate(0 -19.1)"/><path class="cls-40" d="M100.74,333.93l1-4.64-2.14.32-3.39.52-3.67.56-5.51.84-3.67.56L80,332.6l-2.14.33L79,337.24,68.27,387.3h0l-3.14,6.14,1.89-.28,2.13-.33,8.79-1.34,1.65-.25,3.24-.49-2-5.36h0l2.4-11.21,6.68,2.37,7.53-5,2.83,10.9-1.83,5.94,3.25-.49,1.65-.25,8.78-1.34,2.14-.32,1.88-.29-3.3-5.16Zm-11,30.21s-2.48-.88-4.06-1.36l4.28-20L94.7,361C93.6,361.58,89.74,364.14,89.74,364.14Z" transform="translate(0 -19.1)"/><polygon class="cls-41" points="181.37 344.23 205.04 305.81 200.86 295.11 172.99 299.35 168.68 314.52 175.66 310.28 189.55 308.16 165.37 346.66 169.5 358.47 202.77 353.41 207.12 337.13 200.14 341.37 181.37 344.23"/><polygon class="cls-42" points="226.34 291.24 223.95 291.6 223.95 291.6 210.14 293.7 210.14 293.7 207.76 294.06 210.23 299.35 210.91 346.5 208.6 352.52 210.99 352.15 224.8 350.05 227.18 349.69 224.72 344.4 224.03 297.25 226.34 291.24"/><polygon class="cls-43" points="247.21 334.21 246.63 293.81 248.93 287.8 246.55 288.16 246.55 288.16 232.74 290.26 232.74 290.26 230.35 290.63 232.82 295.92 233.5 343.06 231.2 349.08 233.58 348.72 238.79 347.92 238.79 347.92 261.2 344.51 266 326.57 258.57 332.48 247.21 334.21"/><polygon class="cls-44" points="283.43 328.7 282.84 288.31 285.14 282.29 282.76 282.65 282.76 282.65 268.95 284.75 268.95 284.75 266.57 285.12 269.03 290.4 269.71 337.55 267.41 343.57 269.8 343.21 275.01 342.41 275.01 342.41 297.41 339 302.21 321.06 294.78 326.97 283.43 328.7"/><polygon class="cls-45" points="319.76 323.17 319.58 310.76 327.37 309.58 331.67 311.41 331.57 304.24 331.53 301.9 331.43 294.73 327.2 297.86 319.41 299.04 319.26 288.67 332.19 286.7 338.94 288.61 334.47 274.78 319.1 277.12 310.5 278.43 305.29 279.22 305.29 279.22 302.9 279.59 305.37 284.88 306.05 332.02 303.75 338.04 306.13 337.68 311.34 336.88 311.34 336.88 336.39 333.07 341.19 315.13 333.76 321.04 319.76 323.17"/><polygon class="cls-46" points="346.46 272.96 347.06 314.24 360.87 312.13 360.27 270.86 346.46 272.96"/><polygon class="cls-47" points="347.31 331.41 361.11 329.31 360.93 316.9 347.13 319.01 347.31 331.41"/><g class="cls-48"><polygon class="cls-49" points="12.96 350.56 12.96 386.86 366.29 333.17 366.29 296.88 12.96 350.56"/></g><path class="cls-50" d="M52.94,338.35l6.34,6.14.19,12.59-5.12,5.34-1.12,1.17,1.17,1.12,5.25,5,.23,15.7-6.42,8.15-17.75,2.7-5.53.84-2.7.41-5.14.79,1.05-2.06.19-.36v-.4L22.86,346v-.47l-.25-.39-1.28-2,.1,0,5.71-.87,5-.76,3.2-.49,8.47-1.29,9.12-1.39M33.83,363.51l1.84-.28,8.47-1.29.53-.08.38-.38,3.22-3.26.48-.48v-.68l-.08-5.52v-.86l-.73-.47-3.3-2.13-.52-.33-.6.09L35,349.13l-1.39.22,0,1.41.16,10.89,0,1.86m.36,24.95,1.84-.28,8.47-1.29.64-.1.39-.5,3.09-3.92.36-.45v-.58l-.12-8.13v-1l-.88-.44-3.17-1.59-.46-.23-.51.08-8.47,1.29-1.4.21L34,373l.2,13.65,0,1.86m19.3-51.83-9.91,1.51-8.48,1.29-3.2.49-5,.76-5.71.87-2.57.39L21.24,346,22,395.52l-2.51,4.87L22,400l5.71-.87,2.7-.41,5.52-.84,18.39-2.79L61.5,386l-.24-17-5.74-5.48,5.57-5.82-.2-13.92-7.4-7.17Zm-18.06,25-.16-10.9,8.47-1.28,3.3,2.12.08,5.51-3.22,3.26-8.47,1.29Zm.36,24.95-.2-13.65,8.47-1.29,3.17,1.59.12,8.14-3.09,3.92-8.47,1.29Z" transform="translate(0 -19.1)"/><path class="cls-50" d="M153.49,323.06l6.34,6.13.59,40.94L154,378.28,136.25,381l-5.52.84-2.7.41-5.15.79,1.05-2,.19-.36v-.41l-.71-49.49v-.47l-.25-.39-1.28-2,.1,0,5.71-.87,5-.76,3.2-.49,17.6-2.67m-18.75,50.1,1.83-.28,8.48-1.29.63-.09.39-.51,3.09-3.92.36-.45v-.57l-.31-29.8v-.87l-.74-.47-3.3-2.13-.52-.33-.6.1-8.47,1.28-1.4.22,0,1.41.52,35.84,0,1.86M154,321.33l-18.39,2.8-3.2.49-5,.76-5.72.87-2.57.39,2.64,4.09.71,49.49L120,385.1l2.57-.39,5.71-.87,2.7-.41,5.52-.85,18.39-2.79h0l7.17-9.11-.61-42.18-7.4-7.17Zm-17.71,49.95-.52-35.84,8.47-1.29,3.3,2.12.31,29.8L144.8,370l-8.47,1.29Z" transform="translate(0 -19.1)"/><path class="cls-50" d="M99.66,331.24l-.51,2.35-.08.38.1.37,12.11,46.59.07.24.13.22,2,3.06-1.55.24L103.1,386l-1.65.25-.69.1,1.07-3.47.13-.44-.11-.45L99,371.12l-.57-2.2-1.89,1.26-6.85,4.57-5.92-2.1L82,372l-.38,1.81-2.4,11.21-.1.46.16.44,1.3,3.5-1.28.19-1.65.25-8.78,1.34-.9.14,1.7-3.33.1-.19,0-.21,10.72-50.06.08-.38-.1-.37-.68-2.57.35-.06,3.39-.51,3.68-.56,5.5-.84,3.68-.56,3.19-.49M90,365.93l.67-.44c1-.7,4-2.62,4.83-3.08l1.12-.61-.32-1.23-4.74-18.21-1.72-6.62-1.43,6.68-4.28,20-.31,1.45,1.41.43c1.53.47,4,1.34,4,1.35l.76.26m11.78-36.64-2.14.32-3.39.52-3.67.56-5.51.84-3.67.56L80,332.6l-2.14.33L79,337.24,68.27,387.3l-3.14,6.14,1.89-.28,2.13-.33,8.79-1.34,1.65-.25,3.24-.49-2-5.36h0l2.4-11.21,6.68,2.37,7.53-5,2.83,10.9-1.83,5.94,3.25-.49,1.65-.25,8.78-1.34,2.14-.32,1.88-.29-3.3-5.16-12.11-46.59,1-4.64Zm-12,34.85s-2.48-.88-4.06-1.36l4.28-20L94.7,361c-1.1.6-5,3.16-5,3.16Z" transform="translate(0 -19.1)"/><path class="cls-50" d="M199.82,316l3.41,8.73L180,362.47l-1.83,3,3.45-.53,18.77-2.85.32-.05.28-.17,3.54-2.15-3,11.36-30.89,4.7-3.43-9.8,23.76-37.84,1.88-3-3.5.53-13.88,2.11-.32.05-.28.17-3.45,2.1,2.89-10.2L199.82,316m1-1.8L173,318.45l-4.31,15.16,7-4.24,13.89-2.11-24.18,38.5,4.13,11.8,33.27-5.06,4.35-16.27-7,4.24-18.77,2.85L205,324.9l-4.18-10.69Z" transform="translate(0 -19.1)"/><path class="cls-50" d="M223.83,312.35l-1.31,3.42-.11.29v.31l.69,47.15v.35l.15.31,1.55,3.33-.25,0-13.44,2,1.31-3.41.11-.29v-.32l-.68-47.14v-.35l-.15-.32-1.55-3.33.25,0,13.44-2m2.51-2-2.39.37h0l-13.81,2.1-2.38.36,2.47,5.29.68,47.15-2.31,6,2.39-.36,13.81-2.1,2.38-.36-2.46-5.29L224,316.35l2.31-6Z" transform="translate(0 -19.1)"/><path class="cls-50" d="M246.42,308.91l-1.31,3.42-.11.29v.31l.58,40.4,0,1.85,1.84-.28,11.35-1.72.43-.07.34-.27,3.59-2.85-3.26,12.18-21.36,3.25-4.84.74,1.3-3.42.12-.29v-.31L234.44,315v-.35l-.14-.31L232.74,311l.24,0,13.44-2m2.51-2-2.38.37-13.81,2.1h0l-2.39.36,2.47,5.29.68,47.15-2.3,6,2.38-.36,5.21-.79h0l22.41-3.41,4.8-17.95-7.43,5.92-11.36,1.72-.58-40.39,2.3-6Z" transform="translate(0 -19.1)"/><path class="cls-50" d="M282.64,303.4l-1.31,3.42-.11.29v.31l.59,40.4,0,1.85,1.84-.28L295,347.67l.42-.07.34-.27,3.59-2.85-3.26,12.18-21.36,3.25-4.84.74,1.31-3.42.11-.29v-.31l-.68-47.15v-.35l-.15-.31L269,305.49l.24,0,13.45-2.05m2.5-2-2.38.37h0L269,303.85h0l-2.38.36L269,309.5l.68,47.15-2.3,6,2.39-.36,5.21-.79h0l22.4-3.41,4.8-18-7.43,5.92-11.36,1.72-.58-40.39,2.3-6Z" transform="translate(0 -19.1)"/><path class="cls-50" d="M333.36,295.69l3.11,9.63-3.84-1.08-.33-.1-.35.06-12.93,2-1.4.22,0,1.41.15,10.37,0,1.86,1.84-.28,7.78-1.18.4-.06.32-.24,1.69-1.26.06,4,0,2.34L330,328l-2-.86-.42-.18-.46.07-7.78,1.19-1.4.21,0,1.41.18,12.41,0,1.85,1.84-.27,14-2.13.43-.07.34-.27,3.59-2.85-3.27,12.18-24,3.65-4.84.74,1.31-3.42.11-.29v-.31L307,304v-.35l-.15-.31L305.29,300l.24,0,5.21-.79,8.6-1.31,14-2.13m1.11-1.81-15.37,2.34-8.6,1.31-5.21.79h0l-2.39.36,2.47,5.29.68,47.15-2.3,6,2.38-.37,5.21-.79h0l25.05-3.81,4.8-17.95-7.43,5.91-14,2.13-.18-12.4,7.79-1.19,4.3,1.83-.1-7.16,0-2.35-.1-7.17L327.2,317l-7.79,1.19-.15-10.38,12.93-2,6.75,1.91-4.47-13.83Z" transform="translate(0 -19.1)"/><path class="cls-50" d="M358.68,291.83l.55,38-10.58,1.61-.55-38,10.58-1.61m1.59-1.88-13.81,2.1.6,41.28,13.8-2.1L360.27,290Z" transform="translate(0 -19.1)"/><path class="cls-50" d="M359.34,337.88l.13,9.14-10.57,1.61-.13-9.14,10.57-1.61m1.59-1.88-13.8,2.1.18,12.41,13.8-2.1L360.93,336Z" transform="translate(0 -19.1)"/><path class="cls-51" d="M324,366.13s-2.54-1.34-4.62-.42c0,0-8,5-22.76,29.76,0,0-.66-4.94-7.62-2.8-7.51,2.31-17,13.2-22.79,24.49-12.39,15.82-17.11,18-17.11,18,2.82-23.69,29.74-56.5,29.74-56.5-5.49-1.83-7.77-2.37-27.29,25.79C243.74,415.64,240,425,238.7,432.26c-3.88,4.88-12.07,14.62-14.76,13.78,0,0,6-10.32,8.77-13.12s6.48-6.14,1.61-11.92-3.93-11,2.8-20c0,0-6.22-4-8.69-.21s-7,8.23-3.14,14.15c0,0-6.64,8.34-14.85,17.33,2.05-7.88,1.14-12.57,1.14-12.57s-2.58-27.22-27,4.62c0,0-1.86,2.74-4.49,6.49h0s-9,13.89-14.42,19.11l-.39.43a.7.7,0,0,1-.27.17c-1.37,1.19-2.46,1.7-3,1.1-1.67-1.78-1.27-7.46,1.41-14.54A87.73,87.73,0,0,1,171,420.41l-.07,0q2.47-3.78,5.36-7.8C205,372.53,233,368.7,233.67,383.85c0,0,19.52-18.09,4.18-28.3S183.4,375.26,148,444.79l11.69-33.62s15.74-32.79-3.7-29.85c-5.54.83-11,4.87-14.1,10.33-7.55,13.22-24.62,42.34-37.81,59.19l21.61-45.69s11.75-22.12-16.36-14.76-63,31-65.42,47.86,17.26,17.59,21.25,13.11c0,0-6.2-12.59,10.5-30.08,11.74-12.3,22.84-18.34,28.4-20.85,1.52-.68,2.67.63,1.91,2.18l-19,38.6s-17.43,31-3.18,42.45c4.79,3.83,13.27.42,16.5-6.68,5-11,15.55-30.46,37.28-59.43l-7.76,22.87s-9.74,22.46-1.45,32.16c6.33,7.4,20.53.72,23.26-10.77.07-.26.14-.55.21-.82a7.93,7.93,0,0,0,2.52,4.62s.25.35.68.83a5.65,5.65,0,0,0,8.57-.19c2.58-3.13,6.68-9.34,12.85-21.66,0,0-3,10.25,1.3,15.44h0s10.59,17.93,36-21.21q2.29-3.63,4.75-7.88c3.39-4.91,8.39-12.55,8.39-12.55s2.42,2.49-1.18,8.43-15.43,19.69-8.24,26.36c6.31,5.85,17.93-9.65,20.7-13.56.4,6.4,3.2,10,6.16,10.44,4.28.63,12.05-10.88,17-19a19.75,19.75,0,0,0-.11,5.82c2,14,10.27,6.54,22.32-11.44,0,0-3.19,13.24,4.42,14.82s16.81-21.55,16.81-21.55l-2.58-3.33s-6.25,10.3-9.33,10S311.4,377.41,324,366.13ZM190.5,433.32c4.3-9.31,9.75-15.95,12.17-14.83s.9,9.58-3.4,18.89-9.75,15.95-12.17,14.83S186.19,442.64,190.5,433.32ZM293.83,402l-2.93,5.25a90.47,90.47,0,0,1-10.24,14.82c-10.06,11.77-12.48,8.64-3.69-7.33,7.13-12.95,12.74-15,15.62-14.89A1.44,1.44,0,0,1,293.83,402Z" transform="translate(0 -19.1)"/><path class="cls-52" d="M290,451.68c-67.78,5.73-153.74,29.51-162.16,33.65-9,4.44-5.71,10.17-4.89,12.63a.8.8,0,0,0,1.08.4c67.82-28.31,148.18-38.2,158.47-39.09a3.58,3.58,0,0,0,2.15-.94l5.92-5.49A.67.67,0,0,0,290,451.68Z" transform="translate(0 -19.1)"/><path class="cls-2" d="M289.45,143.32a13.72,13.72,0,1,0-13.71-13.72A13.72,13.72,0,0,0,289.45,143.32Zm3-18.8.31,3.73s.09,1.28.11,1.59c.27-.64.54-1.24.76-1.69l1.77-3.63h3.17l-1.31,9.7h-2.51l.61-4.1c.06-.43.13-.85.19-1.25-.22.48-.43.92-.62,1.31l-2,3.89h-2l-.35-4q0-.56-.09-1.26c-.1.5-.21,1-.3,1.38l-1,4h-2.41l2.43-9.7Zm-11.73,0h7.37l-.44,2.3h-2.43l-1.39,7.4h-2.55l1.39-7.4H280.3Z" transform="translate(0 -19.1)"/></g></g></svg>