<svg xmlns="http://www.w3.org/2000/svg" viewBox="0 0 635.28 473.38"><defs><style>.cls-1{fill:#f4f4f4;}</style></defs><title>Asset 9</title><g id="Layer_2" data-name="Layer 2"><g id="Layer_1-2" data-name="Layer 1"><path d="M75.18,467.38a3.49,3.49,0,0,0,1.08,1.26,4.36,4.36,0,0,0,1.57.72,7.34,7.34,0,0,0,1.88.24,10.22,10.22,0,0,0,1.4-.11,5.48,5.48,0,0,0,1.41-.42,3.09,3.09,0,0,0,1.09-.86,2.18,2.18,0,0,0,.44-1.39,1.93,1.93,0,0,0-.58-1.47,4.58,4.58,0,0,0-1.51-.94,14.54,14.54,0,0,0-2.13-.65q-1.18-.28-2.4-.63a21.62,21.62,0,0,1-2.44-.76,8.53,8.53,0,0,1-2.12-1.18,5.4,5.4,0,0,1-1.52-1.79,5.53,5.53,0,0,1-.58-2.61,5.83,5.83,0,0,1,.74-3,6.58,6.58,0,0,1,1.92-2.11,8.41,8.41,0,0,1,2.69-1.25,11.34,11.34,0,0,1,3-.41,14.18,14.18,0,0,1,3.36.39,8.44,8.44,0,0,1,2.86,1.27,6.44,6.44,0,0,1,2,2.23,6.88,6.88,0,0,1,.74,3.3H83.3a3.93,3.93,0,0,0-.42-1.66,2.8,2.8,0,0,0-1-1,3.85,3.85,0,0,0-1.35-.53,8.71,8.71,0,0,0-1.68-.16,5.92,5.92,0,0,0-1.18.13,3,3,0,0,0-1.08.44,2.7,2.7,0,0,0-.8.78,2.07,2.07,0,0,0-.31,1.18,2,2,0,0,0,.25,1.07,2.31,2.31,0,0,0,1,.75,12.65,12.65,0,0,0,2,.68l3.38.88q.63.12,1.74.45a8.33,8.33,0,0,1,2.2,1.05A6.66,6.66,0,0,1,88,463.18a5.47,5.47,0,0,1,.8,3.07,6.77,6.77,0,0,1-.6,2.85,6.09,6.09,0,0,1-1.76,2.26,8.49,8.49,0,0,1-2.91,1.49,14.81,14.81,0,0,1-7.59.07,9,9,0,0,1-3.06-1.42A7,7,0,0,1,70.77,469a7.37,7.37,0,0,1-.75-3.56h4.75A4.12,4.12,0,0,0,75.18,467.38Z"/><path d="M95.29,472.88l-7.21-22.31h5l5,15.68h.06l5-15.68h5.06l-7.4,22.31Z"/><path d="M122.09,472.7a8.17,8.17,0,0,1-3.22.68,11.47,11.47,0,0,1-4.6-.89,9.74,9.74,0,0,1-3.45-2.46,10.77,10.77,0,0,1-2.16-3.67,13.43,13.43,0,0,1-.75-4.54,13.94,13.94,0,0,1,.75-4.64,11,11,0,0,1,2.16-3.73,9.71,9.71,0,0,1,3.45-2.5,11.31,11.31,0,0,1,4.6-.91,10.94,10.94,0,0,1,3.33.52,9.59,9.59,0,0,1,2.91,1.51,8.2,8.2,0,0,1,3.17,5.84h-4.69a4.73,4.73,0,0,0-1.68-2.81,5,5,0,0,0-3-.93,5.69,5.69,0,0,0-2.81.64,5.24,5.24,0,0,0-1.87,1.72,7.42,7.42,0,0,0-1,2.45,12.06,12.06,0,0,0-.32,2.84,11.21,11.21,0,0,0,.32,2.73,7.37,7.37,0,0,0,1,2.39,5.27,5.27,0,0,0,1.87,1.7,5.69,5.69,0,0,0,2.81.64,4.79,4.79,0,0,0,5.32-4.81h-4.94v-3.65h9.37v12.06H125.5l-.5-2.53A7.36,7.36,0,0,1,122.09,472.7Z"/><path d="M137.05,450.57h5.69l4.37,7.13,4.53-7.13H157l-7.15,10.66,7.78,11.65H151.8l-4.88-7.72-5,7.72h-5.5l7.78-11.69Z"/><path d="M165.57,457.18a11,11,0,0,1,2.16-3.73,9.71,9.71,0,0,1,3.45-2.5,12.16,12.16,0,0,1,9.23,0,9.81,9.81,0,0,1,3.43,2.5,11,11,0,0,1,2.16,3.73,13.94,13.94,0,0,1,.75,4.64,13.43,13.43,0,0,1-.75,4.54,10.77,10.77,0,0,1-2.16,3.67,9.84,9.84,0,0,1-3.43,2.46,12.41,12.41,0,0,1-9.23,0,9.74,9.74,0,0,1-3.45-2.46,10.77,10.77,0,0,1-2.16-3.67,13.43,13.43,0,0,1-.75-4.54A13.94,13.94,0,0,1,165.57,457.18Zm4.48,7.37a7.37,7.37,0,0,0,1,2.39,5.27,5.27,0,0,0,1.87,1.7,6.51,6.51,0,0,0,5.63,0,5.27,5.27,0,0,0,1.87-1.7,7.37,7.37,0,0,0,1.05-2.39,11.21,11.21,0,0,0,.32-2.73,12.06,12.06,0,0,0-.32-2.84,7.42,7.42,0,0,0-1.05-2.45,5.24,5.24,0,0,0-1.87-1.72,6.51,6.51,0,0,0-5.63,0,5.24,5.24,0,0,0-1.87,1.72,7.42,7.42,0,0,0-1,2.45,12.06,12.06,0,0,0-.32,2.84A11.21,11.21,0,0,0,170.05,464.55Z"/><path d="M198.9,450.57a9.42,9.42,0,0,1,3.56.61,6.75,6.75,0,0,1,2.39,1.61,6.28,6.28,0,0,1,1.34,2.28,8.57,8.57,0,0,1,0,5.3,6.15,6.15,0,0,1-1.34,2.29,6.62,6.62,0,0,1-2.39,1.61,9.23,9.23,0,0,1-3.56.61h-5.15v8h-4.91V450.57Zm-1.34,10.5a9.49,9.49,0,0,0,1.62-.13,3.65,3.65,0,0,0,1.37-.48,2.67,2.67,0,0,0,1-1,4.29,4.29,0,0,0,0-3.44,2.63,2.63,0,0,0-1-1,3.84,3.84,0,0,0-1.37-.48,10.64,10.64,0,0,0-1.62-.12h-3.81v6.68Z"/><path d="M206.68,454.7v-4.13H225v4.13h-6.69v18.18h-4.9V454.7Z"/><path d="M242.6,462.44v3.81h-9.41v-3.81Z"/><path d="M263.71,450.57l8.34,22.31H267l-1.69-5h-8.34l-1.75,5h-4.93l8.43-22.31Zm.28,13.69-2.81-8.19h-.06l-2.91,8.19Z"/><path d="M286,472.7a8.17,8.17,0,0,1-3.22.68,11.47,11.47,0,0,1-4.6-.89,9.87,9.87,0,0,1-3.46-2.46,10.91,10.91,0,0,1-2.15-3.67,13.43,13.43,0,0,1-.75-4.54,13.94,13.94,0,0,1,.75-4.64,11.19,11.19,0,0,1,2.15-3.73,9.84,9.84,0,0,1,3.46-2.5,11.31,11.31,0,0,1,4.6-.91,10.94,10.94,0,0,1,3.33.52,9.43,9.43,0,0,1,2.9,1.51,8.22,8.22,0,0,1,2.14,2.47,8.33,8.33,0,0,1,1,3.37h-4.69a4.7,4.7,0,0,0-1.69-2.81,4.92,4.92,0,0,0-3-.93,5.69,5.69,0,0,0-2.81.64,5.24,5.24,0,0,0-1.87,1.72A7.42,7.42,0,0,0,277,459a12.07,12.07,0,0,0-.33,2.84,11.21,11.21,0,0,0,.33,2.73,7.37,7.37,0,0,0,1.05,2.39,5.27,5.27,0,0,0,1.87,1.7,5.69,5.69,0,0,0,2.81.64,4.77,4.77,0,0,0,5.31-4.81h-4.93v-3.65h9.37v12.06h-3.12l-.5-2.53A7.36,7.36,0,0,1,286,472.7Z"/><path d="M306.32,450.57l8.34,22.31h-5.1l-1.68-5h-8.34l-1.75,5h-4.94l8.44-22.31Zm.28,13.69-2.81-8.19h-.07l-2.9,8.19Z"/><path d="M320.25,450.57v22.31h-4.91V450.57Z"/><path d="M328.18,450.57l9.31,15h.06v-15h4.59v22.31h-4.9L328,458h-.06v14.93h-4.59V450.57Z"/><path d="M349,467.38a3.49,3.49,0,0,0,1.08,1.26,4.41,4.41,0,0,0,1.58.72,7.21,7.21,0,0,0,1.87.24,10.24,10.24,0,0,0,1.41-.11,5.41,5.41,0,0,0,1.4-.42,3.09,3.09,0,0,0,1.09-.86,2.12,2.12,0,0,0,.44-1.39,1.93,1.93,0,0,0-.58-1.47,4.48,4.48,0,0,0-1.51-.94,14.39,14.39,0,0,0-2.12-.65c-.8-.19-1.6-.4-2.41-.63a22.27,22.27,0,0,1-2.44-.76,8.53,8.53,0,0,1-2.12-1.18,5.18,5.18,0,0,1-2.09-4.4,5.83,5.83,0,0,1,.73-3,6.58,6.58,0,0,1,1.92-2.11,8.41,8.41,0,0,1,2.69-1.25,11.47,11.47,0,0,1,3-.41,14.31,14.31,0,0,1,3.36.39,8.39,8.39,0,0,1,2.85,1.27,6.37,6.37,0,0,1,2,2.23,6.88,6.88,0,0,1,.73,3.3h-4.75a3.93,3.93,0,0,0-.42-1.66,2.86,2.86,0,0,0-.95-1,4,4,0,0,0-1.36-.53,8.69,8.69,0,0,0-1.67-.16,6,6,0,0,0-1.19.13,3.2,3.2,0,0,0-1.08.44,2.67,2.67,0,0,0-.79.78,2.37,2.37,0,0,0-.07,2.25,2.28,2.28,0,0,0,1,.75,12.48,12.48,0,0,0,2,.68l3.39.88c.41.08,1,.23,1.73.45a8.33,8.33,0,0,1,2.2,1.05,6.66,6.66,0,0,1,1.89,1.92,5.47,5.47,0,0,1,.8,3.07,6.92,6.92,0,0,1-.59,2.85,6.23,6.23,0,0,1-1.77,2.26,8.53,8.53,0,0,1-2.9,1.49,13.94,13.94,0,0,1-4,.53,13.65,13.65,0,0,1-3.57-.46,8.79,8.79,0,0,1-3.06-1.42,6.92,6.92,0,0,1-2.11-2.47,7.37,7.37,0,0,1-.75-3.56h4.74A4.12,4.12,0,0,0,349,467.38Z"/><path d="M362.48,454.7v-4.13h18.27v4.13h-6.69v18.18h-4.9V454.7Z"/><path d="M387.75,454.7v-4.13H406v4.13h-6.69v18.18h-4.9V454.7Z"/><path d="M412.23,450.57v8.56h9v-8.56h4.9v22.31h-4.9v-9.62h-9v9.62h-4.9V450.57Z"/><path d="M445.91,450.57v4.13H434.13v4.78h10.81v3.81H434.13v5.46h12v4.13H429.23V450.57Z"/><path d="M472,472.88l-3.78-15.18h-.06l-3.72,15.18h-5l-5.9-22.31h4.9L462,465.75h.06L466,450.57h4.59l3.81,15.37h.06l3.66-15.37h4.81l-6,22.31Z"/><path d="M483.67,457.18a11,11,0,0,1,2.15-3.73,9.89,9.89,0,0,1,3.45-2.5,12.16,12.16,0,0,1,9.23,0,9.85,9.85,0,0,1,3.44,2.5,11,11,0,0,1,2.15,3.73,13.94,13.94,0,0,1,.75,4.64,13.43,13.43,0,0,1-.75,4.54,10.75,10.75,0,0,1-2.15,3.67,9.88,9.88,0,0,1-3.44,2.46,12.41,12.41,0,0,1-9.23,0,9.92,9.92,0,0,1-3.45-2.46,10.75,10.75,0,0,1-2.15-3.67,13.43,13.43,0,0,1-.75-4.54A13.94,13.94,0,0,1,483.67,457.18Zm4.48,7.37a7.37,7.37,0,0,0,1.05,2.39,5.19,5.19,0,0,0,1.87,1.7,6.49,6.49,0,0,0,5.62,0,5.3,5.3,0,0,0,1.88-1.7,7.58,7.58,0,0,0,1-2.39,11.21,11.21,0,0,0,.33-2.73,12.07,12.07,0,0,0-.33-2.84,7.62,7.62,0,0,0-1-2.45,5.27,5.27,0,0,0-1.88-1.72,6.49,6.49,0,0,0-5.62,0,5.16,5.16,0,0,0-1.87,1.72,7.42,7.42,0,0,0-1.05,2.45,12.07,12.07,0,0,0-.33,2.84A11.21,11.21,0,0,0,488.15,464.55Z"/><path d="M519,450.57a7.22,7.22,0,0,1,2.7.49,6.09,6.09,0,0,1,2.07,1.33,5.73,5.73,0,0,1,1.31,1.95,6.28,6.28,0,0,1,.45,2.39,6.69,6.69,0,0,1-.83,3.4,5.18,5.18,0,0,1-2.7,2.19v.06a3.68,3.68,0,0,1,1.5.77,4.21,4.21,0,0,1,1,1.21,5.93,5.93,0,0,1,.55,1.55,14,14,0,0,1,.23,1.69c0,.35,0,.77.06,1.25s.06,1,.11,1.47a10.24,10.24,0,0,0,.25,1.42,3.51,3.51,0,0,0,.52,1.14h-4.91a8.93,8.93,0,0,1-.5-2.53c-.06-1-.15-1.92-.28-2.81A4.5,4.5,0,0,0,519.4,465a3.65,3.65,0,0,0-2.65-.81h-4.91v8.72h-4.9V450.57Zm-1.75,10.09a3.69,3.69,0,0,0,2.53-.75,3.08,3.08,0,0,0,.85-2.43,3,3,0,0,0-.85-2.36,3.75,3.75,0,0,0-2.53-.73h-5.37v6.27Z"/><path d="M533.14,450.57v18.18H544v4.13H528.24V450.57Z"/><path d="M555.13,450.57a11.47,11.47,0,0,1,4,.69,8.73,8.73,0,0,1,3.21,2.06,9.47,9.47,0,0,1,2.13,3.44,13.89,13.89,0,0,1,.76,4.84,15.69,15.69,0,0,1-.62,4.5,10,10,0,0,1-1.89,3.56,8.93,8.93,0,0,1-3.16,2.36,10.7,10.7,0,0,1-4.45.86h-9.62V450.57Zm-.34,18.18a6.27,6.27,0,0,0,2.06-.34,4.53,4.53,0,0,0,1.78-1.14,5.66,5.66,0,0,0,1.25-2.08,9.15,9.15,0,0,0,.47-3.12A13,13,0,0,0,560,459a6.07,6.07,0,0,0-1.08-2.32,4.82,4.82,0,0,0-2-1.49,8,8,0,0,0-3.05-.51h-3.49v14.05Z"/><path d="M634.18,188.94a141.91,141.91,0,0,0-14.36-47c-10.22-20.45-24.23-38-40.94-53.51C550.73,62.38,518,43.76,482.52,29.73A386.2,386.2,0,0,0,405.57,8c-14.29-2.45-28.68-4.35-43.09-6C352.91,1,343.24.86,333.61.29c-.82,0-1.63-.19-2.44-.29H304.11c-4.3.25-8.61.41-12.91.76-10.3.82-20.61,1.58-30.89,2.63a403.25,403.25,0,0,0-49.4,8.43c-43.6,10.1-84.75,26.11-122.12,51.09C69.21,76,51.51,91.22,36.58,109.53c-16.5,20.26-28.43,42.79-33.69,68.55-1.24,6.06-1.71,12.28-2.54,18.43-.09.68-.23,1.36-.35,2v14.86c.36,3.2.71,6.41,1.09,9.61a142,142,0,0,0,14.36,47c10.22,20.46,24.24,38,41,53.51,28.14,26.08,60.86,44.71,96.35,58.74a387.06,387.06,0,0,0,76.95,21.69c14.29,2.44,28.69,4.35,43.1,6,9.56,1.07,19.24,1.21,28.87,1.78.81.05,1.62.19,2.44.29h27.06c4.3-.25,8.61-.42,12.9-.76,10.3-.82,20.61-1.58,30.89-2.64a399.15,399.15,0,0,0,49.4-8.43c42.66-9.87,83-25.42,119.75-49.51,18.78-12.3,35.93-26.52,50.66-43.54,18.43-21.29,31.86-45.2,37.56-73,1.26-6.12,1.74-12.4,2.59-18.61.09-.68.24-1.36.36-2V198.55C634.91,195.34,634.56,192.14,634.18,188.94ZM559.5,95.69c3.63.17,6,2,8.48,4.32,17.13,16.13,31.33,34.37,40.82,56.05.37.86.71,1.73,1.07,2.62L505.38,154.9a212.84,212.84,0,0,0-28.77-66.6c5,.35,9.52.64,14.06,1,5.49.43,11,.9,16.47,1.39q9.75.87,19.48,1.8,8.61.8,17.2,1.64C549.05,94.65,554.26,95.45,559.5,95.69ZM534.3,74.32c-1.79-.14-3.57-.24-5.35-.41-9.4-.85-18.78-1.78-28.18-2.56-7.58-.63-15.17-1.07-22.75-1.61-5.06-.36-10.12-.66-15.16-1.2a5,5,0,0,1-2.59-1.89,198.06,198.06,0,0,0-36.83-33.16c-4-2.77-8.14-5.34-12.22-8C455.09,34.49,496.57,49.57,534.3,74.32ZM286.76,18.74a3.22,3.22,0,0,1-.25.78C277.62,32.06,272,46.14,267.2,60.6c-1.37,4.12-1.33,4.08-5.58,4.2-13.45.37-26.89.74-40.33,1.21-7.8.27-15.58.72-23.37,1.09-.36,0-.72,0-1.64,0C222,41.93,251.72,25.61,286.76,18.74Zm-62.62,6.77c-.44.29-.87.59-1.32.86a192.24,192.24,0,0,0-47.74,40.38c-1.87,2.21-4.09,2-6.28,2.15-8.09.65-16.19,1-24.28,1.66-8.39.64-16.78,1.45-25.16,2.18-6.12.54-12.23,1.05-18.34,1.58C138.72,49.56,180.2,34.48,224.14,25.51Zm-196.51,128c9.25-20.11,22.59-37.22,38.55-52.39a13.81,13.81,0,0,0,1.67-1.56c2.26-3.09,5.55-3.59,9-3.92,8.31-.78,16.61-1.74,24.92-2.56,6-.6,12.1-1.08,18.16-1.61,6.75-.6,13.49-1.24,20.24-1.79,6-.49,12-.88,18.45-1.35A212.73,212.73,0,0,0,129.9,154.9L25.37,158.68C26.12,156.93,26.84,155.19,27.63,153.49Zm-8.9,78.85a124.61,124.61,0,0,1,0-52.65,2.26,2.26,0,0,1,2.54-2.08c7-.22,13.94-.51,20.91-.8,11.29-.47,22.57-1,33.85-1.42q11.59-.46,23.2-.83c8.18-.28,16.37-.52,24.55-.77.75,0,1.5,0,2.47,0a220.2,220.2,0,0,0,0,64.39c-.8,0-1.41,0-2,0l-50.79-1.81c-8.24-.3-16.48-.53-24.72-.85-9.19-.36-18.38-.81-27.57-1.16A2.16,2.16,0,0,1,18.73,232.34Zm57,83.92c-3.75-.2-6.11-2.16-8.59-4.5-17-16-31.16-34.19-40.58-55.76-.38-.86-.74-1.73-1.16-2.73l104.52,3.79a212.65,212.65,0,0,0,28.74,66.56c-3.12-.19-5.87-.32-8.61-.53-6.06-.46-12.12-.93-18.18-1.45-6.44-.57-12.86-1.2-19.29-1.81-5.8-.54-11.6-1-17.4-1.62C88.68,317.56,82.21,316.61,75.71,316.26ZM101,337.65c1.8.13,3.59.24,5.38.4,10.28.88,20.56,1.82,30.84,2.64,11.69.94,23.38,1.75,35.06,2.7a4,4,0,0,1,2.14,1.22c7.06,7,13.86,14.33,21.15,21.09a161.47,161.47,0,0,0,27.49,20,3.45,3.45,0,0,1,1,.87C180.18,377.48,138.71,362.38,101,337.65Zm234,46.43a50.46,50.46,0,0,1-6.69,7.25c-7,6.28-14.26,6.33-21.23,0a58.85,58.85,0,0,1-8-9.09,93.86,93.86,0,0,1-7.3-12.45H274.14a132.87,132.87,0,0,0,8.12,16.12c1.43,2.39,3,4.69,4.68,7.34a171.63,171.63,0,0,1-59.39-23.46h-1.94l.25-1.11a186.89,186.89,0,0,1-29.1-23.35c4.57,0,9.05-.13,13.52,0,6.88.24,13.74.68,20.61.94l4.16-18.52c-4-.14-7.92-.25-11.88-.42-9.19-.4-18.38-.93-27.56-1.41-5.07-.27-10.14-.54-15.2-.9a3,3,0,0,1-2-1,192.77,192.77,0,0,1-31.3-64.27H133.2l3.35-15.56,4.26-19.75c-.48-7.76-1-15.53-.83-23.28.17-8.85,1.4-17.68,2.24-26.51a1.94,1.94,0,0,1,1.38-1.24c2.75-.1,5.5-.15,8.25-.25l2.38-11,1.68-7.84-9.52.17c.89-3.1,1.72-6.24,2.71-9.33a195.55,195.55,0,0,1,28.8-56.68A3.62,3.62,0,0,1,181,86.82c10.58-.51,21.16-1.18,31.73-1.75q9.14-.5,18.26-.8c9.26-.31,18.53-.55,27.79-.82.57,0,1.13,0,2,0A475.21,475.21,0,0,0,250,152h16a441.48,441.48,0,0,1,11.27-69H290l4.21-18.77H282.67c1.57-4.17,3-8.32,4.69-12.39,3.71-9.12,7.95-18,14.29-25.62a45.66,45.66,0,0,1,8.16-7.61c5-3.67,10.38-3.52,15.61-.13a38.16,38.16,0,0,1,10,10,97.15,97.15,0,0,1,8.05,13.67h17.63A136.46,136.46,0,0,0,353,26.05c-1.43-2.38-3-4.69-4.68-7.34a171.81,171.81,0,0,1,59.39,23.45h1.89l-.24,1.09a186.2,186.2,0,0,1,29.13,23.37c-4.63,0-9.17.12-13.71,0-6.82-.22-13.64-.63-20.46-.9l-4.16,18.52c7.36.26,14.73.51,22.09.82,9.5.4,19,1,28.5,1.49a29.7,29.7,0,0,1,4.54.42,3.87,3.87,0,0,1,2,1.49,192.51,192.51,0,0,1,28.2,54.66c1,2.95,1.83,5.94,2.71,8.92h13.88l-3.35,15.56-4.26,19.81c.47,8,1,16,.83,24-.16,8.66-1.39,17.3-2.24,25.94a1.93,1.93,0,0,1-1.4,1.22c-2.75.1-5.51.15-8.26.25l-2.34,10.84-1.73,8,10-.18c-2.82,8-5.35,16-8.38,23.74a187.52,187.52,0,0,1-23.28,41.95,4.28,4.28,0,0,1-3.7,2c-10.51.49-21,1.18-31.53,1.75q-9.13.5-18.26.79c-9.14.31-18.27.55-27.41.82H374.5a478.87,478.87,0,0,0,10.77-68.74h-16A445.32,445.32,0,0,1,358,329H345.23L341,347.76h11.52c-.87,2.46-1.72,4.93-2.64,7.38C346,365.37,341.6,375.31,335,384.08Zm13.55,9.14a3.26,3.26,0,0,1,.23-.74c9.17-13,15-27.53,19.72-42.55.68-2.15,1.64-2.75,3.8-2.8q20.65-.45,41.29-1.17c8-.27,16-.74,23.94-1.11.31,0,.61,0,1.51,0C413.29,370,383.52,386.37,348.51,393.22Zm62.63-6.8c.49-.31,1-.63,1.45-.92a192.05,192.05,0,0,0,47.58-40.27c1.88-2.2,4.08-2,6.28-2.19,9.73-.75,19.47-1.27,29.2-2s19.17-1.71,28.75-2.56c3.28-.3,6.55-.55,9.83-.82C496.57,362.39,455.09,377.47,411.14,386.42ZM609.06,255.25c-8.24,19.28-20.38,35.87-35,50.74-2.14,2.18-4.58,4.07-6.53,6.39-2.48,3-5.67,3.64-9.23,4-7,.63-14,1.47-21,2.16-5.92.59-11.85,1.09-17.77,1.63-6.62.6-13.24,1.23-19.87,1.79-5.49.46-11,.84-16.48,1.25l-6.6.47a212.8,212.8,0,0,0,28.76-66.58l104.45-3.78C609.58,253.92,609.34,254.6,609.06,255.25Zm7.51-23a2.25,2.25,0,0,1-2.52,2.1c-7,.22-13.95.51-20.92.8-11.28.47-22.56,1-33.84,1.42-7.73.31-15.47.57-23.21.83q-12.27.4-24.54.76c-.75,0-1.5,0-2.51,0a219.79,219.79,0,0,0,0-64.38c.84,0,1.52,0,2.2,0,15.66.51,31.32,1,47,1.55,12.67.45,25.35,1,38,1.5,5.89.24,11.78.56,17.68.75a2.36,2.36,0,0,1,2.65,2.19A125.07,125.07,0,0,1,616.57,232.25Z"/><path d="M409.62,42.16h-1.89c.56.35,1.1.73,1.65,1.09Z"/><polygon points="368.9 164.87 393.56 55.02 309.47 55.02 284.8 164.87 166.79 164.87 149.12 246.92 266.38 246.92 241.67 356.94 325.77 356.94 350.47 246.92 468.48 246.92 486.16 164.87 368.9 164.87"/><path class="cls-1" d="M356.81,206l-13.65,5.07c-4.68,1.73-9.36,3.48-14.06,5.15a2.8,2.8,0,0,0-1.87,1.87q-4.83,13.17-9.73,26.3c-.13.37-.27.74-.51,1.35-.52-1.37-1-2.53-1.41-3.7q-4.47-12.08-8.92-24.15a2.41,2.41,0,0,0-1.61-1.6q-13.19-4.83-26.33-9.72c-.41-.15-.8-.32-1.52-.61l4.29-1.6Q293.27,200,305,195.67a2.43,2.43,0,0,0,1.61-1.6q4.83-13.17,9.73-26.3c.17-.45.36-.89.63-1.56l7.45,20.07c1,2.57,1.94,5.13,2.83,7.72a2.49,2.49,0,0,0,1.7,1.69q12.93,4.73,25.83,9.51C355.36,205.4,355.89,205.62,356.81,206Z"/></g></g></svg>