<svg xmlns="http://www.w3.org/2000/svg" viewBox="0 0 706.81 240.79"><defs><style>.cls-1{fill:#231f20;}</style></defs><title>Asset 2</title><g id="Layer_2" data-name="Layer 2"><g id="Layer_1-2" data-name="Layer 1"><path class="cls-1" d="M541.29,58.1h-63.7L488.48,4.82H686.92L675.75,57.87,611,58.14l-38.5,178.91-68.08.31Z"/><path class="cls-1" d="M112.33,1.1c29-3.61,59.89,1.51,84.44,18,20.57,14.86,34.93,38.26,37.87,63.56,5,43.57-8,90.17-39.17,121.79-20.35,20.46-48.12,33.18-76.78,36-12.87.43-25.95.94-38.64-1.75-21.45-4.19-42.35-14.2-56.64-31.11A88.82,88.82,0,0,1,2.83,168.47C-.29,157-.14,145,.13,133.19c.19-16.78,4.2-33.26,9.5-49.1a141.39,141.39,0,0,1,30.13-48A126.31,126.31,0,0,1,112.33,1.1Zm4.47,54.76c-21.31,6-35,25.92-41.87,45.88-5.91,18.22-8.49,38.41-2.56,57,3.93,12.27,13.41,23.47,26.3,26.55,10.08,1.82,21,1.05,29.91-4.4,19-10.63,29.45-31.38,34.66-51.74,3.18-10.94,2.85-22.44,2.49-33.7-.92-13.63-7-27.63-18.72-35.36A37.74,37.74,0,0,0,116.8,55.86Z"/><path class="cls-1" d="M667.15,172.61c19.18-4.46,40.54,12.06,39.54,32.08,1.73,18.78-16.3,35.85-34.81,34.45-19.15-.27-35-19.67-31.46-38.5C642.15,186.82,653.6,175.26,667.15,172.61Z"/><path class="cls-1" d="M461.46,74.46c.42-20.27-8.74-40.82-25.11-53C419.61,9,398.4,4.21,377.82,4c-30-.14-60.06.1-90.09-.13L238.25,237.25c22.7,0,68.11-.2,68.11-.2s9.2-42.46,13.79-63.68c21.61-.66,43.57,1.67,64.83-3.26,21.06-4.64,41.62-14.72,55.72-31.39C455.56,121,462.21,97.37,461.46,74.46Zm-88.9,43.72c-12.91,6.66-27.89,4.06-41.84,4.39L345,55.51c12.07.49,25.08-1.91,36.2,4.07,8.37,4.33,12.24,14.19,11.59,23.24C393.49,97.23,385.54,111.69,372.56,118.18Z"/></g></g></svg>