<svg xmlns="http://www.w3.org/2000/svg" viewBox="0 0 367.5 108.98"><defs><style>.cls-1{fill:#231f20;}</style></defs><title>Asset 1</title><g id="Layer_2" data-name="Layer 2"><g id="Layer_1-2" data-name="Layer 1"><path class="cls-1" d="M51.64,109a214.92,214.92,0,0,1-50-5.87V87q28.46,7.16,50,7.16,19,0,26.67-1.89T86,86.1a4.51,4.51,0,0,0-1.82-3.58,12.39,12.39,0,0,0-5-2.24q-3.19-.73-6.59-1.19t-7.64-.84h-.41L33.11,75.36c-3.24-.26-6.15-.61-8.71-1a62.43,62.43,0,0,1-8.66-2.19,31.66,31.66,0,0,1-8-3.73,18.17,18.17,0,0,1-5.47-5.92A16.4,16.4,0,0,1,0,53.88Q0,43.13,13.36,37.61t39-5.52a265.42,265.42,0,0,1,49.51,4.68V52.18a253.75,253.75,0,0,0-49.3-5.37q-17.92,0-25,1.64t-7.09,5.13a4.24,4.24,0,0,0,.41,1.84,3.75,3.75,0,0,0,1.41,1.49c.68.43,1.32.81,1.93,1.14a10.55,10.55,0,0,0,2.63.9l2.84.64A26.13,26.13,0,0,0,33,60l3.13.3c.65.07,1.74.17,3.3.3l29.25,2.69q6.18.59,11.09,1.44a77.64,77.64,0,0,1,10.13,2.48,33.51,33.51,0,0,1,8.65,4,18.87,18.87,0,0,1,5.67,6.07,16.22,16.22,0,0,1,2.23,8.5q0,23.19-54.77,23.18"/><path class="cls-1" d="M320.83,109q-30.78,0-48.5-11.3t-17.72-29.2q.1-17.91,17.72-28.95t48.5-11a232.09,232.09,0,0,1,46,5V50.05q-25.52-4.78-46-4.79a114.71,114.71,0,0,0-17.67,1.25,61.43,61.43,0,0,0-14.28,3.91,23.4,23.4,0,0,0-9.82,7.23,17.34,17.34,0,0,0-3.49,10.83,17.82,17.82,0,0,0,6.17,13.85,35.71,35.71,0,0,0,16,7.81,102,102,0,0,0,22.88,2.29,203.36,203.36,0,0,0,28.56-2.29v-13H307.87V62.44H367.5v40.61A175.68,175.68,0,0,1,320.83,109"/><polygon class="cls-1" points="207.23 104.69 182.72 104.69 235.23 32.19 259.74 32.19 207.23 104.69"/><polygon class="cls-1" points="158.92 104.69 183.42 104.69 130.91 32.19 106.41 32.19 158.92 104.69"/><polygon class="cls-1" points="183.42 0 192.95 25.74 218.69 35.27 192.95 44.79 183.42 70.54 173.9 44.79 148.16 35.27 173.9 25.74 183.42 0"/></g></g></svg>