<svg xmlns="http://www.w3.org/2000/svg" viewBox="0 0 658 658"><defs><style>.cls-1{fill:#fff;}</style></defs><title>Asset 1</title><g id="Layer_2" data-name="Layer 2"><g id="Layer_1-2" data-name="Layer 1"><circle cx="329" cy="329" r="329"/><path class="cls-1" d="M244.18,441.75c.33-.41.67-.83,1-1.34a31.29,31.29,0,0,0,1.91-3.3l-2.39-5.73s-4.21,1.23-4.21-7.43S235.07,403.66,219,399.7c0,0,12.63,18.06,5,25.24s-27.71,4.45-22.52-26.23,5.2-34.65-6.43-48c0,0-11.39-10.15-1-11.63s16.83-3,1.73-35.39c0,0,2,14.6-1,14.11,0,0-4.95,2.72-7.92-3.47s-8.41-21-4.7-34.89a5.25,5.25,0,0,1,4.21-4.95c4.2-1,10.39-1.49,10.89-7.18S195.47,250,195.47,250s-2,10.15-4.45,8.66c0,0-5.2.49-4.45-16.09a126.48,126.48,0,0,1,7.29-36.68,4.71,4.71,0,0,1,1.34,2c3.42,8.37,3.8,11.79,5.33,7.23s7.61-25.5,16.36-33.11c0,0-5.71,1.52-14.84,16,0,0-5.35,9.76-5.75,1.79,6-13.64,15.5-27.2,30.6-36.42,0,0-46.27,14.36-55.68,70.78,0,0-2.72,9.9-7.42,10.64,0,0-14.85-1.24-6.44-20.29,0,0-19.55,19-6.68,44.54s14.6,49,6.93,55.93c0,0-14.35,7.67-19.3-4.7,0,0-7.43-15.59-4-32.17,0,0-18.31,44.79,5.94,75.23,0,0,18.06,17.32,19.55,3.22,0,0,2.72-23.26,20.54-8.17,0,0,10.22,10.46,3.79,20.36s-2.9,16.44-1.91,19.41,4.8,8.24,3.32,13.19c0,0-2,12.37-17.58,8.17,0,0-16.33-1-20.29-22.28,0,0-9.65,22.28,18.31,35.14s38.36,18.07,41.33,29.45c0,0,2.48,8.17.75,10.64,0,0-1.74,4-4.21,3.47,0,0-12.38.74-11.14-16.83,0,0-12.62,16.83,3.71,26.23s31.68,7.18,34.4,2,0-15.59,4.21-16.58c3.84-.9,10-2,16.07.83a111.42,111.42,0,0,1-5.71-13C241.13,446.34,241.75,444.7,244.18,441.75Z"/><path class="cls-1" d="M432.05,163.36c14.87,9.08,24.33,22.36,30.32,35.79-.14,9.09-5.76-1.16-5.76-1.16-9.14-14.46-14.84-16-14.84-16,8.75,7.61,14.84,28.54,16.36,33.11s1.9,1.14,5.32-7.23a4,4,0,0,1,1.59-2.17,126.94,126.94,0,0,1,7.35,36.83c.74,16.58-4.46,16.09-4.46,16.09-2.47,1.49-4.45-8.66-4.45-8.66s-2.23,11.63-1.73,17.32,6.68,6.19,10.88,7.18a5.25,5.25,0,0,1,4.21,4.95c3.71,13.86-1.73,28.7-4.7,34.89s-7.92,3.47-7.92,3.47c-3,.49-1-14.11-1-14.11-15.09,32.42-8.66,33.9,1.73,35.39s-1,11.63-1,11.63c-11.63,13.36-11.63,17.32-6.43,48S442.69,432.12,435,424.94s5-25.24,5-25.24c-16.09,4-21.53,15.59-21.53,24.25s-4.21,7.43-4.21,7.43l-2.81,6.74c.38.7.84,1.47,1.38,2.29.35.51.69.93,1,1.34,2.43,2.95,3.05,4.59-1.25,16.77a112.5,112.5,0,0,1-6,13.68c6.54-3.63,13.24-2.44,17.35-1.48s1.49,11.39,4.21,16.58,18.07,7.43,34.4-2,3.71-26.23,3.71-26.23c1.24,17.57-11.14,16.83-11.14,16.83-2.47.49-4.2-3.47-4.2-3.47-1.74-2.47.74-10.64.74-10.64,3-11.38,13.36-16.58,41.33-29.45s18.31-35.14,18.31-35.14c-4,21.29-20.29,22.28-20.29,22.28-15.59,4.2-17.57-8.17-17.57-8.17-1.49-4.95,2.32-10.22,3.31-13.19s4.53-9.51-1.9-19.41,3.78-20.36,3.78-20.36c17.82-15.09,20.54,8.17,20.54,8.17,1.49,14.1,19.55-3.22,19.55-3.22,24.26-30.44,5.94-75.23,5.94-75.23,3.47,16.58-4,32.17-4,32.17-4.95,12.37-19.3,4.7-19.3,4.7-7.67-6.93-5.94-30.44,6.93-55.93s-6.68-44.54-6.68-44.54c8.41,19-6.43,20.29-6.43,20.29-4.71-.74-7.43-10.64-7.43-10.64C478.33,177.72,432.05,163.36,432.05,163.36Z"/><path class="cls-1" d="M314.34,472.3a1.92,1.92,0,0,1-1.45-1.05,2.45,2.45,0,0,1-.15-.43,5.55,5.55,0,0,1-.72.05,9.2,9.2,0,0,1-2.86-.55c-.12,1.56-.54,3.63-1.9,4.37a9.56,9.56,0,0,0-1.84,1.91c-.25,3,3.19,9.39,4.76,11.72.42-1.08,1-2.88,1.39-4.31.55-1.81,1.11-3.68,1.71-5.32a11.44,11.44,0,0,1,3.91-5.39c-.46-.16-.89-.32-1.27-.47A15.07,15.07,0,0,0,314.34,472.3Z"/><path class="cls-1" d="M282.59,454.26c1.35-.67,3.14-1.63,3.16-1.64l.1.18c0-.54,0-1.05,0-1.55a15.23,15.23,0,0,1-1.41-2.38,29.14,29.14,0,0,0-2-3.36,1.84,1.84,0,0,1-1.27.76,2.26,2.26,0,0,1-1.89-1.1c-.62,1.15-1.5,2.53-2.24,3.7l-.15.23c-1,1.5-1.73,2.87-1.51,4.42.12.86,1.31,2.74,2.5,4.37a.09.09,0,0,0,0-.05c.29-2.3,2.27-2.84,3.58-3.2A6.44,6.44,0,0,0,282.59,454.26Z"/><path class="cls-1" d="M312.9,468.65l.09.23c0-.07.06-.14.08-.2V465c0-2.57-.54-11.5-.55-11.59v0a5.8,5.8,0,0,1-3-2c-2-2.47-3.49-3.43-4.16-3.5-.3,0-1.65,1.17-2.47,5.4-.55,2.88-1.86,9.61-.38,10.77C306.08,466.85,310.82,469.46,312.9,468.65Z"/><path class="cls-1" d="M288,454.19c.07,2,.33,2.58.47,2.75s.39.13,1,.13c1.26,0,5.05-1.82,6.08-3.3.49-.7.38-1.08.14-1.92a6.2,6.2,0,0,1-.32-2.28,26.13,26.13,0,0,1,.71-3.94,16,16,0,0,1-6-3.17l-.53-.39a2,2,0,0,0-1.25,1.21C288,444,287.7,446.38,288,454.19Z"/><path class="cls-1" d="M286.41,442.42a4.25,4.25,0,0,1,1.85-2.06,21.27,21.27,0,0,0-2.11-2.93,13.66,13.66,0,0,0-1.42-1.49c-.51,2.44-1.24,6.2-1.32,7.65a12.23,12.23,0,0,1,2.39,3.49A13.78,13.78,0,0,1,286.41,442.42Z"/><path class="cls-1" d="M306.27,472.86c.47-.25.8-1.9.84-3.4a34,34,0,0,1-5.28-3.31,83.51,83.51,0,0,0-6.68,6.82l.41.11c-.52,1.89,1.79,9.85,2.71,12C298.79,481.55,304.48,473.84,306.27,472.86Z"/><path class="cls-1" d="M280.3,443.13c.2.26.44.59.63.82a1.79,1.79,0,0,1,.4-.48,87.84,87.84,0,0,1,1.54-8.78l-.41-.27A10,10,0,0,1,280,432a30,30,0,0,0-1.5,4.86,4.9,4.9,0,0,1-.56,1.78c-.44.95-.61,1.31.38,2.23A16.18,16.18,0,0,1,280.3,443.13Z"/><path class="cls-1" d="M308.57,411.58a5.42,5.42,0,0,0,1.11,2.09l-.85-7.49C307.89,407.45,307.38,407.83,308.57,411.58Z"/><path class="cls-1" d="M285.93,454.88l-2.41,1.25a8.89,8.89,0,0,1-1.53.52c-1.39.38-2,.62-2.06,1.45a8.72,8.72,0,0,1-.47,1.91c-.21.6-.27.76.12,1.73a52.05,52.05,0,0,1,1.63,5.25l.62-.05,5.17-4,.06.09c.31-1.67.65-3.09.93-4.07C286.75,458.64,286.1,457.6,285.93,454.88Z"/><path class="cls-1" d="M310.86,404.1l-.35.13v10.14a17.69,17.69,0,0,0,2,1L311.21,404Z"/><path class="cls-1" d="M313.14,403.47v12.22a12,12,0,0,1,2.21,1.48l-1.56-13.76C313.56,403.42,313.35,403.44,313.14,403.47Z"/><path class="cls-1" d="M300.43,464.67a5.91,5.91,0,0,1-.56-2l-.79-.33a38.62,38.62,0,0,0-6.19-2.25,15.31,15.31,0,0,1-2.87-.74c-.86,2.8-2.74,12.31-1.12,17.47C292.63,472.56,297.85,466.75,300.43,464.67Z"/><path class="cls-1" d="M301.33,482.72c-.23.44-.43.86-.59,1.25C301,483.58,301.12,483.2,301.33,482.72Z"/><path class="cls-1" d="M315.78,403.49v14.06l.07.07c.9.85,1.74,1.74,2.48,2.59l-1.89-16.59A4,4,0,0,0,315.78,403.49Z"/><path class="cls-1" d="M416.13,279.23l9-7.46a.42.42,0,0,0-.22,0s-.28-1.66.55-8-.27-4.16-2.49-3.33-3.33,5-5.82,8.05c-2.08,2.54-8.58,14.88-10.7,18.94.74-.35,1.92-1.2,4.83-3.83C415.71,279.51,416.13,279.23,416.13,279.23Z"/><path class="cls-1" d="M342.15,417.62l.07-.07V403.49a4,4,0,0,0-.66.13l-1.89,16.59C340.41,419.36,341.25,418.47,342.15,417.62Z"/><path class="cls-1" d="M347.49,404.23l-.34-.13-.36-.14-1.3,11.42a17.69,17.69,0,0,0,2-1Z"/><path class="cls-1" d="M344.86,403.47c-.21,0-.42-.05-.65-.06l-1.56,13.76a12,12,0,0,1,2.21-1.48Z"/><path class="cls-1" d="M349.17,406.18l-.85,7.49a5.42,5.42,0,0,0,1.11-2.09C350.62,407.83,350.11,407.45,349.17,406.18Z"/><path class="cls-1" d="M377.07,444c.19-.23.43-.56.63-.82a16.18,16.18,0,0,1,1.94-2.28c1-.92.82-1.28.38-2.23a5.1,5.1,0,0,1-.56-1.78A30,30,0,0,0,378,432a9.78,9.78,0,0,1-2.42,2.44l-.41.27a87.84,87.84,0,0,1,1.54,8.78A1.79,1.79,0,0,1,377.07,444Z"/><path class="cls-1" d="M351.76,466.62l.49-.31A1.34,1.34,0,0,0,351.76,466.62Z"/><path class="cls-1" d="M338.26,474.2l0-.12-.41.1a2.47,2.47,0,0,0,.42.53l-4.68.62a8,8,0,0,0,1-.7l-.36,0a10.28,10.28,0,0,1-2.28-.25h-1.3c-.07,2.17-.19,4.21-.35,5.92-.11,1.29-.23,2.39-.34,3.23h.85v.06c.87-.1,2.09,1.23,2.62,1.85l3.62,3.11c.58,0,1.87,0,2-.86.29-1.41.15-8.47,0-13.07A4.61,4.61,0,0,0,338.26,474.2Z"/><path class="cls-1" d="M343.24,470.27a2.56,2.56,0,0,0-.27-.86l-.12-.23V465c0-2.41.44-9.9.54-11.44a5.26,5.26,0,0,0-1.8-2.07,13,13,0,0,1-2.07-1.58c-.9-.78-2.27-1.95-2.9-1.9s-3.25,3-5.48,6.09h0a3.19,3.19,0,0,1-.29.37v.07h-.06c-.1.09-.18.12-.23.07a.18.18,0,0,1-.05-.07h-.61c0,.1,0,.21.05.32.11.87.26,2.11.39,3.6.27,3,.44,6.95.44,10.92,0,1,0,1.95,0,2.91h.76a2.32,2.32,0,0,1,1.45.15,10.47,10.47,0,0,0,3.48-.11.73.73,0,0,0,.1-.25c.11-.52,0-1.67.31-3.75s.94-13.31.94-13.31.1,7.49.21,8.53a27.69,27.69,0,0,1,.73,3.95c0,1.56.1,2.29,0,3.33a8.11,8.11,0,0,1-.17,1c1.05-.31,2-.67,2.8-1A14.36,14.36,0,0,1,343.24,470.27Z"/><path class="cls-1" d="M345.1,468.65a5.17,5.17,0,0,0,3.37-.4,4.24,4.24,0,0,0,1-3c-.21-1.66-.83-2.18-.42-3.74s.21-.11.11-2.91-.52-4.58-1.77-3.85a7.43,7.43,0,0,0,1.56-1.77c.62-1,.62-.31,1.45-1.25s1.15.83,1.25,2,.63,1.66.94,3.22.73,3.23.83,4.06a9.38,9.38,0,0,1,.1,2.6c-.07,1,0,1.58,0,2,.69-.47,1.36-1,2-1.46,1.48-1.16.17-7.89-.38-10.77-.82-4.23-2.17-5.44-2.47-5.4-.67.07-2.16,1-4.16,3.5a5.8,5.8,0,0,1-3,2v0c0,.09-.55,9-.55,11.59v3.64c0,.06.05.13.08.2Z"/><path class="cls-1" d="M362.49,453.77a10.83,10.83,0,0,0,4.13,2.75,13.31,13.31,0,0,1-.23-1.68c-.1-1.66.94-4.47-.83-4.89a20.92,20.92,0,0,1-2.94-.9c0,.18,0,.35.05.52a6,6,0,0,1-.32,2.28C362.11,452.69,362,453.07,362.49,453.77Z"/><path class="cls-1" d="M378.08,458.1c-.11-.83-.68-1.07-2.07-1.45a8.89,8.89,0,0,1-1.53-.52l-2.41-1.25c-.17,2.72-.82,3.76-2.06,4.11.28,1,.62,2.4.93,4.07L371,463l5.16,4,.62.05a52.05,52.05,0,0,1,1.63-5.25c.39-1,.33-1.13.12-1.73A8.28,8.28,0,0,1,378.08,458.1Z"/><path class="cls-1" d="M350.74,474.69c-1.36-.74-1.78-2.81-1.9-4.37a9.2,9.2,0,0,1-2.86.55,5.55,5.55,0,0,1-.72-.05,2.45,2.45,0,0,1-.15.43,1.92,1.92,0,0,1-1.45,1.05,15.07,15.07,0,0,0-1.58.53l-1.26.47a11.58,11.58,0,0,1,3.91,5.39c.59,1.64,1.16,3.51,1.7,5.32.43,1.43,1,3.23,1.39,4.31,1.57-2.33,5-8.67,4.76-11.72A9.56,9.56,0,0,0,350.74,474.69Z"/><path class="cls-1" d="M381,448.87c-.74-1.17-1.62-2.55-2.23-3.7a2.28,2.28,0,0,1-1.9,1.1,1.82,1.82,0,0,1-1.27-.76,11.56,11.56,0,0,0-.85,1.29c-.13,1.18,1.32,1.28,1.84,1.91a21,21,0,0,1,1.56,3.22,4.34,4.34,0,0,1,.94,1.66,7.43,7.43,0,0,1,.06,2.25,3.09,3.09,0,0,1,1,2,.09.09,0,0,0,0,.05c1.19-1.63,2.38-3.51,2.5-4.37.22-1.55-.55-2.92-1.51-4.42Z"/><path class="cls-1" d="M363.48,448.08l.47-.29a14.36,14.36,0,0,0,1.61-1.16,5.72,5.72,0,0,1,1.77-1s-.32.2-.21,1.66.52,1,.41,3.33a18.57,18.57,0,0,0-.1,3.12,22.38,22.38,0,0,1-.15,3.08,4.51,4.51,0,0,0,1.29.29c.59,0,.88,0,1-.13s.4-.76.48-2.75c.27-7.81,0-10.24-.33-10.91a2,2,0,0,0-1.25-1.21l-.53.39a16,16,0,0,1-6,3.17,30.09,30.09,0,0,1,.65,3.32Z"/><path class="cls-1" d="M357.34,484.17a14.2,14.2,0,0,0-.88-1.83A16.69,16.69,0,0,0,357.34,484.17Z"/><path class="cls-1" d="M356.17,466.15a34,34,0,0,1-5.28,3.31c0,1.63.4,3.16.84,3.4,1.79,1,7.48,8.69,8,12.23.92-2.16,3.23-10.12,2.71-12l.42-.11A83.09,83.09,0,0,0,356.17,466.15Z"/><path class="cls-1" d="M365.11,460.11a38.62,38.62,0,0,0-6.19,2.25l-.79.33a5.69,5.69,0,0,1-.56,2,113.26,113.26,0,0,1,9.7,10.09c-.17-1.13-.76-4.6-1.71-5.46-1.15-1-.31-1-2.4-2.29a12.44,12.44,0,0,0-3.74-1.56s-.52-1.46.83-1.15l5-1s.72.31.62.72.21.73.42,1.77,1,6.79,1,9.05c.62.7,1.22,1.38,1.78,2,1.63-5.16-.26-14.67-1.12-17.47A15.1,15.1,0,0,1,365.11,460.11Z"/><path class="cls-1" d="M372.15,452.8l.1-.18s1.81,1,3.16,1.64a6.73,6.73,0,0,0,1.15.38,8.12,8.12,0,0,1,1.93.73,4.1,4.1,0,0,0-1.28-2.19c-1.15-.63-2-1.14-3-.83a7.18,7.18,0,0,1-2,.22C372.16,452.65,372.15,452.72,372.15,452.8Z"/><path class="cls-1" d="M371.59,442.42a13.78,13.78,0,0,1,.61,4.66,12.23,12.23,0,0,1,2.39-3.49c-.08-1.45-.81-5.21-1.32-7.65a13.66,13.66,0,0,0-1.42,1.49,22.16,22.16,0,0,0-2.11,2.93A4.25,4.25,0,0,1,371.59,442.42Z"/><path class="cls-1" d="M411.25,443.86a19.56,19.56,0,0,1-1.22-1.61,27.62,27.62,0,0,1-3.54-7.12l-.07-.25v-.26c0-.86.62-17.74,2.53-27.39-10,11.28-3,23.17-4.61,39.71C402.68,464.41,390.62,485,390.62,485c4.52-9.78,7.2-27.94,8-39.21-.83,4.14-1.83,8.47-3,12.24,0,0,1.82-10.08,3.21-18.7a18.54,18.54,0,0,0-.14-2.28,162.26,162.26,0,0,1-4.34,19.71S396.64,444,398,434.92c-.11-.32-.23-.63-.34-1a172.56,172.56,0,0,1-4.64,21.54s2.58-14.28,3.93-23.37c-.11-.29-.23-.58-.34-.86a177.32,177.32,0,0,1-4.87,23s2.84-15.67,4.13-24.63l-.36-.75a181.89,181.89,0,0,1-5,24.11s3.05-16.83,4.26-25.58c-.12-.22-.25-.43-.37-.64-.82,5.66-2.61,16.64-5.16,24.94,0,0,3.2-17.65,4.34-26.2-.08-.13-.17-.25-.26-.38l-.12-.17c-.78,5.48-2.6,16.91-5.23,25.48,0,0,3.5-19.35,4.49-27.35-.13-.73-.1-1.4-.18-2-.41,3.16-2.4,17.7-5.58,28.06,0,0,4.32-23.86,4.71-29.54a3.69,3.69,0,0,0-.35-.19c-.25,2-2.29,17.55-5.63,28.46,0,0,4-22,4.64-28.79l-.39-.08c-.52,3.92-2.48,17.67-5.53,27.6,0,0,3.62-20,4.54-27.74l-.43,0c-.69,5-2.57,17.36-5.38,26.49,0,0,3.25-18,4.37-26.43-4,.65-5.35,5.82-5.55,6.71,2.91-13.81,6.84-15.47,8.71-16.72,1.35-.9,14.49-6.23,21.71-9.14,2.81-2.89,7.47-4.45,11.38-5.76,2.56-.86,5.45-1.83,6.14-2.74,1.15-1.54,1.59-3.78,2-5.94a14.46,14.46,0,0,1,1.68-5.21c1.37-2.06,3.38-1.89,4.72-1.78s1.88.12,2.56-.56c.38-.48.77-3.51-.51-9.71a48.85,48.85,0,0,0-4.74-13.64c-4.68-7.95-2.49-20.43,5.86-33.36,7.29-11.31,2.91-15.23,2.86-15.26l-.3-.24-.17-.35c-9.11-19-2-49.25-1.39-51.75,3.14-33.15-5.32-56.26-13-69.82-8.06-14.28-16.94-21.25-17.54-21.72a34.25,34.25,0,0,0-6.32-4.86,1.45,1.45,0,0,0-.58-.54l-.15-.07c0-.17,0-.33-.07-.49-17.88-13.49-39.26-19.11-54.88-21.42a168.83,168.83,0,0,0-20.66-1.75,168.19,168.19,0,0,0-20.84,1.76c-17.68,2.63-42.73,9.49-61.74,27.22l-.14.12c-.09.07-9.27,7-17.58,21.75-7.65,13.56-16.11,36.67-13,69.82.62,2.5,7.72,32.71-1.39,51.75l-.17.35-.3.24s-4.4,4,2.86,15.26c8.35,12.93,10.54,25.41,5.86,33.36A49.17,49.17,0,0,0,217.9,368c-1.28,6.2-.88,9.23-.49,9.73.66.66,1.33.64,2.54.54s3.35-.28,4.72,1.78a14.46,14.46,0,0,1,1.68,5.21c.42,2.16.86,4.4,2,5.94.68.91,3.57,1.88,6.13,2.74,3.91,1.31,8.57,2.87,11.38,5.76,7.22,2.91,20.36,8.24,21.71,9.14,1.87,1.25,5.8,2.91,8.71,16.72-.2-.89-1.54-6.06-5.55-6.71,1.12,8.47,4.37,26.43,4.37,26.43-2.81-9.13-4.69-21.53-5.38-26.49l-.43,0c.92,7.73,4.54,27.74,4.54,27.74-3.05-9.93-5-23.68-5.53-27.6l-.39.08c.66,6.77,4.65,28.79,4.65,28.79-3.35-10.91-5.39-26.45-5.64-28.46a3.69,3.69,0,0,0-.35.19c.39,5.68,4.71,29.54,4.71,29.54-3.18-10.36-5.17-24.9-5.58-28.06-.08.58-.05,1.25-.18,2,1,8,4.49,27.35,4.49,27.35-2.63-8.57-4.45-20-5.23-25.48l-.12.17-.26.38c1.14,8.55,4.34,26.2,4.34,26.2-2.55-8.3-4.34-19.28-5.16-24.94-.12.21-.25.42-.37.64,1.21,8.75,4.26,25.58,4.26,25.58a180.12,180.12,0,0,1-5-24.11c-.13.25-.25.5-.37.75,1.29,9,4.13,24.63,4.13,24.63a175.52,175.52,0,0,1-4.86-23c-.12.28-.24.57-.35.86,1.35,9.09,3.93,23.37,3.93,23.37A170.67,170.67,0,0,1,260.31,434l-.35,1c1.4,9.08,3.71,21.85,3.71,21.85a162.26,162.26,0,0,1-4.34-19.71,18.54,18.54,0,0,0-.14,2.28c1.39,8.62,3.21,18.7,3.21,18.7-1.16-3.77-2.16-8.1-3-12.24.77,11.27,3.45,29.43,8,39.21,0,0-12.06-20.6-13.72-38.07-1.58-16.54,5.43-28.43-4.61-39.71,1.91,9.65,2.5,26.53,2.53,27.39v.26l-.08.25a27.62,27.62,0,0,1-3.54,7.12,17.55,17.55,0,0,1-1.22,1.61c-1.42,1.73-2.07,2.52,1.82,13.55,4.87,13.8,16.44,32.29,20.9,34.89,4.62,2.7,6.08,5.83,7.62,9.15.3.63.6,1.28.93,1.95s.82,1.73,1.4,3.06a125.38,125.38,0,0,0,6.38,12.83c3.74,6.22,6,7.25,7.06,7.32,5.67.35,29.16.09,35.38,0v0h1.52v0c6.22.07,29.71.33,35.38,0,1-.07,3.32-1.1,7.06-7.32a123.35,123.35,0,0,0,6.38-12.83c.58-1.33,1.05-2.37,1.4-3.06s.63-1.32.93-1.95c1.54-3.32,3-6.45,7.62-9.15s16-21.09,20.9-34.89C413.32,446.38,412.67,445.59,411.25,443.86ZM387.57,397.1c19,2.07,28.28-5.55,28.28-5.55C401,404.17,387.57,397.1,387.57,397.1Zm46.31-31.48s-10.4,12.27-12.69,18.3-20.8,13.31-39.1,10.61c-4.77-.71-8.23-.08-10.71,1.29a17.21,17.21,0,0,1,2.11-.74,27.43,27.43,0,0,0-4.34,2.4,11.68,11.68,0,0,0-2.81,4.65,18.48,18.48,0,0,1,8.75-5.45c-5.52,2.44-8.2,5.43-9.41,8.22a20.75,20.75,0,0,0-.17,4.1c1.39-8.25,11.17-10.73,11.17-10.73-8.42,3.74-10.24,8.75-10.26,12.34.19.23.39.46.58.7.94-8.83,11.27-11.44,11.27-11.44-8.7,3.86-10.35,9.08-10.25,12.7.18.24.37.48.55.73.66-9.14,11.3-11.84,11.3-11.84-9.27,4.11-10.54,9.77-10.22,13.39.17.25.33.49.48.73.16-9.7,11.33-12.52,11.33-12.52-10.61,4.7-10.74,11.44-10,14.81,3,5.71,1.88,8.27,1.88,8.27a17.19,17.19,0,0,0-8.73-11.64c-16.44-12.69-8.32-35.15-8.32-35.15a73.13,73.13,0,0,0,.45,12.14c1.09-3.67,4.71-10.51,16.39-8.82C389,385,407.88,388.5,416.2,380A106.58,106.58,0,0,1,433.88,365.62ZM432,328.18a4.85,4.85,0,0,1-.21,4.37c-5.2,8.94-1,25-1,25-6.45-12.28-2.71-24.34-2.91-28.71s-2.71-3.53-5.41-9.36-2.5-4.78-6.24-7.9,1.66-11.65,1.66-11.65c-.83,11,1.46,8.32,3.54,10.61s2.5,2.91,5,7.07,1.66,3.74,3.74,2.5,5.21-8.74,5.21-8.74C435.13,313,431,325.68,432,328.18Zm-87.36,4.16a29.5,29.5,0,0,0,2.91-6.24c-.69,8.49-.77,12.17-.34,14.15,2,1.72,8.4,6.09,15.73,1.66l5.95-3.63a42.53,42.53,0,0,1,4.45-4.28c1.87-1.25,4.16-2.08,5.2-5a58.13,58.13,0,0,1,4.79-9.57s-2.08-.21-6.87,1.67a79.66,79.66,0,0,0-9.77,4.16,18.36,18.36,0,0,1-6.66,1.87s9.15-5.41,12.06-6.86l5.41-2.71c1.25-.62,2.71,0,5.2-1.66s2.71-1.25,5.41-2.91,4.37-1.25,5.41-4c.44-1.14,1.72-4.71,3.07-8.47l.95-6.78s-4,1.66-9.57,4.3-8.87,5.27-16.08,8.87-7.07,2.36-9.43,3.47-6.24,3.61-6.24,3.61,2.91-2.78,4.3-3.89,3.74-1,6-2.08,32.58-19,33.28-19.27,2.35-1.67,3.19-1.94,1.52,1.11,2.49.83c.26-.07.47-.12.73-.21,1.52-4.46,6.85-20.17,7.08-21.84.28-1.94,2.5-8.6,3.05-10.54s3.61-6.1,5-7.76,1.95-3.33,2.22-7.49,1.67-5.55,5-14.7-2.22-31.06-2.22-31.06c11.09,18,10,48.54,6.38,67.67s1.11,37.44,1.11,37.44a35.16,35.16,0,0,1,1.38,12.2s-4.71-9.43-6.38-14.7-2.77-6.1-2.49-10,.55-9.71,0-12.48a6.77,6.77,0,0,0-.61-1.88c-.37.32-.7.59-1,.77-1.67,1.11-11.37,10.26-14.56,13.59s-5.55,4.3-6.24,5.27-2.91,5.82-2.91,5.82l.13-8.32-1.37,3.22c-.84,3.77-2.28,10.12-2.72,11.13-.62,1.46-.62,5-1.87,6.45a42.8,42.8,0,0,0-3.12,4.16c-.83,1.25-1.87,3.75-3.53,5.62s-3.12,2.91-5,6.86c-.6,1.28-1.1,2.34-1.51,3.27,8-4.92,15-9.3,15-9.3a26.29,26.29,0,0,1,21,.83,34.18,34.18,0,0,0-5.76.09c2.41,2.65,19.5,23.14-3.39,48.17a59.3,59.3,0,0,0,4.53-13.82c-6.22,7.86-19,11.09-31.36,10.12,7,5,20,5.57,20,5.57-17,.6-28.08-5.08-32.95-8.29-.92-.34-1.83-.7-2.71-1.09,5.32,7.16,16.31,13.54,16.31,13.54-15-3.78-24.43-15.91-28.15-21.57A54.92,54.92,0,0,1,356.3,366c-2.5-9.15-6-15-11.23-20.59S342.36,336.29,344.65,332.34Zm5.82,40.77c-3.32-11.44-7.9-15.4-7.9-15.4s3.54-.41,7.07,4.58S350.47,373.11,350.47,373.11Zm-13.1-36.82,2.91,17.89S334,345,337.37,336.29Zm-10,30.16h8.73s2.5.42,3.95,3.95,7.7,21,10.4,24.34,3.12,1.45,3.54,5,.21,11.23-2.29,13.73l-.84.86,0,.32-.47.22c-1.4,1.47-2.32,2.35-6.55,4.63-5.41,2.91-13.31,20.59-13.31,20.59s2.91-10.82,5.61-15.18a42.54,42.54,0,0,1,3.47-4.59V404.1c-.2,0-.43-.06-.71-.11L337,421V403.69l-.67-.05-2,17.31V403.61l-.67,0-2,17.32V403.7l-.68,0L329.05,421V403.88l-.05-1.1-.05,1.1V421L327,403.74l-.68,0V421l-2-17.32-.67,0V421l-2-17.31-.67.05V421l-1.93-17c-.28.05-.51.09-.71.11v16.21a42.54,42.54,0,0,1,3.47,4.59c2.7,4.36,5.62,15.18,5.62,15.18s-7.91-17.68-13.32-20.59c-4.23-2.28-5.15-3.16-6.55-4.63l-.47-.22,0-.32c-.25-.26-.52-.55-.84-.86-2.5-2.5-2.7-10.19-2.29-13.73s.83-1.67,3.54-5,8.94-20.8,10.4-24.34,3.95-3.95,3.95-3.95Zm20.79,76c-5.82-9.85-4.89-14.21-4.57-13.59C347.63,436.75,348.18,442.44,348.18,442.44Zm-38.36,0s.55-5.69,4.57-13.59C314.71,428.23,315.64,432.59,309.82,442.44Zm-1.46-80.15c3.54-5,7.07-4.58,7.07-4.58s-4.57,4-7.9,15.4C307.53,373.11,304.82,367.28,308.36,362.29Zm12.27-26c3.33,8.74-2.91,17.89-2.91,17.89Zm-46.17-9.36c-1.87-3.95-3.33-5-5-6.86s-2.7-4.37-3.53-5.62a42.8,42.8,0,0,0-3.12-4.16c-1.25-1.45-1.25-5-1.87-6.45s-3.33-13.93-3.33-13.93,5.82,16.43,6.86,19.13,2.71,2.29,5.41,4,2.91,1.24,5.41,2.91,3.95,1,5.2,1.66l5.41,2.71c2.91,1.45,12.06,6.86,12.06,6.86a18.36,18.36,0,0,1-6.66-1.87,79.66,79.66,0,0,0-9.77-4.16c-4.79-1.88-6.87-1.67-6.87-1.67a58.13,58.13,0,0,1,4.79,9.57c1,2.91,3.33,3.74,5.2,5a42.53,42.53,0,0,1,4.45,4.28l5.95,3.63c7.33,4.43,13.68.06,15.73-1.66.43-2,.35-5.66-.34-14.15a29.5,29.5,0,0,0,2.91,6.24c2.29,4,4.79,7.49-.41,13.1A45.78,45.78,0,0,0,301.7,366a54.57,54.57,0,0,1,1.75-11.58c-3.72,5.66-13.2,17.79-28.16,21.57,0,0,11-6.38,16.31-13.54-.88.39-1.78.75-2.71,1.09-4.87,3.21-16,8.89-32.95,8.29,0,0,13-.56,20-5.57-12.32,1-25.14-2.26-31.36-10.12A59.3,59.3,0,0,0,249.08,370c-22.89-25-5.8-45.52-3.39-48.17a34.18,34.18,0,0,0-5.76-.09,26.28,26.28,0,0,1,21-.83s7.06,4.38,15,9.3C275.56,329.27,275.06,328.21,274.46,326.93ZM221.17,299.2s4.71-18.31,1.11-37.44-4.72-49.64,6.38-67.67c0,0-5.55,21.91-2.22,31.06s4.71,10.54,5,14.7.83,5.83,2.22,7.49,4.44,5.82,5,7.76,2.77,8.6,3.05,10.54,7.49,23,7.49,23-8.87-17.19-11.37-20.24-3.61-7.22-5.82-8.05-3.33-3.05-2.5,3.33.55,8,.55,8-.83-.27-1.38,2.5-.28,8.6,0,12.48-.83,4.71-2.5,10-6.38,14.7-6.38,14.7A35.32,35.32,0,0,1,221.17,299.2Zm1.5,12.13s3.12,7.49,5.2,8.74,1.24,1.66,3.74-2.5,2.91-4.78,5-7.07,4.37.42,3.54-10.61c0,0,5.41,8.53,1.66,11.65s-3.53,2.08-6.24,7.9-5.2,5-5.41,9.36,3.54,16.43-2.91,28.71c0,0,4.16-16-1-25a4.85,4.85,0,0,1-.21-4.37C227,325.68,222.87,313,222.67,311.33Zm19.48,80.22s9.29,7.62,28.29,5.55C270.44,397.1,257,404.17,242.15,391.55Zm33.76,3c-18.3,2.7-36.81-4.58-39.1-10.61s-12.69-18.3-12.69-18.3A106.58,106.58,0,0,1,241.8,380c8.32,8.53,27.25,5,43.06,2.7,11.69-1.69,15.3,5.15,16.39,8.82a72.05,72.05,0,0,0,.45-12.14s8.12,22.46-8.32,35.15a17.19,17.19,0,0,0-8.73,11.64s-1.13-2.56,1.88-8.27c.75-3.37.62-10.11-10-14.81,0,0,11.17,2.82,11.33,12.52.15-.24.31-.48.48-.73.32-3.62-.94-9.28-10.22-13.39,0,0,10.64,2.7,11.3,11.84.18-.25.37-.49.55-.73.11-3.62-1.55-8.84-10.25-12.7,0,0,10.34,2.61,11.27,11.44.19-.24.39-.47.58-.7,0-3.59-1.84-8.6-10.26-12.34,0,0,9.78,2.48,11.17,10.73a20.75,20.75,0,0,0-.17-4.1c-1.21-2.79-3.89-5.78-9.4-8.22a18.47,18.47,0,0,1,8.74,5.45,11.68,11.68,0,0,0-2.81-4.65,27.43,27.43,0,0,0-4.34-2.4,16.57,16.57,0,0,1,2.11.74C284.14,394.45,280.68,393.82,275.91,394.53Zm99.73,108.16c-3.54,6.44-5,16-7.49,18.51s-1.66,3.12-5,3.33c-2.58.16-24.27.07-33.9,0s-31.33.14-33.91,0c-3.32-.21-2.49-.84-5-3.33s-3.95-12.07-7.49-18.51a51.21,51.21,0,0,0-6.44-9.57c6.24,5.2,15.39,18.09,17.47,21.21s7.49,2.5,12.89,1.25,6.24.62,11.86,2.29a26.61,26.61,0,0,0,5.73,1.2l.43.16.22.08.3.07.23.06.34.06.21,0,.58.05a1.25,1.25,0,0,0,.63-.11,9.19,9.19,0,0,0,2-.05l.55.11.2,0,.36,0H331l.28,0h.28l.3,0,.25,0,.32-.06.23-.05.32-.08.23-.06.31-.1.3-.11v0a25.25,25.25,0,0,0,6-1.22c5.61-1.67,6.44-3.54,11.85-2.29s10.82,1.87,12.9-1.25,11.23-16,17.47-21.21A51.49,51.49,0,0,0,375.64,502.69Zm9.07-48.87c-.28,2-3,5.56-3.94,6.68a4.37,4.37,0,0,1-.42,2,59.91,59.91,0,0,0-1.76,5.83l0,.18c.3.27,0,.66.16,1.23s2.72,2.42-1.86,14.57c1.11-3.23,2.51-9.1-.09-13a29.68,29.68,0,0,1-4.85-2.64l-.24-.2c.32,4,.13,8.24-1.36,10.84l-.72,1.28-.16-.18c.18,1.47,1.62,2.33.12,5.32s-4.43,13.73-4.43,13.73,1.24-9.57,1.38-11a22,22,0,0,0-.27-5.82,5.81,5.81,0,0,0-1.39-3.33c-.58-.82-.29-1.53-.59-2.49a55,55,0,0,1-2.78,9.47,1.84,1.84,0,0,1-1.51,1.13h-.11a1.77,1.77,0,0,1-.83-.22h0c-.14,1.11-1.39,1.39-1.67,2.5s-5.55,20.66-5.55,20.66,2.36-16.64,2.36-18.72.14-2.22-.69-4c-.47-1-.93-2.07-1.25-2.79-1.5,3.08-3.25,5.72-4,6.08a1.26,1.26,0,0,1-.54.13,1.16,1.16,0,0,1-.48-.11c-.56-.23-.94-.81-1.5-2.35a8.9,8.9,0,0,0-.57,2.09c-.56,2.77-3.05,15.39-3.05,15.39s-.77-12.21-1-17.58c-.56,1.71-2.41,2.16-3.77,2.16a5.54,5.54,0,0,1-.75-.05l-.31,0-5.76-4.94h-2.94l-5.76,4.94-.3,0a5.78,5.78,0,0,1-.75.05c-1.39,0-3.29-.47-3.81-2.27-.25,5.31-1,17.69-1,17.69l-3.05-15.39a10.44,10.44,0,0,0-.55-2.05c-.55,1.51-.94,2.08-1.48,2.31a1.24,1.24,0,0,1-.49.11,1.26,1.26,0,0,1-.54-.13c-.73-.36-2.49-3-4-6.12-.32.73-.8,1.8-1.27,2.83-.84,1.8-.7,1.94-.7,4s2.36,18.72,2.36,18.72-5.27-19.55-5.55-20.66-1.52-1.38-1.66-2.49a1.79,1.79,0,0,1-.8.2h-.1a1.84,1.84,0,0,1-1.52-1.13,55.24,55.24,0,0,1-2.79-9.54c-.35,1,0,1.72-.61,2.56a5.68,5.68,0,0,0-1.39,3.33,21.63,21.63,0,0,0-.28,5.82c.14,1.39,1.39,11,1.39,11s-2.91-10.68-4.44-13.73-.09-3.83.12-5.27l-.11.13-.73-1.28c-1.5-2.61-1.68-6.84-1.35-10.88l-.29.24a29.68,29.68,0,0,1-4.85,2.64c-2.59,3.94-1.19,9.81-.09,13-4.57-12.15-2-13.91-1.85-14.57s-.17-1,.18-1.25l0-.16a59.91,59.91,0,0,0-1.76-5.83,4.37,4.37,0,0,1-.42-2c-.89-1.12-3.66-4.71-3.94-6.68-.32-2.25.72-4.12,1.81-5.84l.15-.23a40.35,40.35,0,0,0,2.55-4.35l.13.06a10.25,10.25,0,0,0-1-1.1,3.43,3.43,0,0,1-.83-4.62,3.69,3.69,0,0,0,.37-1.07c.15-1.77,2.2-6.93,2.43-7.52l1-2.44.95,2.46a8.85,8.85,0,0,0,2.81,3.53c.56.39,1,.65,1.3.86l.6.39A50.42,50.42,0,0,1,289,430.1a47.71,47.71,0,0,1,4.57-4.44c3.47-3.05,8-14.42,8-14.42-.27,9.57-6.65,15.53-9.15,19.27s-1.25,2.78-1.94,6.8a10.16,10.16,0,0,0-.17,2.53l.25.44.72.53a14.87,14.87,0,0,0,4.84,2.7.57.57,0,0,1,.05-.38c.27-.42,2.21-1.94,4.16-4.16s1.24-2.77,1.11-3.6,1.1-1.11,3.46-3.19-1.11-1.11.56-4,2.22-9,2.22-9c1.94,4.44.41,9.43.13,13.87s-1.52,2.08-2.77,3.6-2.36,1.81-3.19,4.72-2.36,2.49-2.49,4.44.55,2.91,1,6a18.48,18.48,0,0,1,.09,3.39c.13-.72.27-1.45.41-2.2.9-4.66,2.67-7.31,4.74-7.08,1.9.21,4.06,2.43,5.55,4.26a3.71,3.71,0,0,0,2.28,1.41,6.15,6.15,0,0,1,2-1.81,12.25,12.25,0,0,0,1.7-1.32c1.44-1.24,2.93-2.53,4.43-2.4,1.76.14,4.82,4,6.68,6.51h1.54c1.86-2.55,4.92-6.37,6.68-6.51,1.51-.13,3,1.16,4.43,2.4a12.25,12.25,0,0,0,1.7,1.32,6.15,6.15,0,0,1,2,1.81,3.69,3.69,0,0,0,2.28-1.41c1.49-1.83,3.66-4.05,5.55-4.26,2.06-.23,3.84,2.42,4.74,7.08.14.75.28,1.48.41,2.2a17.66,17.66,0,0,1,.1-3.39c.41-3.05,1.1-4,1-6s-1.67-1.53-2.5-4.44-1.94-3.19-3.19-4.72-2.5.84-2.77-3.6-1.81-9.43.14-13.87c0,0,.55,6.1,2.21,9s-1.8,1.94.56,4,3.6,2.35,3.46,3.19-.83,1.38,1.12,3.6,3.88,3.74,4.15,4.16a.57.57,0,0,1,.05.38,14.87,14.87,0,0,0,4.84-2.7l.72-.53c.07-.11.15-.27.25-.44a10.16,10.16,0,0,0-.17-2.53c-.69-4,.55-3.05-1.94-6.8s-8.88-9.7-9.15-19.27c0,0,4.57,11.37,8,14.42A47.71,47.71,0,0,1,369,430.1a50.42,50.42,0,0,1,3.48,3.85l.6-.39c.33-.21.74-.47,1.3-.86a8.64,8.64,0,0,0,2.81-3.53l.95-2.46,1,2.44c.24.59,2.28,5.75,2.43,7.52a3.46,3.46,0,0,0,.38,1.07,3.44,3.44,0,0,1-.84,4.62,10.25,10.25,0,0,0-1,1.1l.13-.06a40.35,40.35,0,0,0,2.55,4.35l.15.23C384,449.7,385,451.57,384.71,453.82Z"/><path class="cls-1" d="M326.86,454.14c-2.23-3.11-4.76-5.9-5.51-6.1-.61,0-2,1.13-2.87,1.91a13,13,0,0,1-2.07,1.58,5.22,5.22,0,0,0-1.8,2.07c.1,1.55.54,9,.54,11.44v4.14l-.12.23a2.56,2.56,0,0,0-.27.86,14.36,14.36,0,0,1,1.88.61c2.23.84,6,2.23,9,1.47l.12,0h3c0-1,0-1.94,0-2.91,0-4,.17-7.94.45-10.92.12-1.49.27-2.73.39-3.6,0-.11,0-.22,0-.32h-2.41Z"/><path class="cls-1" d="M328.79,474.4H326a10.37,10.37,0,0,1-2.29.25,16.2,16.2,0,0,1-4-.57l0,.12a4.61,4.61,0,0,0-.85.44c-.16,4.6-.29,11.66,0,13.07.16.84,1.45.88,2,.86l5.85-5h2.73c-.11-.84-.24-1.94-.34-3.23C329,478.61,328.87,476.57,328.79,474.4Z"/><path class="cls-1" d="M330.85,484.59l.07-.08-.07-.05Z"/><path class="cls-1" d="M610.41,210.12a306.43,306.43,0,1,0,24,118.88A304.32,304.32,0,0,0,610.41,210.12ZM329,628.7C163.74,628.7,29.29,494.26,29.29,329S163.74,29.3,329,29.3,628.71,163.74,628.71,329,494.26,628.7,329,628.7Z"/><path class="cls-1" d="M482.05,176a215.76,215.76,0,1,0,46.39,68.8A215.53,215.53,0,0,0,482.05,176ZM329,539.74c-116.2,0-210.74-94.54-210.74-210.74S212.8,118.26,329,118.26,539.74,212.8,539.74,329,445.2,539.74,329,539.74Z"/><path class="cls-1" d="M67.78,326.79a18.89,18.89,0,1,0,19,18.78A18.88,18.88,0,0,0,67.78,326.79Z"/><path class="cls-1" d="M581.45,324.05a18.89,18.89,0,1,0,19,18.78A18.9,18.9,0,0,0,581.45,324.05Z"/><polygon class="cls-1" points="135.76 198.22 148.05 183.26 141.05 180.58 130.06 171.55 129.95 170.44 133.21 166.47 138.5 163.15 125.68 152.62 123.44 158.45 120.19 162.42 119.07 162.53 114.19 158.52 114.08 157.4 122.5 147.15 128.85 143.16 114.09 137.47 93.03 163.11 99.17 165.6 132.13 192.68 135.76 198.22"/><polygon class="cls-1" points="153.59 155.27 155.48 158.82 169.94 160.27 187.98 145.52 189.43 131.07 186.31 128.51 164.31 101.6 161.84 95.46 147.77 106.96 153.3 110.6 173.06 134.76 173.83 138.21 172.39 141.43 169.94 143.43 166.49 144.21 163.27 142.76 143.52 118.61 141.04 112.46 126.06 124.72 131.59 128.36 153.59 155.27"/><polygon class="cls-1" points="186.19 95.94 191.64 93.08 192.71 93.41 208.11 122.8 209.52 131.43 228.06 121.71 221.76 115.64 206.35 86.26 206.69 85.19 212.14 82.33 220.7 80.97 208.68 69.43 177.54 85.75 180.19 102.2 186.19 95.94"/><polygon class="cls-1" points="241.11 89.46 253.62 88.5 256.09 89.81 257.02 92.83 256.59 95.44 254.67 97.27 243.87 100.59 235.13 100.39 245.03 114.29 267.31 107.43 274.1 94.59 269.57 79.87 260.18 74.91 247.67 75.87 245.69 74.82 245.23 73.31 245.66 70.7 247.58 68.87 258.3 65.57 265.49 65.83 256.32 52.95 235.18 59.46 228.38 72.3 232.22 84.76 241.11 89.46"/><path class="cls-1" d="M295.06,95.29l.69-4.84.7-.86,13-1.35.87.7L312,93.53l-.13,6.37,19.25-2-3.8-6L311.74,49.47l.64-5.23L285.67,47l1.71,5-6.46,44.75-2.49,6.62,18.07-1.88Zm4.38-35.8.1-2.79.68,2.71,5.69,16.48-.7.87-7.08.74-.86-.71Z"/><polygon class="cls-1" points="372.79 85.87 364.46 87.96 353.43 87.04 352.35 85.76 355.13 52.3 358.07 45.41 338.39 43.78 339.84 50.24 336.31 92.76 333.82 98.89 366.1 101.57 372.79 85.87"/><polygon class="cls-1" points="424.51 118.64 435.05 105.22 425.06 104.98 419.26 102.9 415.6 99.06 415.08 94.68 420.69 79.07 423.88 76.02 429.15 75.39 434.2 77.21 442.05 83.39 442.48 66.33 422.4 59.11 408.26 65.78 397.03 97 403.7 111.15 424.51 118.64"/><polygon class="cls-1" points="434.23 123.18 462.31 139.34 475.04 127.98 466.61 126.32 457.02 120.8 456.59 119.18 473.33 90.08 478.93 85.1 461.81 75.25 460.38 81.72 439.1 118.69 434.23 123.18"/><polygon class="cls-1" points="475.65 135.72 476.67 150.21 494.25 165.5 508.74 164.49 510.74 160.99 533.55 134.76 539.18 131.28 525.47 119.36 522.81 125.43 502.34 148.97 499.07 150.32 495.65 149.44 493.27 147.37 491.92 144.1 492.8 140.68 513.28 117.13 518.91 113.66 504.31 100.96 501.65 107.02 478.84 133.25 475.65 135.72"/><path class="cls-1" d="M571.64,186.71l1.88-12.14L552.76,146.2l-3.93,5.32-34.43,25.2-6.27,2.13,20.76,28.38,13.25,2.05,11.16-8.16,1.45-9.39L563,193Zm-31.41,3.9L538,192.24l-2.61.45-3.15-1.62-3.49-4.78.25-1.66,7-5.13,1.1.17,3.73,5.1.59,3.48Zm16.66-12.68-1.27.93-2.62.45-2.35-1.22-4-5.42.17-1.1,5.74-4.2,1.11.17,4,5.42.45,2.61Z"/><polygon class="cls-1" points="190.06 517.62 176.21 505.26 172.59 510.5 151.27 524.29 148.87 526.39 150.68 523.77 161.98 501.03 166.78 496.84 152.34 483.95 150.49 490.77 128.77 537.04 139.38 546.51 183.49 520.23 190.06 517.62"/><path class="cls-1" d="M201.66,524.13l-14,4-16.92,30.37,4,14,21.4,11.91,14-4L227,550l-4-14Zm8.3,24.06-10,17.95-2.92,2-3.53-.16-3.45-1.92-2-2.92.15-3.53,10-17.94,2.92-2,3.53.16,3.45,1.92,2,2.92Z"/><polygon class="cls-1" points="274.58 554.41 240.94 544.23 231.29 557.82 239.96 557.55 245.85 559.34 246.38 560.32 236.78 592.08 231.73 599.22 251.76 605.28 251.52 596.54 261.13 564.79 262.11 564.26 268.01 566.04 275.07 571.07 274.58 554.41"/><path class="cls-1" d="M314.32,564.49l1.68-5-26.73-2.59.68,5.22L274.7,604.69l-3.75,6L289,612.43l-.17-6.36,1.63-4.61.87-.71,13,1.26.71.87.72,4.83-1.4,6.21,19.27,1.87-2.54-6.59Zm-11.83,25.44-7.08-.69-.71-.86,5.57-16.53.66-2.71.13,2.79,2.29,17.29Z"/><polygon class="cls-1" points="365.36 569.09 372.67 570.72 366.19 556.29 333.18 559.68 335.79 565.77 340.15 608.21 338.83 614.69 358.08 612.72 355 605.89 353.55 591.74 354.25 590.87 359.36 590.35 365.46 591.71 363.76 575.21 358.07 577.77 352.96 578.3 352.1 577.6 351.45 571.31 352.15 570.44 365.36 569.09"/><path class="cls-1" d="M407.93,544.34l-23.3,7.53L378,564.8l10.7,33.08,12.93,6.61,23.3-7.53L431.55,584,420.86,551Zm5.75,40.9-2.52,2.47-3.76,1.22-3.49-.53-2.48-2.52-6.32-19.55.54-3.49,2.52-2.48,3.76-1.21,3.49.53,2.47,2.52,6.32,19.55Z"/><polygon class="cls-1" points="477.94 540.04 477.45 533.88 459.52 544.69 466.24 548.94 470.94 556.72 470.13 559.98 465.73 562.63 462.21 562.91 459.23 561.02 449.84 545.46 449.49 541.06 452.32 536.58 460.64 531.56 470.39 529.37 457.43 518.28 435.78 531.34 432.02 546.52 449.57 575.61 463.67 579.1 483.29 567.26 486.78 553.16 484.06 550.19 477.94 540.04"/><path class="cls-1" d="M494.85,485.52l-17.6,17L477,517.07l24.16,25,14.52.24,17.61-17,.24-14.52-24.17-25ZM518,519.71,516.85,523,514,525.78l-3.37,1.07-3.33-1.18L493,510.91,492,507.54l1.17-3.33,2.84-2.75,3.37-1.06,3.33,1.17L517,516.34Z"/></g></g></svg>